<svg width="300" height="74" viewBox="0 0 300 74" fill="none" xmlns="http://www.w3.org/2000/svg">
  <path d="M156.287 42.8207V23.4073H170.895V13.3046H178.594V15.8795H197.94V21.426H178.594V23.4073H194.979V42.8207H179.384V44.6037H198.532V50.3485H184.319C188.002 52.2 193.069 53.5184 199.519 54.3104C198.335 56.1586 197.28 58.0061 196.361 59.8569C188.859 58.4021 183.199 56.4893 179.384 54.1121V60.6496H171.882V53.9144C167.801 56.4215 162.142 58.5359 154.905 60.2536C153.983 58.2723 152.798 56.4215 151.352 54.7071C158.588 53.5184 163.788 52.0669 166.947 50.3485H152.734V44.6037H171.883V42.8207H156.287H156.287ZM164.381 28.7561V30.7374H186.886V28.7561H164.381ZM164.381 37.2742H186.886V35.293H164.381V37.2742Z" fill="#1C1D1D"/>
  <path d="M202.875 23.4073V16.2755H218.667V23.4073H214.521V32.5197H218.272V39.6508H214.521V49.1592C215.968 48.8963 217.285 48.698 218.469 48.5649V55.8944C217.547 56.0242 216.1 56.2904 214.126 56.6864C209.389 57.3459 205.768 57.9402 203.268 58.4693L202.084 50.7432C203.663 50.4803 205.372 50.282 207.217 50.1489V39.6495H203.268V32.5184H207.217V23.406H202.874L202.875 23.4073ZM250.253 33.7083C249.198 34.897 247.422 36.6799 244.923 39.0572C243.868 40.116 243.147 40.8401 242.752 41.2361C244.46 44.0094 247.027 46.7826 250.451 49.5559C250.185 50.085 249.791 50.9428 249.266 52.1315C248.082 54.3783 247.224 55.9603 246.7 56.886C243.147 53.8492 239.988 49.6244 237.225 44.2077V52.9241C237.487 57.8085 235.183 60.2536 230.315 60.2536C229.788 60.3834 227.681 60.4519 223.998 60.4519C223.603 57.8085 223.076 55.5649 222.419 53.7167C223.603 53.8498 225.183 53.9151 227.157 53.9151C229.131 54.0482 230.05 53.0572 229.921 50.9435V47.1799C228.998 47.8421 227.552 48.8976 225.577 50.3492C223.47 51.9338 221.891 53.0572 220.839 53.7167L218.076 46.189C218.471 45.9261 219.127 45.5294 220.05 45.0003C224.127 42.6231 227.419 40.6418 229.921 39.0572V28.3601H219.261V21.4267H229.921V13.7006H237.225V21.4267H241.963C241.697 21.03 241.303 20.5042 240.778 19.8421C239.594 18.3905 238.804 17.335 238.409 16.6728L243.542 13.5036C244.332 14.5624 245.646 16.0785 247.49 18.0598C247.885 18.4564 248.147 18.7872 248.28 19.0501L244.727 21.4273H249.662V28.3608H237.225C238.015 30.8711 238.804 33.1832 239.594 35.2943C241.303 33.313 242.95 31.3324 244.529 29.3511L250.254 33.709L250.253 33.7083ZM224.393 29.3505C224.917 30.2755 225.774 31.6625 226.959 33.5107C228.011 35.3615 228.8 36.7484 229.328 37.6709L223.011 41.0384C221.561 37.8685 220.049 34.897 218.47 32.1244L224.393 29.3511V29.3505Z" fill="#1C1D1D"/>
  <path d="M268.216 27.0717H259.333V25.6847C258.411 26.7436 257.424 27.666 256.372 28.458H271.572V48.0698H269.203C270.912 51.6357 272.427 54.6072 273.744 56.9838L268.413 59.5594L267.229 56.7862L255.384 60.9464L253.213 55.3999C253.475 55.3999 253.87 55.2668 254.398 55.0032C254.792 54.8701 255.119 54.8049 255.384 54.8049V29.4483L254.003 30.4386C253.738 29.25 253.411 27.7332 253.016 25.8824C252.751 24.6938 252.553 23.9011 252.424 23.5052C256.107 20.6021 258.939 17.1008 260.912 13.0064L268.019 13.4024C267.886 13.5355 267.754 13.7984 267.623 14.1951C267.491 14.4612 267.294 14.8572 267.031 15.3837C267.689 16.0459 268.675 16.9037 269.993 17.9593C271.177 18.8844 272.031 19.6124 272.559 20.1382V17.761H282.627V13.2048H289.931V17.761H299.999V27.666H297.63V41.5329H281.047V44.1079H298.616V60.3521H291.51V58.3708H281.047V60.5497H274.335V27.4677H272.559V23.3075L269.993 26.6751L268.216 24.6938V27.071L268.216 27.0717ZM261.307 33.8068V35.9858H265.847V33.8068H261.307ZM261.307 43.1176H265.847V40.7403H261.307V43.1176ZM265.058 52.0317L263.874 49.4567L266.835 48.0698H261.308V53.022L265.059 52.0317H265.058ZM263.874 20.3366L262.491 22.1195H265.65L263.873 20.3366H263.874ZM279.074 23.9025V26.874H293.485V23.9025H279.074ZM281.048 32.8165V35.5898H290.918V32.8165H281.048ZM291.511 50.051H281.048V52.8243H291.511V50.051Z" fill="#1C1D1D"/>
  <path d="M130.109 39.1557V44.7022L123.397 46.8811H134.847V52.8243H116.488V53.8146C116.617 57.9063 114.514 60.0852 110.171 60.3514C108.064 60.4812 104.511 60.5497 99.5109 60.5497C99.2457 58.6989 98.786 56.7177 98.1294 54.6066C100.628 54.7397 103.262 54.8049 106.026 54.8049C107.605 54.8049 108.326 54.1454 108.197 52.8236H87.0742V46.8805H109.382L116.883 44.7015H91.0224V39.155H130.109V39.1557ZM107.605 13.4031H115.304V16.969H134.848V23.3081H87.2725V16.969H107.605V13.4031H107.605ZM129.122 37.5704H92.6015V24.8921H129.122V37.5704ZM100.103 30.2409V32.4199H121.621V30.2409H100.103Z" fill="#F6BE4F"/>
  <path d="M110.96 73.9535C105.986 73.9535 101.161 72.9756 96.617 71.0472C92.2287 69.1846 88.2884 66.5183 84.9045 63.1227C81.5207 59.7271 78.8637 55.7724 77.0076 51.3695C75.0859 46.8107 74.1113 41.9681 74.1113 36.9761C74.1113 31.9841 75.0859 27.1422 77.0076 22.5827C78.8637 18.1791 81.5207 14.2251 84.9045 10.8295C88.2884 7.43384 92.2294 4.76757 96.617 2.90504C101.161 0.977913 105.986 0 110.96 0C115.935 0 120.76 0.977914 125.304 2.90634C129.692 4.76888 133.633 7.43514 137.016 10.8308C140.4 14.2264 143.057 18.1811 144.913 22.584C146.835 27.1428 147.81 31.9854 147.81 36.9774C147.81 41.9694 146.835 46.8113 144.913 51.3708C143.057 55.7743 140.4 59.7284 137.016 63.124C133.633 66.5197 129.692 69.1859 125.304 71.0485C120.761 72.9769 115.935 73.9548 110.96 73.9548V73.9535ZM110.96 1.18863C106.146 1.18863 101.475 2.13458 97.0786 4.00103C92.832 5.80355 89.0178 8.38435 85.7419 11.671C82.466 14.9577 79.8948 18.7852 78.0985 23.0472C76.2392 27.4592 75.2958 32.1459 75.2958 36.9774C75.2958 41.8089 76.2385 46.4956 78.0985 50.9076C79.8948 55.1689 82.4666 58.9964 85.7419 62.2838C89.0172 65.5711 92.8314 68.1513 97.0786 69.9538C101.475 71.8196 106.146 72.7662 110.96 72.7662C115.775 72.7662 120.446 71.8202 124.842 69.9538C129.089 68.1513 132.903 65.5704 136.179 62.2838C139.455 58.9971 142.026 55.1696 143.822 50.9076C145.682 46.4956 146.625 41.8089 146.625 36.9774C146.625 32.1459 145.682 27.4592 143.822 23.0472C142.026 18.7859 139.454 14.9584 136.179 11.671C132.904 8.3837 129.09 5.80355 124.842 4.00103C120.446 2.13523 115.775 1.18863 110.96 1.18863Z" fill="#EDB951"/>
  <path d="M36.2563 73.3592C56.28 73.3592 72.5125 57.0702 72.5125 36.9767C72.5125 16.8833 56.28 0.594315 36.2563 0.594315C16.2325 0.594315 0 16.8833 0 36.9767C0 57.0702 16.2325 73.3592 36.2563 73.3592Z" fill="#F6BE4F"/>
  <path d="M22.0432 13.1063H30.5318V21.426H41.784V13.1063H50.2725V21.426H58.9587V29.1521H50.2725V38.2645H60.3402V45.9906H44.35C45.2692 46.5197 46.5213 47.2471 48.1005 48.1696C52.4432 50.5468 56.0618 52.6605 58.958 54.5087L53.4308 60.6496C48.4275 57.4803 43.2305 54.3789 37.8352 51.3388L42.7702 45.99H29.149L34.4793 51.3388C33.2948 52.1315 31.583 53.1903 29.3466 54.5087C24.6086 57.282 20.9231 59.3931 18.2921 60.8479C15.923 57.6786 14.1463 55.5643 12.9618 54.5087C18.2238 51.7355 23.1595 48.897 27.7675 45.9906H12.1719V38.2645H22.0426V29.1521H13.554V21.426H22.0426V13.1063H22.0432ZM30.5318 29.1521V38.2645H41.784V29.1521H30.5318Z" fill="white"/>
</svg>
