<svg viewBox="0 0 14 12" fill="none" xmlns="http://www.w3.org/2000/svg">
  <path d="M13.652 1.09293V11.7051C13.5598 11.8868 13.4294 12.0001 13.2085 12.0001C9.75187 11.9975 6.29533 11.9968 2.8389 11.9979C2.56355 11.9979 2.40112 11.8341 2.40041 11.558C2.40041 11.2157 2.40041 10.8737 2.40041 10.5318V10.3986H2.23477C1.63539 10.3986 1.03565 10.3986 0.435554 10.3986C0.233583 10.3986 0.0896741 10.3042 0.0269811 10.1382C-0.0357118 9.97217 0.00703335 9.81366 0.155217 9.68329C0.503413 9.37118 0.803506 9.00927 1.04574 8.60931C1.95443 7.13959 2.35588 5.52382 2.39506 3.81152C2.41466 2.95875 2.39898 2.10563 2.40005 1.25251C2.40005 0.958992 2.55963 0.800479 2.85351 0.800123H4.82655C4.82655 0.670106 4.82655 0.559681 4.82655 0.4489C4.82655 0.180674 4.99219 -0.00170572 5.23014 0.000431535C5.46274 0.002925 5.62446 0.182811 5.62625 0.4432C5.62625 0.561106 5.62625 0.678655 5.62625 0.792286H7.62601C7.62601 0.670462 7.62601 0.555763 7.62601 0.441063C7.62815 0.181742 7.79129 7.53254e-05 8.02425 7.53254e-05C8.25721 7.53254e-05 8.42356 0.17818 8.4257 0.437501C8.4257 0.555407 8.4257 0.673668 8.4257 0.789437H10.4522C10.4522 0.659064 10.4522 0.54009 10.4522 0.419691C10.4557 0.180318 10.621 0.00434984 10.844 7.53254e-05C11.067 -0.00419919 11.2465 0.173906 11.2508 0.418622C11.2529 0.541514 11.2508 0.664763 11.2508 0.799767H11.4075C11.9775 0.799767 12.5453 0.807959 13.1138 0.795848C13.3631 0.790861 13.5459 0.861747 13.652 1.09293ZM12.8587 4.00708H3.19547C3.10143 6.04424 2.57353 7.93429 1.31682 9.59958H1.42368C4.48067 9.59958 7.53767 9.59851 10.5947 9.59637C10.6625 9.59177 10.7264 9.56309 10.7749 9.51551C11.1246 9.15453 11.4263 8.74999 11.6726 8.31188C12.24 7.32589 12.5777 6.26118 12.7412 5.13983C12.7946 4.76688 12.8192 4.39107 12.8587 4.00708ZM3.20544 3.18994H12.8456V1.60765H11.2522C11.2522 1.73019 11.2522 1.84489 11.2522 1.95959C11.2501 2.21819 11.0859 2.39879 10.8526 2.39915C10.6192 2.39951 10.4547 2.21891 10.4525 1.95923C10.4525 1.84132 10.4525 1.72342 10.4525 1.60943H8.42606C8.42606 1.74016 8.42606 1.85878 8.42606 1.97989C8.42178 2.21891 8.25507 2.39452 8.03209 2.39808C7.8034 2.40129 7.63064 2.22283 7.62672 1.97775C7.62494 1.85486 7.62672 1.73197 7.62672 1.60765H5.62767C5.62767 1.73161 5.62767 1.84631 5.62767 1.96137C5.62518 2.21891 5.45847 2.39951 5.22515 2.39808C4.99184 2.39666 4.82976 2.21606 4.82798 1.95638C4.82798 1.83847 4.82798 1.72093 4.82798 1.60587H3.20544V3.18994ZM12.8466 7.75761C12.811 7.83135 12.7907 7.87303 12.7711 7.91506C12.3743 8.76605 11.8884 9.55612 11.2105 10.2172C11.1499 10.2784 11.0772 10.3263 10.997 10.358C10.9169 10.3897 10.8311 10.4045 10.745 10.4014C8.28357 10.3971 5.82216 10.3962 3.36075 10.3986H3.20544V11.1911H12.8466V7.75761Z" fill="currentColor"/>
</svg>
