<svg viewBox="0 0 15 15" fill="none" xmlns="http://www.w3.org/2000/svg">
  <path d="M12.7778 1.95322V0.740143H11.2057V1.95322H3.79437V0.740143H2.22227V1.95322H0V13.3615C0 13.8577 0.402187 14.2599 0.898341 14.2599H14.1017C14.5978 14.2599 15 13.8577 15 13.3615V1.95322H12.7778ZM13.2266 12.3568H1.77337V4.66477H13.2266V12.3568Z" fill="currentColor"/>
  <path d="M5.29854 6.13023H3.41211V8.01665H5.29854V6.13023Z" fill="currentColor"/>
  <path d="M8.44308 6.13023H6.55664V8.01665H8.44308V6.13023Z" fill="currentColor"/>
  <path d="M11.5876 6.13023H9.70117V8.01665H11.5876V6.13023Z" fill="currentColor"/>
  <path d="M5.29854 9.00493H3.41211V10.8914H5.29854V9.00493Z" fill="currentColor"/>
  <path d="M8.44308 9.00493H6.55664V10.8914H8.44308V9.00493Z" fill="currentColor"/>
  <path d="M11.5876 9.00493H9.70117V10.8914H11.5876V9.00493Z" fill="currentColor"/>
</svg>
