<svg viewBox="0 0 15 15" fill="none" xmlns="http://www.w3.org/2000/svg">
  <path d="M11.8038 3.8429L3.6897 11.957L5.18466 13.452L13.2988 5.33786L11.8038 3.8429Z" fill="currentColor"/>
  <path d="M14.2482 0.752813C13.7628 0.267363 13.1173 0 12.4308 0C11.7443 0 11.0989 0.267363 10.6135 0.752813L10.3108 1.05548L13.9455 4.69025L14.2482 4.38759C14.7337 3.90214 15.001 3.25673 15.001 2.57021C15.001 1.88367 14.7336 1.23826 14.2482 0.752813Z" fill="currentColor"/>
  <path d="M9.6649 1.69838L1.55078 9.8125L3.04553 11.3073L11.1596 3.19313L9.6649 1.69838Z" fill="currentColor"/>
  <path d="M1.04262 10.5977L0.0165312 14.4272C-0.0256563 14.5846 0.0193729 14.7525 0.134598 14.8678C0.221258 14.9545 0.337771 15.0014 0.457156 15.0014C0.496502 15.0014 0.53617 14.9963 0.575193 14.9859L4.40473 13.9598L1.04262 10.5977Z" fill="currentColor"/>
</svg>
