<svg viewBox="0 0 13 15" fill="none" xmlns="http://www.w3.org/2000/svg">
  <path d="M11.5347 14.9943H0.734302C0.329714 14.9943 0 14.6948 0 14.3257V1.9069C0 1.53778 0.329714 1.23828 0.734302 1.23828V1.89508C0.693581 1.89508 0.667309 1.90953 0.6568 1.91873V14.3139C0.667309 14.3231 0.693581 14.3375 0.734302 14.3375H11.5347C11.5754 14.3375 11.6017 14.3231 11.6122 14.3139V1.91873C11.6017 1.90953 11.5754 1.89508 11.5347 1.89508H10.363V1.23828H11.5347C11.9393 1.23828 12.269 1.53778 12.269 1.9069V14.3257C12.269 14.6948 11.9393 14.9943 11.5347 14.9943Z" fill="currentColor"/>
  <path d="M0.652686 14.9994C0.493741 14.9994 0.342677 14.9442 0.22708 14.8431C0.0944065 14.7275 0.0195312 14.558 0.0195312 14.3781V1.95142C0.0195312 1.602 0.299328 1.29068 0.657941 1.24339L9.9267 0.0059754C10.1172 -0.018983 10.3063 0.0348746 10.4443 0.155726C10.5769 0.271323 10.6518 0.440777 10.6518 0.62074V13.0474C10.6518 13.3968 10.372 13.7081 10.0134 13.7554L0.744639 14.9942C0.714426 14.9981 0.682899 15.0007 0.652686 15.0007V14.9994ZM9.99501 0.660148L0.744639 1.89362C0.706544 1.89887 0.676331 1.93697 0.676331 1.95142V14.3387L9.9267 13.1039C9.9648 13.0986 9.99501 13.0605 9.99501 13.0461V0.660148Z" fill="currentColor"/>
  <path d="M2.80995 5.70098C2.64575 5.70098 2.50389 5.5775 2.48418 5.41068C2.46316 5.23071 2.5919 5.06783 2.77186 5.0455L9.09684 4.29937C9.27812 4.27704 9.43969 4.40709 9.46202 4.58705C9.48304 4.76701 9.35431 4.9299 9.17435 4.95223L2.84936 5.69836C2.83623 5.69967 2.82309 5.70098 2.80995 5.70098Z" fill="currentColor"/>
</svg>
