<svg viewBox="0 0 15 15" fill="none" xmlns="http://www.w3.org/2000/svg">
  <path d="M14.6244 6.88692L12.4458 4.86397V1.54976H9.93659V2.5343L7.42736 0.203125L0.228855 6.88692C0.12711 6.98118 0.121125 7.13978 0.215389 7.24153C0.309653 7.34328 0.468257 7.34926 0.570002 7.255L1.40342 6.48143V14.85H13.4498V6.48143L14.2832 7.255C14.3311 7.29988 14.3924 7.32233 14.4538 7.32233C14.5211 7.32233 14.5885 7.29539 14.6378 7.24303C14.7321 7.14128 14.7261 6.98268 14.6244 6.88841V6.88692ZM10.4378 2.0525H11.9431V4.39864L10.4378 3.00113V2.0525V2.0525ZM5.92063 14.3488V9.06248C5.92063 8.9323 6.02536 8.82756 6.15554 8.82756H8.69619C8.82636 8.82756 8.9311 8.9323 8.9311 9.06248V14.3488H5.91913H5.92063ZM12.9471 14.3488H9.43384V9.06248C9.43384 8.65549 9.10317 8.32482 8.69619 8.32482H6.15554C5.74856 8.32482 5.41788 8.65549 5.41788 9.06248V14.3488H1.90616V6.01609L7.42736 0.888412L11.0109 4.21609L12.4458 5.54926L12.9471 6.0146V14.3488Z" fill="currentColor"/>
  <path d="M13.5993 15H1.25368V6.82444L0.671633 7.36459C0.508541 7.51421 0.255673 7.50524 0.104551 7.34364C-0.045075 7.18205 -0.0360974 6.92768 0.125499 6.77806L7.42724 0L9.78685 2.19202V1.402H12.5953V4.8L14.726 6.77806C14.8876 6.92918 14.8966 7.18205 14.7469 7.34364C14.6033 7.49925 14.3355 7.50823 14.1814 7.36459L13.6008 6.82444V15H13.5993ZM1.55293 14.7007H13.3001V6.13915L14.3848 7.14613C14.4238 7.18354 14.4911 7.18055 14.527 7.14165C14.5659 7.10125 14.5629 7.03691 14.5225 6.99801L12.2961 4.93017V1.69975H10.0861V2.87731L7.42724 0.408479L0.330486 6.99651C0.290087 7.03392 0.287095 7.09825 0.325997 7.14015C0.363404 7.18055 0.429239 7.18354 0.469638 7.14464L1.55293 6.13766V14.7007V14.7007ZM13.0966 14.4988H9.2841V9.06284C9.2841 8.73815 9.02076 8.47481 8.69607 8.47481H6.15542C5.83223 8.47481 5.56739 8.73815 5.56739 9.06284V14.4988H1.75642V5.95062L7.42724 0.685287L13.0981 5.95062V14.4988H13.0966ZM9.58335 14.1995H12.7973V6.0808L7.42724 1.09377L2.05567 6.0808V14.1995H5.26964V9.06284C5.26964 8.57357 5.66764 8.17556 6.15692 8.17556H8.69757C9.18684 8.17556 9.58485 8.57357 9.58485 9.06284V14.1995H9.58335ZM9.08211 14.4988H5.77088V9.06284C5.77088 8.85037 5.94295 8.6783 6.15542 8.6783H8.69607C8.90854 8.6783 9.08061 8.85037 9.08061 9.06284V14.4988H9.08211ZM6.07014 14.1995H8.78285V9.06284C8.78285 9.01496 8.74395 8.97756 8.69757 8.97756H6.15692C6.11054 8.97756 6.07163 9.01646 6.07163 9.06284V14.1995H6.07014ZM12.0941 4.74165L10.2896 3.06584V1.90324H12.0941V4.74165ZM10.5888 2.93566L11.7948 4.05636V2.20249H10.5888V2.93566Z" fill="currentColor"/>
</svg>
