<svg viewBox="0 0 18 12" fill="none" xmlns="http://www.w3.org/2000/svg">
  <path d="M5.18115 9.45229C4.43476 9.45229 3.68676 9.43467 2.94197 9.45709C2.11388 9.48272 1.77592 8.9942 1.93449 8.17412C2.02258 7.72244 2.29487 7.39409 2.70331 7.19067C4.37069 6.35939 6.04608 6.35458 7.70705 7.19868C8.40539 7.55426 8.57197 8.17092 8.47266 8.82121C8.415 9.20082 8.05782 9.44908 7.61415 9.45068C6.80368 9.45389 5.99162 9.45068 5.18115 9.45068V9.45229ZM2.73374 8.621H7.6606C7.68783 8.23979 7.5709 8.04118 7.24896 7.88742C5.89231 7.23712 4.53406 7.22751 3.17261 7.87781C2.81703 8.04759 2.70651 8.22698 2.73214 8.6226L2.73374 8.621Z" fill="currentColor"/>
  <path d="M5.20509 6.14862C4.29852 6.15183 3.55853 5.42305 3.54892 4.51488C3.53931 3.61792 4.2825 2.86192 5.18266 2.85551C6.09564 2.8491 6.84684 3.59069 6.85004 4.50207C6.85164 5.40543 6.11326 6.14542 5.20669 6.14862H5.20509ZM6.01875 4.49566C6.01555 4.04077 5.64235 3.67238 5.19067 3.67879C4.73579 3.68519 4.3754 4.05519 4.38021 4.51328C4.38341 4.96816 4.75341 5.33335 5.20829 5.32855C5.66157 5.32374 6.02356 4.95375 6.02036 4.49566H6.01875Z" fill="currentColor"/>
  <path d="M12.2192 4.50573C13.2955 4.50573 14.3703 4.50573 15.4466 4.50573C15.7301 4.50573 15.8983 4.64988 15.9111 4.88694C15.9223 5.10957 15.7766 5.28896 15.5571 5.321C15.5059 5.32901 15.4546 5.3258 15.4034 5.3258C13.2715 5.3258 11.1396 5.3258 9.00775 5.3274C8.80594 5.3274 8.63455 5.28256 8.54005 5.08875C8.41352 4.82927 8.5865 4.53296 8.87641 4.51053C9.01736 4.49932 9.15991 4.50573 9.30086 4.50573C10.2731 4.50573 11.2453 4.50573 12.2192 4.50573Z" fill="currentColor"/>
  <path d="M13.0376 6.97896C13.8416 6.97896 14.6457 6.97896 15.4498 6.97896C15.698 6.97896 15.8582 7.09429 15.9014 7.28809C15.9607 7.55718 15.7813 7.78943 15.4946 7.79744C15.2303 7.80545 14.9676 7.79904 14.7034 7.79904C13.3771 7.79904 12.0525 7.79904 10.7263 7.79904C10.6751 7.79904 10.6238 7.80064 10.5726 7.79904C10.3243 7.78783 10.1481 7.61805 10.1465 7.3906C10.1449 7.16156 10.3179 6.98537 10.5661 6.98057C10.9137 6.97416 11.2613 6.97736 11.6089 6.97736C12.0846 6.97736 12.5619 6.97736 13.0376 6.97736V6.97896Z" fill="currentColor"/>
  <path d="M16.3663 12H1.34063C0.602242 12 0 11.3994 0 10.6594V1.34063C0 0.600641 0.600641 0 1.34063 0H16.3663C17.1046 0 17.7069 0.600641 17.7069 1.34063V10.6594C17.7069 11.3978 17.1062 12 16.3663 12ZM1.34063 0.707955C0.991458 0.707955 0.707955 0.991458 0.707955 1.34063V10.6594C0.707955 11.0085 0.991458 11.292 1.34063 11.292H16.3663C16.7154 11.292 16.9989 11.0085 16.9989 10.6594V1.34063C16.9989 0.991458 16.7154 0.707955 16.3663 0.707955H1.34063Z" fill="currentColor"/>
</svg>
