<svg viewBox="0 0 14 20" fill="none" xmlns="http://www.w3.org/2000/svg">
  <path d="M6.55424 0C10.1682 0 13.1084 2.93824 13.1084 6.54988C13.1084 10.0209 7.15207 19.413 6.89852 19.8111C6.82358 19.9287 6.69375 20 6.55424 20C6.41473 20 6.28489 19.9287 6.20999 19.8111C5.95644 19.413 0.000154495 10.0209 0.000154495 6.54988C0.000154495 2.93824 2.94032 0 6.55424 0ZM6.55424 18.8215C7.0933 17.9496 8.18726 16.1445 9.27052 14.1444C11.2472 10.4947 12.292 7.86861 12.292 6.54988C12.2921 3.38837 9.71807 0.816326 6.55424 0.816326C3.3904 0.816326 0.816482 3.38837 0.816482 6.54988C0.816482 7.86861 1.86134 10.4947 3.83799 14.1444C4.92126 16.1444 6.01521 17.9496 6.55424 18.8215Z" fill="currentColor"/>
  <path d="M6.55441 3.10498C8.26396 3.10498 9.65479 4.458 9.65479 6.12106C9.65479 7.78408 8.26396 9.13702 6.55441 9.13702C4.84485 9.13702 3.45403 7.78408 3.45403 6.12106C3.45403 4.458 4.84485 3.10498 6.55441 3.10498ZM6.55441 8.32065C7.8138 8.32065 8.83846 7.33392 8.83846 6.12102C8.83846 4.90808 7.8138 3.92127 6.55441 3.92127C5.29502 3.92127 4.27036 4.90808 4.27036 6.12102C4.27036 7.33392 5.29498 8.32065 6.55441 8.32065Z" fill="currentColor"/>
</svg>
