<svg viewBox="0 0 10 15" fill="none" xmlns="http://www.w3.org/2000/svg">
  <path d="M6.62739 7.89844H2.97896C1.33652 7.89844 0 8.88511 0 10.0995V14.5581C0 14.7999 0.266821 14.9986 0.595712 14.9986H9.01064C9.33953 14.9986 9.60635 14.8015 9.60635 14.5581V10.0995C9.60635 8.88511 8.27023 7.89844 6.62739 7.89844Z" fill="currentColor"/>
  <path d="M4.8028 0C4.09443 0.000159435 3.40201 0.210351 2.81309 0.603999C2.22417 0.997648 1.76519 1.55708 1.49418 2.21156C1.22318 2.86603 1.15231 3.58617 1.29055 4.28092C1.42878 4.97567 1.76991 5.61384 2.2708 6.11473C2.7717 6.61562 3.40986 6.95675 4.10461 7.09499C4.79936 7.23322 5.5195 7.16236 6.17398 6.89135C6.82846 6.62034 7.38788 6.16136 7.78153 5.57244C8.17518 4.98352 8.38537 4.2911 8.38553 3.58273C8.38436 2.63289 8.00652 1.72229 7.33488 1.05065C6.66324 0.379015 5.75264 0.00117324 4.8028 0V0Z" fill="currentColor"/>
</svg>
