<svg viewBox="0 0 14 14" fill="none" xmlns="http://www.w3.org/2000/svg">
  <path d="M13.9962 2.60859C13.9972 2.60299 13.9988 2.5974 13.9993 2.59181C14.0009 2.57456 13.999 2.55708 13.9969 2.53959C13.9965 2.53516 13.9972 2.53097 13.9965 2.52654C13.9923 2.50346 13.9846 2.48085 13.9732 2.45918C13.9713 2.45545 13.9687 2.45195 13.9666 2.44822C13.9662 2.44776 13.9662 2.44706 13.9659 2.44636C13.9657 2.44589 13.965 2.44566 13.9648 2.44496C13.9631 2.44239 13.9617 2.4396 13.9601 2.43727C13.9457 2.41605 13.9282 2.39857 13.9086 2.38365C13.9042 2.38039 13.899 2.37853 13.8944 2.3755C13.8771 2.36408 13.859 2.35475 13.8394 2.34846C13.8307 2.34566 13.8221 2.34426 13.8133 2.34263C13.7963 2.33913 13.7792 2.3375 13.7615 2.33797C13.7522 2.3382 13.7433 2.33867 13.734 2.34007C13.728 2.341 13.7221 2.34007 13.7161 2.34147L0.185981 5.13764C0.0897138 5.15769 0.0160566 5.23577 0.00230411 5.33321C-0.0114483 5.43064 0.037268 5.52621 0.124211 5.57213L4.00101 7.61705L4.68094 11.3901C4.68047 11.3929 4.68117 11.3959 4.68094 11.3987C4.67861 11.4174 4.67837 11.4356 4.6807 11.454C4.68187 11.4633 4.68303 11.4722 4.68536 11.4813C4.69073 11.5034 4.69935 11.5241 4.71101 11.5437C4.71334 11.5475 4.71334 11.5519 4.7159 11.5556C4.7166 11.5568 4.71776 11.5577 4.7187 11.5586C4.72173 11.5631 4.72592 11.5666 4.72942 11.571C4.74038 11.5845 4.7518 11.5969 4.76485 11.6074C4.76695 11.609 4.76835 11.6116 4.77068 11.6132C4.77417 11.6157 4.77814 11.6164 4.78163 11.6188C4.79585 11.6281 4.81054 11.6358 4.82615 11.6419C4.83245 11.6442 4.83827 11.647 4.8448 11.6488C4.86578 11.6549 4.88746 11.6591 4.90937 11.6591C4.9096 11.6591 4.90983 11.6591 4.91007 11.6591C4.911 11.6591 4.91193 11.6586 4.91286 11.6586C4.91683 11.6589 4.92079 11.6591 4.92475 11.6591C4.98932 11.6591 5.04759 11.6302 5.09071 11.5857L7.67314 9.86406L10.377 11.6216C10.4152 11.6463 10.4595 11.6591 10.5041 11.6591C10.5285 11.6591 10.5535 11.6551 10.5775 11.6472C10.6446 11.6248 10.6982 11.5731 10.7227 11.5064L13.9851 2.65148C13.9881 2.64355 13.9906 2.63539 13.9927 2.627C13.9937 2.62351 13.9939 2.62001 13.9946 2.61675C13.9953 2.61418 13.9958 2.61139 13.9962 2.60859ZM11.2966 4.09642L5.70398 8.2084C5.69489 8.21516 5.68766 8.22355 5.67974 8.23148C5.67671 8.23427 5.67368 8.23661 5.67111 8.23964C5.66622 8.245 5.66179 8.25036 5.65736 8.25619C5.65316 8.26178 5.6499 8.26761 5.64617 8.27343C5.63755 8.28742 5.63032 8.30187 5.62473 8.31726C5.62356 8.32029 5.6217 8.32262 5.62076 8.32565C5.62053 8.32658 5.6196 8.32705 5.61937 8.32798L4.97836 10.4111L4.47045 7.5928L11.2966 4.09642ZM5.33966 10.8596L5.97507 8.76083L6.96431 9.40393L7.24728 9.58784L6.28601 10.2286L5.33966 10.8596ZM12.131 3.14517L4.21219 7.20121L0.91626 5.46281L12.131 3.14517ZM10.3863 11.0717L6.79555 8.73799L6.25175 8.38439L13.2804 3.21626L10.3863 11.0717Z" fill="currentColor"/>
</svg>
