<svg viewBox="0 0 17 16" fill="none" xmlns="http://www.w3.org/2000/svg">
  <path d="M15.8738 0.133786C15.7407 0.000657367 15.5359 -0.0368918 15.3652 0.0382065L0.277272 6.65027C0.116835 6.72195 0.0110144 6.87556 0.00077369 7.04965C-0.00946698 7.22374 0.0826991 7.3876 0.232896 7.47293L5.49319 10.4564L8.61659 15.7713C8.69852 15.9112 8.85213 16 9.01257 16C9.02281 16 9.02963 16 9.03987 16C9.21396 15.9898 9.36416 15.8839 9.43585 15.7235L15.9728 0.642406C16.0479 0.468315 16.0104 0.266915 15.8738 0.133786ZM13.4741 1.87129L5.75262 9.54155L1.48908 7.12475L13.4741 1.87129ZM8.95112 14.5219L6.40802 10.1901L14.1739 2.47549L8.95112 14.5219Z" fill="currentColor"/>
</svg>
