<svg viewBox="0 0 12 10" fill="none" xmlns="http://www.w3.org/2000/svg">
  <path d="M6.30391 6.07891C6.11304 6.17357 5.90286 6.22283 5.68981 6.22283C5.47675 6.22283 5.26657 6.17357 5.0757 6.07891L1.38517 4.23414L0.0656627 4.89499C0.0459283 4.90488 0.0293346 4.92007 0.0177382 4.93885C0.00614178 4.95763 0 4.97927 0 5.00134C0 5.02342 0.00614178 5.04505 0.0177382 5.06384C0.0293346 5.08262 0.0459283 5.0978 0.0656627 5.10769L5.33294 7.74133C5.44376 7.79638 5.56582 7.82503 5.68956 7.82503C5.8133 7.82503 5.93536 7.79638 6.04618 7.74133L11.3139 5.10598C11.3337 5.09609 11.3503 5.0809 11.3619 5.06212C11.3735 5.04334 11.3796 5.0217 11.3796 4.99963C11.3796 4.97756 11.3735 4.95592 11.3619 4.93714C11.3503 4.91835 11.3337 4.90317 11.3139 4.89328L9.99444 4.23242L6.30391 6.07891Z" fill="currentColor"/>
  <path d="M6.30391 8.25516C6.11309 8.34998 5.90289 8.39933 5.68981 8.39933C5.47672 8.39933 5.26652 8.34998 5.0757 8.25516L1.38517 6.41016L0.0656627 7.07101C0.0459283 7.0809 0.0293346 7.09608 0.0177382 7.11486C0.00614178 7.13365 0 7.15528 0 7.17736C0 7.19943 0.00614178 7.22107 0.0177382 7.23985C0.0293346 7.25863 0.0459283 7.27382 0.0656627 7.2837L5.33294 9.91757C5.44378 9.97256 5.56583 10.0012 5.68956 10.0012C5.81329 10.0012 5.93534 9.97256 6.04618 9.91757L11.3137 7.28395C11.3334 7.27406 11.35 7.25888 11.3616 7.24009C11.3732 7.22131 11.3794 7.19967 11.3794 7.1776C11.3794 7.15553 11.3732 7.13389 11.3616 7.11511C11.35 7.09633 11.3334 7.08114 11.3137 7.07125L9.99419 6.4104L6.30391 8.25516Z" fill="currentColor"/>
  <path d="M11.3139 2.71684L6.04569 0.0836964C5.93487 0.0286467 5.81281 0 5.68907 0C5.56533 0 5.44327 0.0286467 5.33245 0.0836964L0.0656627 2.71684C0.0459283 2.72673 0.0293346 2.74191 0.0177382 2.7607C0.00614178 2.77948 0 2.80112 0 2.82319C0 2.84526 0.00614178 2.8669 0.0177382 2.88568C0.0293346 2.90446 0.0459283 2.91965 0.0656627 2.92954L5.33343 5.56366C5.4442 5.61873 5.56623 5.64738 5.68993 5.64738C5.81363 5.64738 5.93565 5.61873 6.04642 5.56366L11.3139 2.93003C11.3338 2.9202 11.3504 2.90504 11.3621 2.88625C11.3737 2.86746 11.3799 2.84579 11.3799 2.82368C11.3799 2.80157 11.3737 2.7799 11.3621 2.76111C11.3504 2.74232 11.3338 2.72715 11.3139 2.71733V2.71684Z" fill="currentColor"/>
</svg>
