<svg viewBox="0 0 13 16" fill="none" xmlns="http://www.w3.org/2000/svg">
  <path d="M5.71819 15.9216C5.46705 15.9026 5.21631 15.8797 4.96479 15.8646C3.60836 15.784 2.27442 15.5503 0.954809 15.2341C0.213039 15.0562 -0.112891 14.3671 0.191723 13.6432C0.800952 12.1963 1.41096 10.7495 2.02173 9.3026C3.1632 6.59388 4.30376 3.88478 5.44341 1.17529C5.6554 0.671473 6.00381 0.387012 6.56731 0.400188C6.60776 0.400539 6.64768 0.390957 6.68357 0.372285C7.42418 -0.0226286 8.17758 0.00566252 8.93795 0.305239C9.34023 0.464134 9.72778 0.664497 10.1359 0.797427C10.399 0.883076 10.6905 0.902066 10.9703 0.907104C11.1187 0.909817 11.278 0.836957 11.4156 0.765648C11.6198 0.659847 11.8357 0.739295 11.8826 0.964461C11.8939 1.02514 11.8988 1.08684 11.8973 1.14855C11.8973 1.81384 11.8973 2.47914 11.8973 3.14443C11.8973 3.49323 11.781 3.60678 11.4272 3.5905C10.3335 3.53934 9.43363 3.0832 8.71007 2.27283C8.45894 1.99108 8.17758 1.757 7.82375 1.61903C7.79739 1.60896 7.76988 1.60159 7.71833 1.58493C7.7443 1.6543 7.76019 1.70119 7.77918 1.74615C9.44797 5.70743 11.1169 9.66883 12.7859 13.6304C13.0123 14.1667 12.9355 14.638 12.5302 14.9771C12.3734 15.1014 12.1912 15.1896 11.9965 15.2356C10.4975 15.6069 8.97748 15.8433 7.43154 15.8979C7.38599 15.9028 7.34081 15.9107 7.29629 15.9216H5.71819ZM10.3657 9.4801C10.2971 9.51343 10.2421 9.539 10.1882 9.56652C8.54566 10.4115 6.77155 10.9713 4.94154 11.2221C3.95545 11.3576 2.95921 11.4044 1.96476 11.362C1.8733 11.3582 1.81711 11.3713 1.77642 11.4698C1.43421 12.2922 1.08541 13.1107 0.741657 13.9327C0.603301 14.2644 0.74592 14.545 1.09627 14.6302C1.49699 14.7256 1.89888 14.817 2.3031 14.8953C2.5488 14.943 2.80381 15.0035 3.04874 14.9837C3.42157 14.9531 3.79206 14.8717 4.15791 14.7876C5.19112 14.5508 6.22161 14.3024 7.25288 14.0571C7.47185 14.0051 7.63617 14.0807 7.68694 14.2621C7.73461 14.4345 7.63152 14.5942 7.42496 14.6496C7.02307 14.7597 6.62079 14.869 6.21619 14.9701C5.85925 15.0597 5.49883 15.1379 5.14035 15.2209C5.21186 15.2507 5.28843 15.2665 5.3659 15.2674C6.35989 15.3159 7.356 15.2987 8.34771 15.2158C9.53855 15.1136 10.7195 14.9182 11.8798 14.6314C12.2391 14.5446 12.3786 14.2663 12.2391 13.9241C12.1535 13.7145 12.0624 13.5071 11.9744 13.2986C11.8771 13.0684 11.7806 12.8378 11.6915 12.6266C11.2819 12.8979 10.8866 13.1657 10.4827 13.4207C10.2979 13.5329 10.106 13.6333 9.90838 13.7211C9.73979 13.7986 9.57625 13.74 9.49757 13.5908C9.4189 13.4416 9.46851 13.2808 9.62702 13.1785C9.68846 13.1408 9.75199 13.1067 9.8173 13.0762C10.3593 12.8107 10.8643 12.4756 11.3194 12.0794C11.397 12.0092 11.4152 11.9581 11.3729 11.8597C11.0861 11.1931 10.8056 10.5238 10.5234 9.85525L10.3657 9.4801ZM2.09304 10.7493C4.93882 10.8326 7.60982 10.235 10.1211 8.90265C9.8111 8.1632 9.50649 7.44352 9.19684 6.70911L9.06081 6.80135C8.7403 7.01722 8.43452 7.25944 8.09619 7.44236C7.65826 7.67915 7.19746 7.87487 6.73977 8.07523C6.70225 8.09346 6.66132 8.1036 6.61963 8.10498C6.57794 8.10636 6.53643 8.09895 6.4978 8.08323C6.45916 8.06751 6.42426 8.04384 6.39537 8.01375C6.36649 7.98366 6.34426 7.94783 6.33013 7.90858C6.26463 7.74891 6.3371 7.58963 6.51499 7.50592C6.55374 7.48848 6.5925 7.47801 6.63125 7.46057C6.99981 7.28966 7.38271 7.14278 7.73306 6.94048C8.15471 6.69749 8.54691 6.40683 8.95617 6.13632L7.69508 3.14521C7.63772 3.20876 7.59509 3.25333 7.55556 3.30023C7.23907 3.67516 6.86462 3.99702 6.44639 4.2536C5.89026 4.59774 5.28374 4.82911 4.66366 5.02288C4.51484 5.06939 4.43888 5.1469 4.38114 5.28836C4.08195 6.01695 3.77114 6.74051 3.46497 7.46639C3.40529 7.60746 3.34871 7.74969 3.2712 7.93765C3.59015 7.93765 3.87771 7.93765 4.16527 7.93765C4.40555 7.93765 4.54469 8.05624 4.54197 8.25079C4.53926 8.43759 4.4009 8.5585 4.17109 8.55424C3.83624 8.54843 3.50101 8.53796 3.16733 8.51316C3.05921 8.50502 3.01464 8.52905 2.97356 8.6271C2.69762 9.29291 2.4151 9.95601 2.13529 10.6203C2.12133 10.6567 2.11165 10.6955 2.09304 10.7493ZM4.79427 4.33963C5.06206 4.23112 5.30079 4.14043 5.5341 4.03812C6.26791 3.72363 6.89893 3.20983 7.35559 2.55497C7.37005 2.53327 7.3798 2.50878 7.3842 2.48308C7.38861 2.45738 7.38757 2.43104 7.38116 2.40576C7.23054 2.03423 7.07461 1.66451 6.91339 1.29659C6.88684 1.229 6.84346 1.16932 6.78737 1.1232C6.73127 1.07708 6.66433 1.04605 6.59289 1.03306C6.33904 0.983064 6.15728 1.08693 6.04024 1.36364C5.639 2.31133 5.2393 3.2594 4.84116 4.20787C4.82798 4.2381 4.8183 4.27065 4.79427 4.33963ZM11.2718 1.51323C10.9803 1.51323 10.706 1.5392 10.4385 1.50781C9.88357 1.44309 9.39216 1.18536 8.88835 0.962911C8.62412 0.850224 8.34853 0.766289 8.06635 0.712554C7.80602 0.66084 7.53619 0.687823 7.29125 0.790064C7.34806 0.815168 7.40629 0.836908 7.46565 0.855172C8.18339 1.01678 8.77208 1.37914 9.25497 1.94031C9.66461 2.41545 10.1925 2.72316 10.8009 2.88283C10.952 2.92159 11.1082 2.94174 11.2737 2.97275L11.2718 1.51323Z" fill="currentColor"/>
  <path d="M7.30286 15.9995H5.71196L5.47439 15.9809C5.30542 15.9673 5.13103 15.953 4.95973 15.9422C3.72189 15.8685 2.40577 15.6616 0.936573 15.3093C0.564912 15.2205 0.275413 15.0039 0.122718 14.6993C-0.0388905 14.3799 -0.0396656 13.9943 0.12078 13.6141C0.470092 12.7848 0.819662 11.9557 1.16949 11.1269L1.95118 9.2736L2.70845 7.47614C3.5816 5.40159 4.48576 3.25689 5.37131 1.14591C5.60887 0.580864 5.99836 0.30958 6.56729 0.321981C6.5942 0.321764 6.62071 0.315402 6.6448 0.303379C7.36331 -0.0779698 8.12059 -0.10006 8.96583 0.23207C9.12085 0.29369 9.27781 0.362674 9.42818 0.428945C9.66674 0.539057 9.91069 0.637101 10.1591 0.722707C10.4215 0.807968 10.7168 0.823858 10.971 0.828508C11.1008 0.831221 11.2504 0.762625 11.3795 0.695579C11.4364 0.663535 11.5 0.64511 11.5652 0.641749C11.6304 0.638387 11.6955 0.650179 11.7554 0.676201C11.8082 0.702236 11.8541 0.740384 11.8893 0.787531C11.9245 0.834679 11.9481 0.889488 11.9581 0.947486C11.9705 1.01339 11.9759 1.08042 11.9744 1.14746C11.9744 1.81275 11.9744 2.47805 11.9744 3.14334C11.9744 3.34758 11.9356 3.47586 11.8477 3.55957C11.7597 3.64328 11.6291 3.67583 11.4213 3.66692C10.3331 3.61615 9.40066 3.16311 8.64998 2.3229C8.38683 2.02836 8.13027 1.83304 7.84659 1.71212V1.71483L10.9125 8.99185L12.8572 13.6025C13.0998 14.1784 13.001 14.6877 12.5793 15.0388C12.4134 15.1703 12.2202 15.2634 12.0139 15.3112C10.4207 15.7058 8.92243 15.9232 7.43307 15.9759C7.40693 15.978 7.38101 15.9823 7.35556 15.9887C7.34006 15.9922 7.32456 15.9956 7.30944 15.9984L7.30286 15.9995ZM5.72088 15.8445H7.2889L7.32262 15.8375C7.35729 15.8288 7.39272 15.8233 7.42842 15.8212C8.90692 15.7685 10.3951 15.5527 11.9775 15.1624C12.1611 15.119 12.333 15.0361 12.4813 14.9194C12.8514 14.6117 12.9324 14.1773 12.7138 13.6622L10.7738 9.05347C9.75166 6.62793 8.72981 4.20225 7.70823 1.77645C7.69544 1.74622 7.68382 1.71483 7.66948 1.67724C7.6625 1.65786 7.65475 1.63849 7.64584 1.61291L7.58926 1.46254L7.74156 1.51098L7.78807 1.52532C7.81403 1.53346 7.83302 1.53927 7.85163 1.54664C8.18027 1.67453 8.47171 1.88846 8.76779 2.22059C9.4898 3.03018 10.3862 3.46501 11.4326 3.51345C11.5907 3.52081 11.6891 3.50027 11.7426 3.44873C11.7961 3.39719 11.8201 3.30107 11.8201 3.14489C11.8201 2.4796 11.8201 1.81443 11.8201 1.1494C11.8215 1.09292 11.8173 1.03644 11.8074 0.980815C11.8023 0.946361 11.7891 0.913606 11.7689 0.885243C11.7486 0.856879 11.722 0.833716 11.6911 0.817657C11.6527 0.802178 11.6114 0.795667 11.5701 0.798622C11.5289 0.801578 11.4889 0.813921 11.4531 0.834709C11.307 0.912219 11.1342 0.989729 10.9706 0.985078C10.7048 0.980428 10.3955 0.963375 10.1138 0.871914C9.86028 0.784778 9.61141 0.68479 9.36811 0.572338C9.2189 0.506455 9.06466 0.438246 8.91119 0.378563C8.1109 0.0627106 7.39471 0.0828632 6.72153 0.440959C6.67387 0.46654 6.6206 0.479859 6.56651 0.479714H6.53357C6.04874 0.479714 5.72553 0.712243 5.51703 1.20869C4.62876 3.31696 3.72461 5.46166 2.85029 7.53583L2.09263 9.33328L1.31133 11.1865C0.961247 12.0156 0.611677 12.8447 0.262623 13.6738C0.120005 14.0122 0.11923 14.3517 0.259911 14.6295C0.393228 14.8927 0.647461 15.081 0.972615 15.1589C2.43329 15.5077 3.7405 15.7147 4.96903 15.7879C5.14188 15.798 5.31782 15.8123 5.4868 15.8267L5.72088 15.8445ZM6.45335 15.3717C6.08595 15.3717 5.72204 15.3628 5.36162 15.3449C5.27451 15.3437 5.18845 15.3257 5.10816 15.2919L4.89772 15.1977L5.1225 15.1457C5.23205 15.1199 5.34198 15.0947 5.4523 15.0702C5.69685 15.0144 5.94992 14.957 6.19718 14.895C6.61767 14.7896 7.04048 14.6745 7.40401 14.5749C7.48226 14.5574 7.55056 14.5099 7.59429 14.4427C7.60782 14.4184 7.61633 14.3916 7.61933 14.3639C7.62232 14.3362 7.61974 14.3082 7.61173 14.2815C7.55748 14.0854 7.35479 14.111 7.2703 14.1311L6.58395 14.2947C5.7949 14.4826 4.97911 14.6776 4.17494 14.8617C3.79592 14.9485 3.42503 15.0291 3.05453 15.0593C2.82975 15.0779 2.60149 15.0322 2.38097 14.9884L2.28796 14.9698C1.85584 14.8865 1.43535 14.7888 1.07803 14.7039C0.884254 14.6578 0.74086 14.5559 0.666063 14.409C0.591266 14.2621 0.592816 14.0873 0.669938 13.9033C0.824958 13.5307 0.98127 13.1589 1.13887 12.7879C1.32529 12.3465 1.5179 11.8903 1.7047 11.4408C1.76399 11.297 1.86553 11.2807 1.96746 11.2858C2.95736 11.3275 3.94902 11.2809 4.93066 11.1466C6.75214 10.8954 8.51803 10.338 10.1537 9.49799C10.1901 9.47939 10.2273 9.46156 10.2699 9.44141L10.4067 9.37513L10.4936 9.58131C10.5284 9.66425 10.5622 9.74486 10.5963 9.82508C10.6642 9.98553 10.7319 10.1461 10.7993 10.3068C11.0102 10.8064 11.2276 11.323 11.4458 11.8291C11.5 11.9554 11.4795 12.0419 11.3725 12.1372C10.9462 12.5162 10.449 12.846 9.85371 13.1448L9.82271 13.1603C9.77052 13.1853 9.71968 13.213 9.6704 13.2433C9.54755 13.3208 9.5084 13.4413 9.5677 13.5533C9.62699 13.6653 9.75101 13.7083 9.87774 13.649C10.0723 13.5626 10.2611 13.464 10.4432 13.3537C10.7284 13.1735 11.0036 12.9906 11.2958 12.7968C11.4136 12.7193 11.5323 12.6405 11.6519 12.5604L11.7295 12.5089L11.8508 12.7972L12.0484 13.2669L12.1403 13.482C12.1976 13.6165 12.2565 13.7556 12.3135 13.8936C12.391 14.0839 12.391 14.2621 12.3174 14.409C12.2437 14.5559 12.0988 14.6574 11.9007 14.7055C10.7367 14.9935 9.55179 15.1896 8.35699 15.2919C7.71637 15.3465 7.08079 15.3717 6.45335 15.3717ZM5.58058 15.1996C6.50062 15.2352 7.42198 15.2149 8.33955 15.1388C9.52635 15.0376 10.7034 14.8432 11.8597 14.5574C12.0124 14.5187 12.1213 14.4454 12.1747 14.3412C12.2282 14.2369 12.2255 14.1021 12.1651 13.9536C12.1093 13.8168 12.0488 13.6785 11.993 13.5448C11.9624 13.4727 11.9314 13.4006 11.9011 13.3285C11.8341 13.17 11.7674 13.0111 11.7031 12.8588L11.6543 12.7426C11.5613 12.8046 11.4686 12.8658 11.3768 12.9274C11.085 13.1212 10.809 13.3053 10.5222 13.4863C10.3351 13.6001 10.1409 13.7019 9.94091 13.7913C9.739 13.885 9.52855 13.8172 9.42857 13.6269C9.32858 13.4367 9.39408 13.2355 9.58359 13.113C9.63768 13.0799 9.69343 13.0495 9.75062 13.022L9.78124 13.0069C10.3626 12.7135 10.8501 12.391 11.2667 12.0213C11.3241 11.9706 11.3283 11.9547 11.3004 11.8903C11.0822 11.3834 10.8644 10.8668 10.654 10.3673L10.4505 9.88554C10.4168 9.80493 10.3827 9.72432 10.3478 9.64138L10.3246 9.58596C10.2882 9.6034 10.2552 9.61929 10.2223 9.63595C8.5716 10.4834 6.78964 11.0459 4.95159 11.2997C3.96081 11.435 2.95996 11.4819 1.96087 11.44C1.88336 11.4369 1.87018 11.4446 1.84732 11.5001C1.66052 11.9504 1.46752 12.4065 1.28149 12.848C1.12466 13.2198 0.968739 13.5914 0.813719 13.9629C0.754812 14.104 0.751711 14.2342 0.805193 14.3389C0.858675 14.4435 0.965639 14.5179 1.11523 14.5532C1.46945 14.6377 1.89033 14.7349 2.31664 14.8179L2.41081 14.8361C2.62125 14.8779 2.83712 14.9214 3.04174 14.9047C3.40178 14.8752 3.76646 14.7962 4.14006 14.7109C4.94345 14.5268 5.75886 14.3323 6.54791 14.1443L7.23426 13.9808C7.49741 13.918 7.69932 14.0176 7.76055 14.2404C7.77424 14.2867 7.77848 14.3352 7.77303 14.3832C7.76757 14.4311 7.75252 14.4775 7.72877 14.5195C7.69725 14.5707 7.65593 14.6151 7.60718 14.6503C7.55843 14.6855 7.50322 14.7107 7.4447 14.7245C7.0804 14.8245 6.65681 14.94 6.23438 15.0461C6.01813 15.1 5.79761 15.1504 5.58058 15.1996ZM2.60265 10.8346C2.43264 10.8346 2.26225 10.8322 2.09147 10.8273L1.988 10.8242L2.02016 10.7257C2.02598 10.7079 2.03063 10.692 2.03528 10.6773C2.04497 10.6459 2.0531 10.6188 2.06473 10.5909C2.14689 10.3956 2.22944 10.2001 2.31238 10.0045C2.50615 9.54411 2.70806 9.06781 2.90261 8.5981C2.95532 8.47137 3.03089 8.42564 3.1739 8.43649C3.52889 8.46323 3.87846 8.47253 4.173 8.47757C4.2146 8.48147 4.25656 8.47711 4.29646 8.46474C4.33637 8.45237 4.37344 8.43223 4.40553 8.40549C4.42572 8.38515 4.44156 8.36092 4.45209 8.33427C4.46261 8.30762 4.46761 8.27911 4.46677 8.25047C4.46863 8.22224 4.46471 8.19393 4.45525 8.16728C4.44579 8.14062 4.43098 8.11618 4.41173 8.09545C4.36135 8.0439 4.27687 8.01794 4.16719 8.016C3.96838 8.016 3.76995 8.016 3.56106 8.016H3.15607L3.19986 7.90904C3.22583 7.84625 3.24947 7.78851 3.27156 7.73425C3.31574 7.62574 3.35411 7.53117 3.39403 7.437C3.48161 7.23031 3.56959 7.02258 3.65795 6.81382C3.87343 6.30497 4.09627 5.77906 4.30981 5.25975C4.37879 5.09155 4.47452 5.00164 4.64078 4.94971C5.38836 4.71718 5.93248 4.48116 6.40529 4.18856C6.81622 3.93587 7.18434 3.61942 7.49586 3.25108C7.52298 3.21891 7.55089 3.1883 7.58344 3.15303L7.63731 3.09412L7.7187 3.00344L9.05264 6.16623L8.99916 6.20188C8.8767 6.28327 8.75307 6.36814 8.6337 6.44991C8.35583 6.64059 8.06904 6.83746 7.77218 7.00837C7.52086 7.14702 7.2621 7.27175 6.99708 7.38197C6.88701 7.43041 6.77308 7.48041 6.66224 7.53156C6.64191 7.54096 6.62108 7.54924 6.59984 7.55637C6.58124 7.56334 6.56341 7.56954 6.54791 7.57691C6.40839 7.64279 6.35413 7.75905 6.4018 7.88036C6.41284 7.90989 6.42976 7.93686 6.45155 7.95965C6.47333 7.98243 6.49953 8.00055 6.52853 8.0129C6.55751 8.02396 6.58845 8.02898 6.61944 8.02765C6.65043 8.02631 6.68082 8.01866 6.70874 8.00515L6.875 7.93229C7.26875 7.75983 7.67607 7.58156 8.05819 7.37499C8.28793 7.24451 8.50962 7.10034 8.72206 6.94326C8.81779 6.87505 8.91584 6.80491 9.01621 6.73786L9.23053 6.59292L10.2192 8.93875L10.1564 8.97208C7.82605 10.2088 5.28643 10.8346 2.60265 10.8346ZM2.19844 10.675C4.98182 10.7409 7.61367 10.1324 10.0231 8.86783L9.1631 6.827L9.10458 6.86575C9.00691 6.93164 8.90847 7.00139 8.81353 7.06883C8.59597 7.22955 8.36898 7.37709 8.13376 7.51063C7.74621 7.7203 7.3358 7.89818 6.93895 8.07374L6.77308 8.1466C6.72602 8.16894 6.67483 8.18125 6.62277 8.18275C6.5707 8.18424 6.51889 8.17488 6.47063 8.15527C6.42237 8.13566 6.37872 8.10623 6.34246 8.06884C6.30619 8.03146 6.27809 7.98693 6.25996 7.9381C6.17896 7.73929 6.26887 7.53738 6.48358 7.43429C6.50605 7.42382 6.52776 7.41607 6.54907 7.40832C6.57039 7.40057 6.58395 7.39592 6.59906 7.38856C6.71107 7.33701 6.82578 7.28663 6.93701 7.2378C7.19597 7.1296 7.4489 7.00747 7.69467 6.87195C7.98611 6.70376 8.27057 6.50843 8.54728 6.3197C8.64998 6.24955 8.75578 6.17669 8.86158 6.10577L7.6718 3.28518C7.65165 3.30727 7.63305 3.32781 7.616 3.34874C7.29391 3.72954 6.91321 4.0566 6.48823 4.31762C6.00418 4.61758 5.4492 4.85708 4.68883 5.09504C4.56714 5.13379 4.50591 5.19076 4.4563 5.31594C4.24237 5.83603 4.01953 6.36233 3.80367 6.87157L3.53975 7.49474C3.50099 7.58814 3.46224 7.68232 3.41806 7.79006L3.39015 7.85827H3.56222C3.7715 7.85827 3.97031 7.85827 4.16913 7.85827C4.32105 7.85827 4.4439 7.90283 4.52374 7.98422C4.55729 8.01959 4.58337 8.06137 4.60042 8.10705C4.61746 8.15272 4.62513 8.20137 4.62295 8.25008C4.62345 8.29915 4.61411 8.34783 4.59547 8.39323C4.57683 8.43863 4.54927 8.47983 4.51443 8.51439C4.43344 8.5919 4.31446 8.63259 4.173 8.63065C3.87614 8.62523 3.52386 8.61631 3.16537 8.58918C3.08554 8.58337 3.07546 8.59267 3.04911 8.65546C2.85533 9.12555 2.65303 9.60224 2.45809 10.063C2.37567 10.2584 2.29326 10.4538 2.21084 10.6494C2.20425 10.6571 2.20154 10.6664 2.19844 10.675ZM4.66403 4.47418L4.721 4.31219C4.72952 4.28739 4.73611 4.26723 4.74193 4.25057C4.75239 4.21995 4.75975 4.19825 4.76905 4.17616L5.00701 3.61072C5.32661 2.8519 5.64698 2.09269 5.96813 1.3331C6.09835 1.02538 6.31305 0.898655 6.6072 0.956787C6.69104 0.972505 6.76955 1.00917 6.83541 1.06338C6.90127 1.11759 6.95235 1.18757 6.9839 1.26683C7.15016 1.64818 7.30789 2.02177 7.45206 2.37793C7.46349 2.41523 7.46639 2.45462 7.46056 2.49319C7.45472 2.53176 7.4403 2.56852 7.41835 2.60077C6.95307 3.26719 6.31113 3.79062 5.56469 4.11221C5.40541 4.18159 5.24419 4.24592 5.07367 4.31374L4.82292 4.41411L4.66403 4.47418ZM6.47466 1.09669C6.31034 1.09669 6.19563 1.19087 6.11075 1.392C5.78934 2.15134 5.46897 2.91094 5.14963 3.6708L4.92679 4.20096L5.01631 4.16531C5.18567 4.09787 5.34573 4.03393 5.50269 3.96533C6.2229 3.65559 6.84242 3.15108 7.29162 2.50853C7.30561 2.48525 7.3116 2.45803 7.30867 2.43102C7.1645 2.07642 7.00754 1.70398 6.84167 1.3238C6.82012 1.26775 6.78447 1.21822 6.73816 1.18C6.69186 1.14177 6.63647 1.11615 6.57736 1.10561C6.54346 1.09975 6.50905 1.09728 6.47466 1.09824V1.09669ZM11.3489 3.06428L11.257 3.04723C11.2047 3.03715 11.1532 3.02863 11.102 3.0201C10.99 3.0015 10.8842 2.98367 10.7784 2.95577C10.1339 2.78679 9.60064 2.46125 9.19294 1.98689C8.71431 1.43347 8.14268 1.087 7.44625 0.929659C7.40854 0.919851 7.37172 0.906887 7.33618 0.890904C7.31487 0.88199 7.29084 0.871914 7.26139 0.861062L7.07343 0.789753L7.26061 0.716506C7.51985 0.609151 7.80514 0.581229 8.08028 0.636284C8.36807 0.690658 8.64914 0.776028 8.91855 0.890904C8.99606 0.925525 9.07357 0.960662 9.15108 0.996317C9.56266 1.18312 9.98858 1.37612 10.4455 1.4296C10.6285 1.44626 10.8124 1.44963 10.9958 1.43967C11.0846 1.43735 11.1764 1.43464 11.2698 1.43464H11.3473L11.3489 3.06428ZM7.5412 0.793241C8.24383 0.963763 8.82321 1.32225 9.31114 1.88768C9.69869 2.33608 10.2048 2.64495 10.8183 2.80579C10.9175 2.83214 11.0198 2.84919 11.1284 2.86741L11.1939 2.87826V1.59159C11.1287 1.59159 11.0644 1.59469 11.0001 1.59624C10.8093 1.60666 10.618 1.60304 10.4277 1.58539C9.94633 1.52881 9.50957 1.33077 9.08675 1.13894C9.00924 1.10354 8.93173 1.06866 8.85422 1.0343C8.59517 0.923626 8.32489 0.841372 8.04811 0.788978C7.8807 0.754949 7.70801 0.756401 7.5412 0.793241Z" fill="currentColor"/>
  <path d="M8.58585 13.6377C8.66715 13.6377 8.74512 13.67 8.80261 13.7275C8.8601 13.785 8.8924 13.8629 8.8924 13.9442C8.8924 14.0256 8.8601 14.1035 8.80261 14.161C8.74512 14.2185 8.66715 14.2508 8.58585 14.2508C8.50455 14.2508 8.42657 14.2185 8.36908 14.161C8.31159 14.1035 8.2793 14.0256 8.2793 13.9442C8.2793 13.8629 8.31159 13.785 8.36908 13.7275C8.42657 13.67 8.50455 13.6377 8.58585 13.6377Z" fill="currentColor"/>
  <path d="M8.59029 14.3279H8.58641C8.48863 14.3267 8.39497 14.2883 8.32454 14.2205C8.25411 14.1527 8.21221 14.0605 8.20738 13.9628C8.20516 13.9104 8.21348 13.8581 8.23186 13.809C8.25023 13.7598 8.27828 13.7149 8.31435 13.6768C8.34952 13.6403 8.39164 13.6112 8.43824 13.5913C8.48483 13.5713 8.53495 13.5609 8.58564 13.5606C8.68816 13.5598 8.78682 13.5996 8.86002 13.6714C8.89707 13.7081 8.92643 13.7518 8.94639 13.8C8.96635 13.8482 8.97652 13.8998 8.97629 13.952C8.97458 14.0507 8.9339 14.1447 8.86313 14.2136C8.79054 14.2858 8.69265 14.3268 8.59029 14.3279ZM8.58719 13.7148C8.55717 13.7149 8.52748 13.721 8.49991 13.7329C8.47234 13.7447 8.44745 13.7621 8.42674 13.7838C8.40484 13.807 8.38785 13.8343 8.37679 13.8642C8.36573 13.8941 8.36084 13.926 8.36241 13.9578C8.36556 14.0157 8.39071 14.0702 8.4327 14.1102C8.4747 14.1501 8.53037 14.1726 8.58835 14.1729C8.65092 14.1717 8.71062 14.1465 8.755 14.1024C8.79645 14.0628 8.82056 14.0085 8.82204 13.9512C8.8222 13.9195 8.816 13.8882 8.80382 13.859C8.79164 13.8297 8.77372 13.8033 8.75112 13.7811C8.72956 13.7597 8.70397 13.7428 8.67582 13.7315C8.64767 13.7201 8.61754 13.7144 8.58719 13.7148Z" fill="currentColor"/>
  <path d="M5.76027 8.10355C5.76209 8.14464 5.75562 8.18568 5.74124 8.22423C5.72686 8.26277 5.70488 8.29802 5.67659 8.32789C5.6483 8.35775 5.61429 8.38162 5.57659 8.39807C5.53888 8.41452 5.49825 8.42321 5.45712 8.42362C5.41598 8.42404 5.37518 8.41617 5.33715 8.40049C5.29912 8.38481 5.26464 8.36164 5.23575 8.33235C5.20687 8.30306 5.18417 8.26826 5.16902 8.23002C5.15386 8.19177 5.14656 8.15087 5.14755 8.10975C5.14945 8.03028 5.18216 7.95466 5.23875 7.89884C5.29535 7.84302 5.37142 7.81137 5.45091 7.81056C5.5304 7.80976 5.6071 7.83986 5.66481 7.89452C5.72253 7.94919 5.75676 8.02413 5.76027 8.10355Z" fill="currentColor"/>
  <path d="M5.45379 8.49382C5.40325 8.49413 5.35315 8.48441 5.30639 8.46522C5.25964 8.44604 5.21715 8.41776 5.18139 8.38204C5.14564 8.34633 5.11732 8.30387 5.09809 8.25713C5.07885 8.21039 5.06908 8.1603 5.06934 8.10976C5.07134 8.00993 5.11215 7.9148 5.1831 7.84454C5.25406 7.77428 5.34959 7.73443 5.44945 7.73342C5.5493 7.73241 5.64562 7.77033 5.71798 7.83914C5.79034 7.90795 5.83306 8.00224 5.83707 8.10201C5.83857 8.15203 5.83019 8.20185 5.81241 8.24862C5.79463 8.29539 5.76781 8.3382 5.73347 8.37459C5.69913 8.41098 5.65795 8.44025 5.61228 8.4607C5.56662 8.48116 5.51737 8.49242 5.46735 8.49382H5.45379ZM5.45379 7.88693H5.45185C5.42212 7.88587 5.39249 7.89088 5.36476 7.90165C5.33703 7.91243 5.31179 7.92874 5.29057 7.94959C5.26936 7.97044 5.25261 7.9954 5.24136 8.02294C5.23011 8.05048 5.22459 8.08002 5.22513 8.10976C5.22422 8.1406 5.22954 8.1713 5.24078 8.20002C5.25202 8.22875 5.26895 8.25491 5.29054 8.27693C5.31214 8.29896 5.33797 8.31639 5.36647 8.32819C5.39497 8.33999 5.42556 8.34591 5.4564 8.34559C5.48725 8.34528 5.51771 8.33874 5.54597 8.32636C5.57422 8.31399 5.59968 8.29603 5.62083 8.27358C5.64198 8.25112 5.65837 8.22462 5.66902 8.19567C5.67967 8.16672 5.68437 8.13592 5.68283 8.10511C5.6831 8.07539 5.67725 8.04593 5.66564 8.01857C5.65403 7.9912 5.63692 7.96652 5.61536 7.94605C5.5938 7.92559 5.56827 7.90978 5.54034 7.89961C5.51241 7.88943 5.48268 7.88512 5.45301 7.88693H5.45379Z" fill="currentColor"/>
</svg>
