<svg width="16" height="15" viewBox="0 0 16 15" fill="none" xmlns="http://www.w3.org/2000/svg">
  <path d="M0 3.80267C0.0556391 3.66432 0.0992481 3.51996 0.169925 3.39064C0.589474 2.62823 1.1203 1.94402 1.70977 1.30793C2.05865 0.930489 2.44361 0.583121 2.83308 0.246279C3.37444 -0.22139 3.91429 0.0537976 4.19398 0.435752C4.89474 1.39515 5.54887 2.38763 6.04812 3.47335C6.12331 3.63726 6.17895 3.8132 6.23158 3.98763C6.31729 4.26282 6.26316 4.52297 6.07669 4.735C5.89774 4.9365 5.69323 5.11696 5.49624 5.30041C5.36241 5.42523 5.22556 5.54553 5.0797 5.6553C4.97895 5.73049 4.96391 5.80117 5.00602 5.91846C5.3985 6.98011 6.00602 7.8959 6.8406 8.65831C7.50226 9.26282 8.25714 9.71696 9.09624 10.0312C9.23008 10.0824 9.31579 10.0749 9.41203 9.95455C9.63759 9.67485 9.8782 9.40718 10.1203 9.13951C10.4391 8.78613 10.8286 8.67485 11.2632 8.88387C11.8211 9.15004 12.3789 9.42222 12.9128 9.7335C13.4571 10.0508 13.9714 10.4177 14.4977 10.7651C14.7353 10.9215 14.9053 11.1305 14.9985 11.4057C15.0677 11.6117 15.0662 11.8102 14.9459 11.9906C14.8045 12.2027 14.6632 12.4177 14.4917 12.6042C13.7083 13.4583 12.8045 14.1681 11.8316 14.7952C11.4481 15.0433 11.0647 15.0282 10.6511 14.9455C9.27669 14.6688 8.03158 14.0854 6.86917 13.3245C4.51729 11.7846 2.61955 9.80718 1.23308 7.35455C0.709774 6.42974 0.312782 5.45229 0.111278 4.40267C0.0932331 4.30492 0.0766917 4.20718 0.0616541 4.10944C0.0481203 4.01169 0.0390977 3.91244 0.0285714 3.8147C0.0195489 3.81019 0.0105263 3.80568 0.00150376 3.80267H0ZM3.3985 1.04477C3.37444 1.05831 3.3594 1.06432 3.34887 1.07485C2.47669 1.86884 1.7188 2.75906 1.08271 3.75305C1.05113 3.80267 1.04211 3.88086 1.04962 3.94252C1.17293 4.83575 1.47669 5.67184 1.89323 6.46282C3.31128 9.16207 5.3594 11.2658 7.96993 12.8237C8.93684 13.4012 9.96692 13.8342 11.0932 13.9982C11.1669 14.0087 11.2632 13.9921 11.3218 13.95C11.791 13.6117 12.2707 13.2854 12.7113 12.9139C13.1684 12.529 13.5865 12.0989 14.0346 11.6779C13.9459 11.6072 13.8917 11.5606 13.8331 11.5185C12.9564 10.8854 12.0301 10.3395 11.0556 9.86883C10.9083 9.79816 10.8346 9.82071 10.7323 9.93801C10.4226 10.2974 10.1038 10.6478 9.78346 10.9967C9.64361 11.1485 9.46466 11.1741 9.26617 11.126C8.42406 10.92 7.66617 10.532 6.96391 10.0358C5.54436 9.03575 4.55489 7.71094 3.99399 6.05981C3.85263 5.64327 3.90977 5.32748 4.25414 5.04929C4.56541 4.79665 4.85865 4.52147 5.16241 4.25981C5.23609 4.19665 5.25263 4.14553 5.20752 4.04929C4.72932 3.04477 4.16692 2.08989 3.51429 1.18914C3.4782 1.13951 3.43759 1.0944 3.3985 1.04628V1.04477Z" fill="currentColor"/>
  <path d="M8.04639 1.49671V0.517765C11.3201 0.427539 14.5411 3.20047 14.5426 6.99746H13.5532C13.5186 5.49822 12.9998 4.19145 11.9351 3.12378C10.8689 2.05461 9.56518 1.5313 8.04639 1.49521V1.49671Z" fill="currentColor"/>
  <path d="M8.04492 4.0007V3.02326C9.9953 2.92852 12.0554 4.64883 12.0344 6.9977H11.0479C11.0224 6.18266 10.7442 5.47138 10.1652 4.89093C9.58628 4.30898 8.878 4.02326 8.04492 3.9992V4.0007Z" fill="currentColor"/>
</svg>
