<svg viewBox="0 0 20 20" fill="none" xmlns="http://www.w3.org/2000/svg">
  <path d="M18.9345 4.36094L13.6197 0.0418921C13.505 -0.0514297 13.332 0.0292356 13.332 0.175879V4.49493C13.332 4.59095 13.4107 4.6686 13.5081 4.6686H18.8228C18.9878 4.66864 19.0621 4.46462 18.9345 4.36094Z" fill="currentColor"/>
  <path d="M9.89811 9.88804L6.95673 6.65232C6.85439 6.53997 6.66673 6.61232 6.66673 6.76467V7.83367C6.66673 7.92566 6.59208 8.00035 6.50005 8.00035H1.33333C1.14934 8.00035 1 8.14969 1 8.33368V11.3337C1 11.5177 1.14934 11.6671 1.33333 11.6671H6.50009C6.59208 11.6671 6.66677 11.7417 6.66677 11.8337V13.2361C6.66677 13.3884 6.85443 13.4608 6.95677 13.3481L9.89815 10.1124C9.9558 10.0487 9.9558 9.95171 9.89811 9.88804Z" fill="currentColor"/>
  <path d="M18.8336 5.33149H12.8335C12.7415 5.33149 12.6668 5.25684 12.6668 5.16481V0.164729C12.6668 0.0727355 12.5922 -0.00195312 12.5002 -0.00195312H3.16668C3.07469 -0.00195312 3 0.0726965 3 0.164729V7.16484C3 7.25683 3.07465 7.33152 3.16668 7.33152H5.8334C5.9254 7.33152 6.00009 7.25687 6.00009 7.16484V5.08613C6.00009 4.93512 6.18407 4.86078 6.28744 4.97113C7.24577 5.99349 10.3071 9.25885 10.9002 9.89156C10.9591 9.95457 10.9585 10.0502 10.9005 10.1146C10.3078 10.7719 7.24042 14.0193 6.28474 15.0303C6.18173 15.1393 5.99907 15.067 5.99907 14.9166C5.99872 14.247 5.99974 12.9566 6.00009 12.4979C6.00009 12.4059 5.92544 12.3312 5.8334 12.3312H3.33336C3.14938 12.3312 3.00004 12.4806 3.00004 12.6646V19.6647C3.00004 19.8487 3.14938 19.998 3.33336 19.998H18.6669C18.8509 19.998 19.0003 19.8487 19.0003 19.6647V5.49817C19.0003 5.40618 18.9256 5.33149 18.8336 5.33149Z" fill="currentColor"/>
</svg>
