<svg viewBox="0 0 18 20" fill="none" xmlns="http://www.w3.org/2000/svg">
  <path d="M0.155329 4.0867C0.187107 3.8771 0.272655 3.67919 0.403721 3.51206C0.534786 3.34493 0.706945 3.21421 0.903587 3.13253L8.27882 0.0945101C8.42817 0.032763 8.58833 0.000976563 8.75008 0.000976562C8.91182 0.000976562 9.07198 0.032763 9.22134 0.0945101L16.5966 3.13253C16.7932 3.21427 16.9654 3.34499 17.0965 3.5121C17.2277 3.67922 17.3134 3.8771 17.3453 4.0867C17.4998 5.12263 17.7595 7.86534 16.8285 10.9336C16.3194 12.6237 15.502 14.2063 14.4172 15.6023C13.1176 17.2726 11.4127 18.6987 9.34962 19.8445C9.16614 19.9456 8.95983 19.9986 8.75008 19.9986C8.54032 19.9986 8.33401 19.9456 8.15053 19.8445C6.08745 18.6987 4.38044 17.2706 3.0829 15.6002C1.99928 14.2039 1.18283 12.6214 0.67424 10.9315C-0.25938 7.86534 0.000335693 5.12263 0.155329 4.0867ZM1.23504 10.7643C2.34146 14.4101 4.76426 17.295 8.43747 19.3357C8.53312 19.3884 8.6407 19.4161 8.75008 19.4161C8.85945 19.4161 8.96703 19.3884 9.06268 19.3357C12.7359 17.295 15.1592 14.4112 16.2651 10.7643C17.1616 7.80857 16.9123 5.17003 16.7615 4.17264C16.7448 4.06294 16.7 3.95938 16.6314 3.8719C16.5628 3.78442 16.4727 3.71598 16.3698 3.67316L8.9967 0.635656C8.91862 0.602996 8.83478 0.586173 8.75008 0.586173C8.66537 0.586173 8.58153 0.602996 8.50345 0.635656L1.12875 3.67316C1.02615 3.71619 0.936388 3.78473 0.868078 3.87219C0.799768 3.95966 0.755198 4.06311 0.738646 4.17264C0.589413 5.17003 0.34017 7.80857 1.23661 10.7643H1.23504Z" fill="currentColor"/>
  <path d="M2.4267 4.50684L5.30662 3.33705C5.34262 3.32114 5.38146 3.31258 5.42085 3.31188C5.46024 3.31118 5.49936 3.31835 5.53591 3.33297C5.57246 3.34759 5.60569 3.36936 5.63362 3.39699C5.66155 3.42462 5.68362 3.45755 5.69852 3.49382C5.71342 3.53009 5.72085 3.56896 5.72037 3.60814C5.71988 3.64732 5.7115 3.68601 5.6957 3.7219C5.67991 3.7578 5.65703 3.79017 5.62842 3.81711C5.59981 3.84405 5.56606 3.865 5.52916 3.87872L2.64924 5.04903C2.57664 5.07821 2.51287 5.12559 2.46414 5.18656C2.41542 5.24753 2.38339 5.32001 2.37119 5.39695C2.12611 7.13494 2.26187 8.9051 2.76915 10.586C3.6525 13.4568 5.58886 15.7292 8.52533 17.335C8.59424 17.3721 8.67135 17.3915 8.74971 17.3915C8.82806 17.3915 8.90517 17.3721 8.97408 17.335C11.91 15.7292 13.8464 13.4568 14.7303 10.586C15.2375 8.9051 15.3733 7.13494 15.1282 5.39695C15.116 5.32001 15.084 5.24753 15.0353 5.18656C14.9865 5.12559 14.9228 5.07821 14.8502 5.04903L8.92695 2.64434C8.81314 2.59831 8.68575 2.59831 8.57194 2.64434L5.50665 3.88184C5.47065 3.89775 5.4318 3.90631 5.39242 3.90701C5.35303 3.90772 5.3139 3.90054 5.27736 3.88592C5.24081 3.8713 5.20758 3.84954 5.17965 3.82191C5.15172 3.79428 5.12965 3.76135 5.11475 3.72508C5.09984 3.68881 5.09242 3.64993 5.0929 3.61075C5.09338 3.57157 5.10177 3.53289 5.11757 3.49699C5.13336 3.4611 5.15624 3.42872 5.18485 3.40179C5.21346 3.37485 5.24721 3.3539 5.28411 3.34018L8.3494 2.10268C8.60553 1.998 8.89283 1.998 9.14897 2.10268L15.0722 4.50684C15.2389 4.57475 15.3852 4.6843 15.497 4.8249C15.6087 4.9655 15.682 5.1324 15.71 5.30945C15.9667 7.13423 15.8238 8.99264 15.2911 10.7574C14.8784 12.1051 14.2179 13.3649 13.3432 14.473C12.2959 15.8011 10.9193 16.9365 9.25526 17.8475C9.09943 17.9319 8.9248 17.9761 8.74735 17.9761C8.5699 17.9761 8.39527 17.9319 8.23943 17.8475C6.57536 16.9365 5.1998 15.8011 4.15099 14.473C3.27677 13.3648 2.61668 12.1049 2.20416 10.7574C1.67099 8.99272 1.52808 7.13421 1.78526 5.30945C1.81317 5.1324 1.88654 4.9655 1.99826 4.8249C2.10999 4.6843 2.25629 4.57475 2.42303 4.50684H2.4267Z" fill="currentColor"/>
  <path d="M5.91921 8.66826H7.23194C7.27726 8.66868 7.3209 8.65121 7.35329 8.61967C7.38568 8.58814 7.40418 8.54511 7.40473 8.50003V7.20628C7.40543 7.00598 7.48598 6.81414 7.62871 6.67285C7.77145 6.53156 7.96471 6.45236 8.16608 6.45264H8.99707C8.973 6.60767 8.96388 6.76463 8.96984 6.92139C8.96957 6.92538 8.96957 6.92938 8.96984 6.93337C8.96984 6.93337 8.97508 6.97399 8.98346 7.03753H8.16399C8.11862 7.03725 8.07498 7.05485 8.0426 7.08646C8.01023 7.11808 7.99174 7.16116 7.99119 7.20628V8.50003C7.9905 8.69997 7.91023 8.8915 7.76795 9.03273C7.62567 9.17396 7.43295 9.25341 7.23194 9.25368H5.92288C5.87742 9.25326 5.83365 9.27079 5.80116 9.30242C5.76867 9.33406 5.75011 9.37721 5.74956 9.42243V10.5797C5.75025 10.6248 5.76886 10.6679 5.80134 10.6994C5.83381 10.7309 5.87751 10.7484 5.92288 10.748H7.23194C7.43331 10.7477 7.62657 10.8269 7.7693 10.9682C7.91204 11.1095 7.99259 11.3013 7.99328 11.5016V12.7953C7.99384 12.8405 8.01232 12.8835 8.0447 12.9152C8.07707 12.9468 8.12071 12.9644 8.16608 12.9641H8.76092C8.76092 12.9761 8.76092 12.9881 8.76092 13C8.75434 13.1841 8.76927 13.3683 8.80542 13.549H8.1666C7.96527 13.5491 7.7721 13.4699 7.62939 13.3286C7.48668 13.1874 7.40609 12.9956 7.40526 12.7953V11.5016C7.4047 11.4565 7.3862 11.4135 7.35381 11.382C7.32142 11.3504 7.27778 11.333 7.23246 11.3334H5.9234C5.72193 11.3335 5.52862 11.2542 5.38582 11.1129C5.24302 10.9715 5.16236 10.7796 5.16153 10.5792V9.42191C5.16236 9.22228 5.24245 9.03107 5.38437 8.88991C5.52628 8.74875 5.71852 8.66909 5.91921 8.66826Z" fill="currentColor"/>
  <path d="M11.5946 8.66826H10.2856C10.2401 8.66882 10.1963 8.65142 10.1637 8.61989C10.1311 8.58835 10.1124 8.54525 10.1117 8.50003V7.20628C10.111 7.00598 10.0305 6.81414 9.88776 6.67285C9.74502 6.53156 9.55177 6.45236 9.35039 6.45264H8.79587C8.81995 6.60767 8.82906 6.76463 8.8231 6.92139C8.82338 6.92538 8.82338 6.92938 8.8231 6.93337C8.8231 6.93337 8.81787 6.97399 8.80949 7.03753H9.34934C9.37183 7.03726 9.39415 7.04139 9.41503 7.0497C9.43591 7.058 9.45494 7.07032 9.47104 7.08594C9.48713 7.10156 9.49997 7.12018 9.50883 7.14074C9.51769 7.1613 9.52239 7.1834 9.52266 7.20576V8.50003C9.52336 8.70033 9.60391 8.89218 9.74665 9.03347C9.88938 9.17476 10.0826 9.25396 10.284 9.25368H11.5931C11.6156 9.25347 11.6379 9.25767 11.6587 9.26604C11.6796 9.27441 11.6986 9.28679 11.7146 9.30246C11.7307 9.31813 11.7434 9.33679 11.7522 9.35737C11.761 9.37796 11.7657 9.40006 11.7659 9.42243V10.5797C11.7653 10.6248 11.7468 10.6678 11.7144 10.6994C11.682 10.7309 11.6384 10.7484 11.5931 10.748H10.284C10.0826 10.7477 9.88938 10.8269 9.74665 10.9682C9.60391 11.1095 9.52336 11.3013 9.52266 11.5016V12.7953C9.52211 12.8406 9.50356 12.8837 9.47107 12.9154C9.43858 12.947 9.39481 12.9645 9.34934 12.9641H8.75032C8.75032 12.9761 8.75032 12.9881 8.75032 13C8.75742 13.1841 8.74248 13.3684 8.70581 13.549H9.34463C9.44483 13.5499 9.54421 13.5311 9.63707 13.4936C9.72993 13.4562 9.81444 13.4009 9.88572 13.3308C9.95701 13.2608 10.0137 13.1774 10.0525 13.0855C10.0913 12.9936 10.1114 12.895 10.1117 12.7953V11.5016C10.1124 11.4565 10.131 11.4134 10.1635 11.3819C10.196 11.3504 10.2397 11.333 10.2851 11.3334H11.5941C11.7955 11.3335 11.9886 11.2543 12.1313 11.113C12.274 10.9717 12.3546 10.78 12.3555 10.5797V9.42191C12.3548 9.2217 12.2743 9.02993 12.1317 8.88866C11.9891 8.74738 11.7959 8.66812 11.5946 8.66826Z" fill="currentColor"/>
</svg>
