<svg viewBox="0 0 20 20" fill="none" xmlns="http://www.w3.org/2000/svg">
  <path d="M9.91609 1.6218C11.3894 1.6218 12.8651 2.04001 14.1836 2.83132C15.0199 3.33449 15.7714 3.96686 16.4097 4.70529L14.2071 4.63264C13.9484 4.62399 13.7317 4.82687 13.7232 5.08571C13.7147 5.3444 13.9175 5.5612 14.1763 5.56955L17.2239 5.67019C17.399 5.74226 17.6002 5.70197 17.7341 5.56794C17.8678 5.43391 17.9078 5.23264 17.8355 5.05759L17.7351 2.01071C17.7293 1.75187 17.5147 1.5468 17.2558 1.55251C16.9971 1.55837 16.7918 1.77297 16.7976 2.03166C16.7976 2.03517 16.7976 2.0384 16.7979 2.04177L16.8559 3.79958C16.2111 3.11052 15.4741 2.51389 14.666 2.02712C13.2019 1.14865 11.5594 0.684296 9.91609 0.684296C7.29109 0.684296 4.87087 1.76667 3.10222 3.7319C1.53542 5.47287 0.599976 7.81618 0.599976 10.0004C0.599976 10.2592 0.809741 10.4692 1.06873 10.4692C1.32771 10.4692 1.53748 10.2592 1.53748 10.0004C1.53748 8.04147 2.38284 5.93254 3.79905 4.35915C5.38782 2.59416 7.56004 1.6218 9.91609 1.6218Z" fill="currentColor"/>
  <path d="M18.8812 9.53168C18.6222 9.53168 18.4125 9.74144 18.4125 10.0004C18.4125 11.9592 17.5671 14.0683 16.1509 15.6418C14.5621 17.4068 12.3899 18.3789 10.0338 18.3789C8.5605 18.3789 7.08482 17.961 5.76632 17.1697C4.93004 16.6663 4.17857 16.034 3.54019 15.2957L5.74288 15.3683C6.00157 15.3767 6.21822 15.1738 6.22672 14.9151C6.23521 14.6564 6.03248 14.4398 5.77364 14.4311L2.72603 14.3307C2.55098 14.2586 2.34971 14.299 2.21583 14.4329C2.08209 14.5669 2.0421 14.7681 2.11446 14.9431L2.2148 17.99C2.22066 18.249 2.43526 18.4542 2.6941 18.4483C2.95279 18.4426 3.15816 18.228 3.1523 17.9692C3.1523 17.9658 3.1523 17.9626 3.15201 17.9591L3.094 16.2013C3.73883 16.8905 4.47579 17.4868 5.28394 17.9739C6.74805 18.8525 8.39058 19.3167 10.0338 19.3167C12.6588 19.3167 15.0791 18.2345 16.8477 16.2692C18.4145 14.5281 19.35 12.1848 19.35 10.0004C19.35 9.74144 19.1402 9.53168 18.8812 9.53168Z" fill="currentColor"/>
</svg>
