<svg viewBox="0 0 16 16" fill="currentColor" xmlns="http://www.w3.org/2000/svg">
  <path d="M10.4421 13.1875H5.06706C4.81969 13.1875 4.61914 13.3974 4.61914 13.6562C4.61914 13.9151 4.81969 14.125 5.06706 14.125H10.4421C10.6894 14.125 10.89 13.9151 10.89 13.6562C10.89 13.3974 10.6894 13.1875 10.4421 13.1875Z" fill="currentColor"/>
  <path d="M10.4421 9.4375H5.06706C4.81969 9.4375 4.61914 9.64737 4.61914 9.90625C4.61914 10.1651 4.81969 10.375 5.06706 10.375H10.4421C10.6894 10.375 10.89 10.1651 10.89 9.90625C10.89 9.64737 10.6894 9.4375 10.4421 9.4375Z" fill="currentColor"/>
  <path d="M10.4421 11.3125H5.06706C4.81969 11.3125 4.61914 11.5224 4.61914 11.7812C4.61914 12.0401 4.81969 12.25 5.06706 12.25H10.4421C10.6894 12.25 10.89 12.0401 10.89 11.7812C10.89 11.5224 10.6894 11.3125 10.4421 11.3125Z" fill="currentColor"/>
  <path d="M9.99349 0H3.72266V4.0625H9.99349V0Z" fill="currentColor"/>
  <path d="M15.2671 2.63731L12.8782 0.137313C12.7942 0.0494063 12.6802 0 12.5615 0H10.8892V4.53125C10.8892 4.79012 10.6887 5 10.4413 5H3.27465C3.02728 5 2.82674 4.79012 2.82674 4.53125V0H0.557292C0.309922 0 0.109375 0.209875 0.109375 0.46875V15.5312C0.109375 15.7901 0.309922 16 0.557292 16C0.695996 16 14.7641 16 14.9503 16C15.1977 16 15.3983 15.7901 15.3983 15.5312V2.96875C15.3983 2.84444 15.3511 2.72522 15.2671 2.63731ZM11.7851 15.0625H3.72257V8.5H11.7851V15.0625Z" fill="currentColor"/>
</svg>
