<svg width="19" height="20" viewBox="0 0 19 20" fill="none" xmlns="http://www.w3.org/2000/svg">
  <g clip-path="url(#svg_search)">
    <path d="M7.72041 0C3.45872 0 0.00390625 3.53899 0.00390625 7.90452C0.00390625 12.2701 3.45872 15.809 7.72041 15.809C11.9821 15.809 15.4369 12.2701 15.4369 7.90452C15.4332 3.54054 11.9806 0.00378042 7.72041 0ZM7.72041 13.0596C4.94104 13.0596 2.68791 10.7516 2.68791 7.90452C2.68791 5.05743 4.94104 2.7494 7.72041 2.7494C10.4998 2.7494 12.7529 5.05743 12.7529 7.90452C12.7492 10.7501 10.4983 13.0559 7.72041 13.0596Z" fill="#696969"/>
    <path d="M18.3942 16.9023L15.7102 14.1529C15.1858 13.6157 14.3356 13.6157 13.8113 14.1529C13.2869 14.69 13.2869 15.5609 13.8113 16.0981L16.4952 18.8475C17.0196 19.3846 17.8698 19.3846 18.3942 18.8475C18.9186 18.3103 18.9186 17.4394 18.3942 16.9023Z" fill="#696969"/>
  </g>
  <defs>
    <clipPath id="svg_search">
      <rect width="18.7921" height="19.25" fill="white"/>
    </clipPath>
  </defs>
</svg>
