<svg viewBox="0 0 11 12" fill="none" xmlns="http://www.w3.org/2000/svg">
  <path d="M5.27775 0.0585938C5.54717 0.113701 5.80801 0.189628 6.03946 0.348827C6.38725 0.587627 6.6236 0.907252 6.73872 1.3126C6.75831 1.3824 6.78648 1.41914 6.86363 1.43629C7.41348 1.55997 7.96088 1.69101 8.50951 1.82081C8.6932 1.8649 8.74464 1.94817 8.70178 2.13309C8.66136 2.30944 8.61973 2.48578 8.57442 2.67682C8.68463 2.67682 8.78382 2.67927 8.88302 2.67682C8.98221 2.67315 9.05324 2.71233 9.10345 2.79683C9.29816 3.12136 9.49533 3.44465 9.68882 3.7704C9.71086 3.80836 9.72433 3.85735 9.72678 3.90143C9.79291 5.19463 9.85414 6.48782 9.92027 7.78101C9.98517 9.05461 10.0525 10.3282 10.1199 11.6018C10.1223 11.6447 10.126 11.6863 10.1236 11.7292C10.1187 11.8516 10.0415 11.9288 9.91904 11.9361C9.88843 11.9386 9.85781 11.9361 9.82597 11.9361C6.67136 11.9361 3.51798 11.9361 0.363373 11.9361C0.107429 11.9361 0.0498721 11.8737 0.0633428 11.619C0.140494 10.1176 0.217644 8.6162 0.294795 7.11482C0.349903 6.04206 0.401336 4.9693 0.457669 3.89654C0.460118 3.84878 0.479712 3.79857 0.504204 3.75693C0.663404 3.48752 0.828727 3.22177 0.986702 2.95236C1.07977 2.79193 1.1606 2.62049 1.41042 2.68907C1.38838 2.49068 1.36878 2.31433 1.34919 2.13921C1.31612 1.86245 1.28183 1.58691 1.24999 1.31137C1.23407 1.17177 1.30755 1.08605 1.46553 1.06645C1.81822 1.02237 2.1709 0.983178 2.52359 0.941541C2.87628 0.899904 3.2302 0.861941 3.58166 0.814181C3.63432 0.806833 3.69677 0.772544 3.73106 0.729683C4.01395 0.376994 4.37521 0.159012 4.82097 0.0818614C4.84301 0.0781876 4.86261 0.0671661 4.88343 0.0598184H5.27775V0.0585938ZM9.71086 11.5283C9.5835 9.04849 9.45736 6.57722 9.33 4.0986H0.853219C0.725859 6.57722 0.599724 9.04849 0.472364 11.5283H9.71086ZM2.9118 3.67243C2.86281 3.46302 2.81383 3.26096 2.76729 3.0589C2.72933 2.8948 2.78076 2.80908 2.94241 2.76989C3.35511 2.66947 3.76658 2.57028 4.17927 2.47109C4.38011 2.4221 4.58095 2.37312 4.78423 2.32413L4.6385 1.09584L1.67249 1.44731L1.93578 3.67366H2.91302L2.9118 3.67243ZM5.82271 2.07186C5.9121 2.05104 5.98191 2.03635 6.05171 2.02043C6.28683 1.96287 6.35664 2.00573 6.41297 2.23963C6.52074 2.68907 6.6285 3.13972 6.73994 3.58793C6.74852 3.62222 6.79015 3.67366 6.81709 3.67366C7.18325 3.67978 7.54941 3.67733 7.92537 3.67733C8.04171 3.17769 8.15805 2.68417 8.27561 2.17963L5.92435 1.62977L5.82271 2.07186ZM3.33306 3.66998H6.34317C6.24275 3.25484 6.14478 2.84827 6.04436 2.43557L3.19468 3.12136C3.23754 3.30015 3.27551 3.4618 3.31469 3.62222C3.31837 3.63692 3.32572 3.65161 3.33306 3.66998ZM4.32133 0.726009C4.48053 0.70764 4.62258 0.69172 4.76341 0.6758C4.91159 0.65988 5.00099 0.727233 5.01936 0.875412C5.05365 1.15462 5.08426 1.43506 5.11733 1.71427C5.13692 1.88205 5.15897 2.04859 5.17856 2.21392C5.37572 2.20289 5.37817 2.20045 5.41613 2.03757C5.46512 1.82326 5.5141 1.60896 5.56554 1.39587C5.60962 1.21218 5.69412 1.16197 5.87781 1.20483C6.01497 1.23667 6.15335 1.26851 6.29786 1.30158C6.04436 0.541092 5.01568 0.183504 4.3201 0.726009H4.32133ZM8.34174 3.66998H9.15733C9.04222 3.47649 8.93445 3.29525 8.82301 3.11646C8.80954 3.09564 8.77403 3.07849 8.74831 3.07727C8.66014 3.07237 8.57197 3.07604 8.48012 3.07604L8.34174 3.67121V3.66998ZM1.52676 3.67243C1.50594 3.48874 1.48879 3.31607 1.46675 3.14462C1.46308 3.12013 1.43736 3.09931 1.42144 3.07604C1.39817 3.09319 1.36756 3.10421 1.35286 3.12625C1.28796 3.22667 1.22795 3.33076 1.16672 3.43363C1.12141 3.50956 1.07487 3.58671 1.02467 3.67243H1.52676Z" fill="currentColor"/>
  <path d="M9.87858 11.9988C9.87 11.9988 9.86021 11.9988 9.85163 11.9988H0.363319C0.250654 11.9988 0.136765 11.989 0.0681866 11.9167C-0.000391876 11.8445 -0.00406572 11.7294 0.00205735 11.6167L0.0461435 10.7582C0.108599 9.54342 0.171054 8.32738 0.232285 7.11256L0.292291 5.91122C0.32658 5.2389 0.359645 4.56659 0.395159 3.89427C0.398833 3.82325 0.431897 3.75834 0.450266 3.7265C0.522519 3.60404 0.595996 3.48158 0.670697 3.36034C0.758869 3.21461 0.847042 3.06888 0.932765 2.92193L0.949909 2.89254C1.02706 2.75783 1.12136 2.59373 1.34056 2.61333L1.32954 2.51291C1.31484 2.38555 1.3026 2.26554 1.2879 2.14553C1.27443 2.03164 1.26096 1.91652 1.24627 1.80263C1.22667 1.64098 1.20708 1.47933 1.18871 1.31769C1.16912 1.14257 1.26708 1.02868 1.4569 1.00541C1.69937 0.974793 1.94062 0.947852 2.1831 0.919686L2.75622 0.853556C3.02931 0.821716 3.30117 0.791101 3.57303 0.754363C3.611 0.749464 3.65876 0.722523 3.68202 0.693132C3.97471 0.328197 4.35434 0.102868 4.80867 0.0232677C4.81724 0.0220431 4.82704 0.0171446 4.83929 0.0122461L4.88215 0H5.28872C5.53364 0.0514338 5.81898 0.126135 6.07247 0.300031C6.43618 0.549852 6.67866 0.885396 6.79622 1.29809C6.81214 1.3532 6.82561 1.36789 6.87582 1.37892C7.35832 1.48791 7.83837 1.6018 8.31964 1.71569L8.5217 1.76345C8.73846 1.81488 8.80949 1.92999 8.75928 2.1492L8.65029 2.61823H8.67356C8.74458 2.61823 8.81194 2.61823 8.87929 2.61823C8.99808 2.61333 9.09237 2.66476 9.1536 2.76885C9.22831 2.89376 9.30423 3.01868 9.37893 3.14359C9.49895 3.3432 9.61896 3.54159 9.73897 3.74242C9.76591 3.78773 9.78306 3.84529 9.78551 3.90162C9.81735 4.53107 9.84796 5.16053 9.8798 5.78998C9.91287 6.45372 9.94593 7.11746 9.97899 7.7812C10.0231 8.64578 10.0684 9.51036 10.1137 10.3749L10.1798 11.6277C10.1823 11.6632 10.1835 11.6987 10.1823 11.7355C10.1762 11.8898 10.0757 11.9914 9.92021 12.0012C9.90552 12.0012 9.89082 12.0012 9.87613 12.0012L9.87858 11.9988ZM1.30627 2.73456C1.18993 2.73456 1.1336 2.81906 1.05645 2.95377L1.03931 2.98316C0.953583 3.13012 0.864186 3.27707 0.776014 3.4228C0.702537 3.54403 0.62906 3.6665 0.556808 3.78896C0.53354 3.82815 0.520069 3.86856 0.51762 3.9004C0.482106 4.57271 0.449042 5.24503 0.414753 5.91734L0.354746 7.11869C0.293516 8.3335 0.229836 9.54955 0.16738 10.7644L0.123294 11.6228C0.117171 11.7379 0.126968 11.8016 0.156359 11.8322C0.184525 11.8628 0.248205 11.8763 0.363319 11.8763H9.85286C9.87368 11.8763 9.8945 11.8763 9.91409 11.8763C10.0059 11.8702 10.0586 11.8175 10.0623 11.7281C10.0635 11.6963 10.0623 11.6645 10.0598 11.6326V11.6057L9.99369 10.3786C9.94838 9.51403 9.90307 8.64945 9.85898 7.78365C9.82469 7.11991 9.79285 6.45617 9.75979 5.79243C9.72917 5.16298 9.69733 4.53352 9.66549 3.90407C9.66427 3.86856 9.65202 3.82937 9.6361 3.8012C9.51731 3.60159 9.3973 3.40198 9.27729 3.20359C9.20136 3.07868 9.12666 2.95377 9.05196 2.82886C9.01277 2.76273 8.96256 2.73701 8.88664 2.73824C8.81806 2.74069 8.74826 2.74069 8.676 2.73946H8.49844L8.64294 2.11981C8.67845 1.96796 8.64661 1.91652 8.49599 1.88101L8.29393 1.83325C7.81388 1.71936 7.3326 1.60547 6.85133 1.49648C6.73621 1.47076 6.7007 1.40096 6.68111 1.32993C6.57212 0.945403 6.34556 0.633126 6.00634 0.399224C5.77244 0.2388 5.50548 0.167772 5.2728 0.120012L4.88827 0.123686C4.87235 0.131034 4.85398 0.138381 4.83194 0.142055C4.4021 0.216757 4.05798 0.422492 3.77999 0.767833C3.73591 0.821716 3.65998 0.864578 3.5914 0.874375C3.31831 0.911113 3.04523 0.942953 2.77214 0.973569L2.19902 1.0397C1.95654 1.06786 1.71529 1.09481 1.47404 1.12542C1.31484 1.14501 1.30382 1.23074 1.3124 1.30177C1.33076 1.46341 1.35036 1.62506 1.36995 1.78671C1.38342 1.90183 1.39812 2.01572 1.41159 2.13083C1.42628 2.25084 1.43853 2.37085 1.45323 2.49821L1.48384 2.76885L1.39689 2.74559C1.36383 2.73701 1.33444 2.73212 1.30872 2.73212L1.30627 2.73456ZM9.77448 11.591H0.407405L0.794383 4.03878H9.38751L9.77448 11.591ZM0.535989 11.4685H9.6459L9.27117 4.16124H0.911946L0.537214 11.4685H0.535989ZM7.48445 3.7412C7.26035 3.7412 7.03869 3.7412 6.81581 3.73752C6.74846 3.73752 6.6909 3.65058 6.67988 3.60527C6.57334 3.17788 6.47047 2.75048 6.36883 2.32187L6.35291 2.25574C6.32719 2.15042 6.30148 2.09654 6.26719 2.0745C6.23167 2.05368 6.17167 2.0549 6.06635 2.08062C6.01981 2.09164 5.97205 2.10266 5.9194 2.11369L5.7406 2.1541L5.87776 1.55649L8.34903 2.1345L7.97308 3.73875H7.70244C7.62896 3.73875 7.55671 3.73875 7.48323 3.73875L7.48445 3.7412ZM6.82684 3.61506C7.11707 3.61996 7.4073 3.61996 7.70244 3.61874H7.87633L8.20208 2.22757L5.96961 1.70466L5.90348 1.99245C5.95124 1.98143 5.9941 1.97285 6.03696 1.96183C6.14105 1.93612 6.24882 1.9202 6.33087 1.96918C6.41292 2.01817 6.44721 2.12226 6.4717 2.22635L6.48762 2.29248C6.59049 2.71987 6.69213 3.14848 6.79867 3.57465C6.80112 3.58567 6.81581 3.60649 6.82684 3.61384V3.61506ZM1.59528 3.73752H0.916845L1.15932 3.32973C1.20585 3.25135 1.25239 3.1742 1.30137 3.09705C1.31974 3.06888 1.34546 3.05419 1.36628 3.04194C1.3724 3.03827 1.37975 3.0346 1.38465 3.0297L1.43608 2.99296L1.4716 3.04439C1.4716 3.04439 1.48017 3.05541 1.48507 3.06031C1.50221 3.07991 1.52303 3.1044 1.5267 3.13869C1.54385 3.2685 1.55732 3.39831 1.57201 3.53301L1.59406 3.73507L1.59528 3.73752ZM1.13238 3.61506H1.45812L1.45078 3.54893C1.43608 3.41668 1.42261 3.28932 1.40669 3.16196C1.40669 3.16196 1.40547 3.16318 1.40424 3.1644C1.35648 3.23911 1.31117 3.31626 1.26464 3.39218L1.13238 3.61506ZM2.98889 3.7363H1.88062L1.60385 1.39606L4.69111 1.0299L4.85031 2.3733L3.73836 2.64272C3.47751 2.70517 3.21667 2.76885 2.95705 2.83131C2.82847 2.86315 2.79663 2.91581 2.82724 3.04684C2.86031 3.18645 2.89337 3.32728 2.92644 3.46933L2.98889 3.73507V3.7363ZM1.98838 3.61384H2.83337L2.80643 3.49872C2.77214 3.35667 2.73907 3.21584 2.70723 3.07623C2.66192 2.87907 2.73295 2.76028 2.92766 2.71375C3.18851 2.65007 3.44935 2.58761 3.71019 2.52516L4.71682 2.28146L4.58457 1.16706L1.73979 1.50383L1.98961 3.61506L1.98838 3.61384ZM9.26505 3.73507H8.26453L8.43231 3.01745H8.55722C8.62335 3.01745 8.68825 3.01623 8.75316 3.0199C8.79479 3.02235 8.8499 3.04562 8.87684 3.08725C8.96256 3.22564 9.04584 3.36402 9.13156 3.50975L9.26627 3.73507H9.26505ZM8.41884 3.61261H9.04951L9.02502 3.5722C8.9393 3.4277 8.85602 3.28932 8.77152 3.15216C8.76908 3.14971 8.75438 3.14236 8.74581 3.14236C8.68335 3.13869 8.62212 3.13991 8.55844 3.13991H8.53028L8.42006 3.61261H8.41884ZM6.42149 3.73507H3.29137L3.27055 3.67997C3.26443 3.66527 3.25953 3.65303 3.25708 3.64078L3.1236 3.07991L6.09207 2.36596L6.42271 3.73507H6.42149ZM3.37465 3.61261H6.26474L5.999 2.51413L3.26811 3.17053L3.37342 3.61261H3.37465ZM5.12462 2.28391L5.09768 2.07205C5.08298 1.95693 5.06829 1.84182 5.05482 1.72671C5.04135 1.61404 5.0291 1.50015 5.01563 1.38749C4.99604 1.22094 4.97767 1.05439 4.95685 0.887846C4.94338 0.773957 4.8846 0.728646 4.76948 0.742117C4.67396 0.753138 4.57844 0.762935 4.4768 0.775181L4.11187 0.816818L4.28331 0.683335C4.6213 0.418818 5.05849 0.340443 5.48221 0.469027C5.8998 0.595163 6.22677 0.901316 6.35536 1.28829L6.38965 1.39239L5.86306 1.27115C5.71121 1.23564 5.65978 1.26748 5.62426 1.41688C5.58263 1.592 5.54221 1.76712 5.5018 1.94224L5.47486 2.05858C5.42955 2.25574 5.39526 2.27044 5.18095 2.28268L5.1234 2.28636L5.12462 2.28391ZM4.805 0.617206C4.96052 0.617206 5.05972 0.707827 5.07931 0.87315C5.10013 1.0397 5.1185 1.20747 5.13809 1.37402C5.15156 1.48668 5.16381 1.59935 5.17728 1.71324C5.19075 1.82835 5.20545 1.94346 5.22014 2.05735L5.23239 2.15532C5.32913 2.14797 5.33281 2.13328 5.35607 2.02919L5.38301 1.91285C5.42343 1.73773 5.46384 1.56138 5.50548 1.38626C5.55813 1.16951 5.67325 1.0997 5.89123 1.14991L6.19861 1.22094C6.06145 0.922135 5.78836 0.688233 5.44669 0.585366C5.15156 0.495969 4.85031 0.516787 4.58702 0.639249C4.64457 0.633126 4.69968 0.627003 4.75601 0.62088C4.77316 0.619655 4.78908 0.61843 4.80377 0.61843L4.805 0.617206Z" fill="currentColor"/>
  <path d="M6.39816 6.12611C6.39816 6.06855 6.39326 6.00977 6.39816 5.95222C6.41408 5.78199 6.39326 5.65341 6.21692 5.54442C5.99281 5.40604 5.94138 5.10356 6.04302 4.85863C6.14344 4.61738 6.38836 4.47043 6.65533 4.49003C6.91005 4.50962 7.12926 4.70433 7.18926 4.96518C7.24682 5.21377 7.13415 5.48319 6.90393 5.60687C6.81575 5.65463 6.80228 5.70852 6.80106 5.79669C6.79371 6.11631 6.81208 6.44206 6.75575 6.75434C6.60635 7.5834 5.84219 8.14917 4.97516 8.10754C4.17181 8.06835 3.47623 7.41196 3.39663 6.59636C3.36969 6.32082 3.38071 6.04039 3.37949 5.7624C3.37949 5.69382 3.36234 5.65463 3.29621 5.62034C3.04517 5.48809 2.9276 5.21132 2.99741 4.94436C3.06843 4.67249 3.30478 4.4888 3.58155 4.49003C3.85341 4.49003 4.09344 4.67372 4.16324 4.93578C4.23427 5.2052 4.1216 5.48441 3.87423 5.61667C3.7983 5.65708 3.78116 5.70239 3.78361 5.77832C3.78851 6.00977 3.77993 6.24245 3.78973 6.4739C3.81912 7.16091 4.40081 7.71076 5.09027 7.71076C5.77606 7.71076 6.35652 7.16581 6.39326 6.48615C6.39939 6.36614 6.39326 6.24612 6.39326 6.12734H6.39694L6.39816 6.12611ZM3.76157 5.18071C3.79708 5.07417 3.78116 4.98967 3.69299 4.92844C3.61461 4.87333 3.53011 4.877 3.45786 4.93701C3.38316 4.99947 3.35622 5.07906 3.40398 5.17458C3.56073 5.06437 3.60971 5.06437 3.76279 5.18071H3.76157ZM6.77657 5.17948C6.82555 5.07907 6.79861 4.99947 6.72391 4.93701C6.65166 4.877 6.56838 4.87333 6.49001 4.92721C6.40918 4.98354 6.38224 5.0607 6.41653 5.15866C6.58185 5.06437 6.63696 5.06682 6.77779 5.17826L6.77657 5.17948Z" fill="currentColor"/>
  <path d="M5.06804 8.17289C5.0362 8.17289 5.00436 8.17289 4.97252 8.17044C4.13733 8.13003 3.41848 7.44179 3.33643 6.60416C3.31561 6.3923 3.31684 6.17677 3.31806 5.96736C3.31806 5.9 3.31806 5.83265 3.31806 5.76529C3.31806 5.71264 3.30949 5.69917 3.26785 5.67712C2.99721 5.53384 2.86128 5.22769 2.93843 4.93133C3.01681 4.6313 3.2752 4.43046 3.58136 4.43046C3.88139 4.43046 4.14468 4.63253 4.22183 4.92153C4.30143 5.22157 4.16917 5.53017 3.9022 5.67222C3.85077 5.70039 3.8422 5.72243 3.84342 5.77877C3.84587 5.87551 3.84465 5.97348 3.84465 6.07022C3.84465 6.20248 3.84465 6.33964 3.84955 6.47312C3.87771 7.12339 4.43369 7.6512 5.09008 7.6512C5.74035 7.6512 6.29633 7.12829 6.33184 6.48414C6.33674 6.40454 6.33551 6.32249 6.33429 6.24289C6.33429 6.20493 6.33429 6.16697 6.33429 6.12778L6.33674 6.06655C6.33674 6.02736 6.33551 5.98695 6.33919 5.94899C6.35388 5.78856 6.33429 5.69059 6.18611 5.59875C5.9167 5.4322 5.88241 5.09053 5.98772 4.83704C6.09794 4.5713 6.36858 4.40965 6.66126 4.43169C6.9417 4.45373 7.18417 4.66804 7.2503 4.95338C7.31521 5.23626 7.1854 5.52772 6.93435 5.66243C6.87434 5.69427 6.86577 5.72121 6.86332 5.79958C6.86087 5.88286 6.86087 5.96613 6.86087 6.04941C6.86087 6.28576 6.85965 6.5319 6.81679 6.76703C6.66738 7.59364 5.93996 8.17289 5.06804 8.17289ZM3.58136 4.55293C3.33153 4.55293 3.11968 4.71702 3.056 4.96195C2.99232 5.20687 3.10008 5.45057 3.32419 5.56936C3.40624 5.61222 3.4393 5.66977 3.4393 5.76529C3.4393 5.83265 3.4393 5.90123 3.4393 5.96981C3.43808 6.17554 3.43685 6.38862 3.45644 6.59313C3.5336 7.37199 4.20101 8.01124 4.97742 8.0492C5.82975 8.08961 6.55227 7.54221 6.69555 6.74621C6.73596 6.52088 6.73719 6.28086 6.73719 6.04941C6.73719 5.96491 6.73719 5.88163 6.73964 5.79713C6.74209 5.70651 6.75433 5.61957 6.87557 5.55466C7.07518 5.44812 7.18172 5.20687 7.13029 4.98032C7.07641 4.74641 6.87924 4.57007 6.65146 4.55293C6.41144 4.53456 6.18978 4.66682 6.10039 4.88357C6.01711 5.08318 6.04161 5.36485 6.24979 5.49343C6.44818 5.61589 6.47757 5.76774 6.46042 5.95878C6.45675 5.99552 6.45797 6.03349 6.4592 6.07145C6.4592 6.08982 6.4592 6.10819 6.4592 6.12778L6.45553 6.18901C6.45553 6.20616 6.45553 6.2233 6.45553 6.24044C6.45553 6.32249 6.45798 6.40699 6.45308 6.49027C6.41511 7.19809 5.80281 7.77366 5.09008 7.77366C4.37001 7.77366 3.7577 7.19197 3.72831 6.47802C3.72219 6.34209 3.72341 6.20371 3.72341 6.07022C3.72341 5.97348 3.72341 5.87796 3.72219 5.78121C3.72096 5.70284 3.73443 5.62324 3.84587 5.56446C4.0663 5.44689 4.17039 5.20197 4.10549 4.95338C4.04303 4.71825 3.82873 4.55415 3.5838 4.55293H3.58136ZM3.79199 5.2828L3.72341 5.23136C3.59238 5.13094 3.57401 5.13094 3.43808 5.22646L3.38052 5.26688L3.34868 5.2032C3.29112 5.08931 3.31684 4.97542 3.41848 4.89092C3.51278 4.81254 3.62544 4.80765 3.72831 4.87867C3.80179 4.93011 3.87771 5.02808 3.82016 5.20075L3.79321 5.28157L3.79199 5.2828ZM3.57891 4.95215C3.55074 4.95215 3.5238 4.96317 3.49686 4.98644C3.46134 5.01583 3.44297 5.04645 3.44052 5.07951C3.54584 5.01828 3.61687 5.01705 3.71729 5.07706C3.71361 5.02808 3.68667 5.00113 3.65728 4.98032C3.63034 4.96195 3.60462 4.95215 3.57891 4.95215ZM6.79842 5.27667L6.73841 5.22891C6.6184 5.13339 6.59023 5.13217 6.44573 5.21422L6.38082 5.25096L6.35756 5.18115C6.31592 5.05992 6.35021 4.95215 6.4543 4.8799C6.55349 4.81009 6.66861 4.81499 6.7629 4.89214C6.86455 4.97664 6.88904 5.08808 6.83148 5.20809L6.79842 5.27667ZM6.59758 5.03297C6.64412 5.03297 6.6882 5.0489 6.73964 5.08074C6.73841 5.04645 6.72004 5.01705 6.68453 4.98766C6.6331 4.9448 6.57921 4.94358 6.5241 4.98154C6.48859 5.00603 6.46777 5.0342 6.46287 5.06849C6.51308 5.04522 6.55594 5.0342 6.59636 5.0342L6.59758 5.03297Z" fill="currentColor"/>
</svg>
