<svg viewBox="0 0 25 25" fill="none" xmlns="http://www.w3.org/2000/svg">
  <path d="M20.834 2.08439H4.16732C3.80463 2.07697 3.44701 2.17044 3.13433 2.35436C2.82166 2.53829 2.56621 2.80545 2.39648 3.12606H20.834C21.1103 3.12606 21.3752 3.23581 21.5706 3.43116C21.7659 3.62651 21.8757 3.89146 21.8757 4.16773V22.9177C22.1875 22.7377 22.4474 22.48 22.63 22.1696C22.8125 21.8593 22.9115 21.5069 22.9173 21.1469V4.16773C22.9173 3.61519 22.6978 3.08529 22.3071 2.69459C21.9164 2.30389 21.3865 2.08439 20.834 2.08439Z" fill="currentColor"/>
  <path d="M18.75 4.16602H2.08333C1.5308 4.16602 1.0009 4.38551 0.610194 4.77621C0.219493 5.16691 0 5.69681 0 6.24935L0 22.916C0 23.4685 0.219493 23.9985 0.610194 24.3892C1.0009 24.7799 1.5308 24.9993 2.08333 24.9993H18.75C19.3025 24.9993 19.8324 24.7799 20.2231 24.3892C20.6138 23.9985 20.8333 23.4685 20.8333 22.916V6.24935C20.8333 5.69681 20.6138 5.16691 20.2231 4.77621C19.8324 4.38551 19.3025 4.16602 18.75 4.16602ZM19.7917 21.8743V22.916C19.7917 23.1923 19.6819 23.4572 19.4866 23.6526C19.2912 23.8479 19.0263 23.9577 18.75 23.9577H2.08333C1.80707 23.9577 1.54211 23.8479 1.34676 23.6526C1.15141 23.4572 1.04167 23.1923 1.04167 22.916V6.24935C1.04167 5.97308 1.15141 5.70813 1.34676 5.51278C1.54211 5.31743 1.80707 5.20768 2.08333 5.20768H18.75C19.0263 5.20768 19.2912 5.31743 19.4866 5.51278C19.6819 5.70813 19.7917 5.97308 19.7917 6.24935V21.8743Z" fill="currentColor"/>
  <path d="M22.916 0.000410094H6.24935C5.88666 -0.00701241 5.52904 0.0864511 5.21636 0.270379C4.90369 0.454307 4.64824 0.721469 4.47852 1.04208H22.916C23.1923 1.04208 23.4572 1.15182 23.6526 1.34717C23.8479 1.54252 23.9577 1.80748 23.9577 2.08374V20.8337C24.2695 20.6538 24.5294 20.396 24.712 20.0857C24.8945 19.7753 24.9936 19.4229 24.9994 19.0629V2.08374C24.9994 1.53121 24.7799 1.00131 24.3892 0.610604C23.9985 0.219904 23.4686 0.000410094 22.916 0.000410094Z" fill="currentColor"/>
</svg>
