<svg viewBox="0 0 40 40" fill="none" xmlns="http://www.w3.org/2000/svg">
  <path d="M36.1504 16.3818L37.4696 15.0627L22.4956 0.088623L6.20239 16.3818H12.8576L22.4957 6.74368L24.1594 8.40745L16.1851 16.3818H19.5127L25.8232 10.0713L27.4869 11.7351L22.8402 16.3818H26.1678L29.1525 13.3971L30.8163 15.0609L29.4953 16.3818H36.1504Z" fill="currentColor"/>
  <path d="M0 25.7937H1.17647C5.85984 25.988 5.85624 32.6599 1.17647 32.8525H0V39.9113H28.2353V18.7349H0V25.7937ZM23.5294 23.4407H25.8824V25.7937H23.5294V23.4407ZM23.5294 28.1466H25.8824V30.4996H23.5294V28.1466ZM23.5294 32.8525H25.8824V35.2055H23.5294V32.8525ZM9.41177 23.4407H21.1765V25.7937H9.41177V23.4407ZM9.41177 28.1466H21.1765V30.4996H9.41177V28.1466ZM9.41177 32.8525H21.1765V35.2055H9.41177V32.8525Z" fill="currentColor"/>
  <path d="M38.8235 25.7937H39.9999V18.7349H30.5881V39.9113H39.9999V32.8525H38.8235C34.1401 32.6582 34.1437 25.9863 38.8235 25.7937Z" fill="currentColor"/>
</svg>
