<svg viewBox="0 0 20 12" fill="none" xmlns="http://www.w3.org/2000/svg">
  <path d="M0 4.0002H0.59C1.03516 4.03373 1.45121 4.23423 1.75478 4.56154C2.05836 4.88884 2.22705 5.31878 2.22705 5.7652C2.22705 6.21161 2.05836 6.64155 1.75478 6.96885C1.45121 7.29616 1.03516 7.49666 0.59 7.5302H0V11.0002H14.12V0.450195H0V4.0002ZM11.76 2.8002H12.94V4.0002H11.76V2.8002ZM11.76 5.1502H12.94V6.3302H11.76V5.1502ZM11.76 7.5102H12.94V8.6802H11.76V7.5102ZM4.76 2.8002H10.64V4.0002H4.71L4.76 2.8002ZM4.76 5.1502H10.64V6.3302H4.71L4.76 5.1502ZM4.76 7.5102H10.64V8.6802H4.71L4.76 7.5102Z" fill="currentColor"/>
  <path d="M19.41 4.0002H20V0.450195H15.29V11.0002H20V7.5102H19.41C18.9841 7.45438 18.5929 7.24556 18.3096 6.92265C18.0262 6.59974 17.87 6.1848 17.87 5.7552C17.87 5.32559 18.0262 4.91065 18.3096 4.58774C18.5929 4.26484 18.9841 4.05601 19.41 4.0002Z" fill="currentColor"/>
</svg>
