<svg viewBox="0 0 13 15" fill="none" xmlns="http://www.w3.org/2000/svg">
  <path d="M8.23411 0L8.38816 0.053918C8.58698 0.118775 8.76096 0.243362 8.88639 0.410699C9.01183 0.578036 9.08261 0.779982 9.08909 0.989011C9.08909 1.16001 9.08909 1.33101 9.08909 1.52357H4.32428C3.16581 1.52357 2.34471 2.34621 2.34471 3.50775V12.5876C1.84867 12.5876 1.36495 12.6199 0.885846 12.5876C0.635148 12.5626 0.403567 12.4424 0.238783 12.2519C0.0739994 12.0613 -0.0114427 11.8148 4.88819e-05 11.5631C4.88819e-05 8.05279 4.88819e-05 4.54298 4.88819e-05 1.03369C-0.00283533 0.804309 0.071582 0.580639 0.211312 0.39871C0.351042 0.216782 0.547948 0.0871895 0.770307 0.0308103C0.797767 0.0226308 0.82455 0.0123297 0.850414 0L8.23411 0Z" fill="currentColor"/>
  <path d="M3.2229 8.70151V3.51614C3.2229 2.82753 3.64808 2.40234 4.33669 2.40234H11.1935C11.8837 2.40234 12.3073 2.82599 12.3073 3.51614V13.8869C12.3073 14.577 11.8837 15.0007 11.1935 15.0007H4.33669C3.64808 15.0007 3.22444 14.5755 3.2229 13.8869V8.70151ZM7.76434 5.9178C7.0973 5.9178 6.42871 5.9178 5.76167 5.9178C5.66026 5.91925 5.56078 5.94571 5.47205 5.99483C5.39274 6.04223 5.33178 6.11505 5.29906 6.20146C5.26634 6.28787 5.26379 6.3828 5.29181 6.47085C5.31766 6.57133 5.37825 6.65941 5.46285 6.71948C5.54745 6.77954 5.65058 6.80771 5.75397 6.79898H9.74853C10.0566 6.79898 10.2584 6.62182 10.2554 6.35531C10.2523 6.0888 10.052 5.92088 9.74082 5.92088L7.76434 5.9178ZM7.76434 9.14056C8.44217 9.14056 9.12 9.14056 9.79782 9.14056C9.91427 9.14056 10.0259 9.0943 10.1083 9.01197C10.1906 8.92963 10.2369 8.81796 10.2369 8.70151C10.2369 8.58507 10.1906 8.4734 10.1083 8.39106C10.0259 8.30872 9.91427 8.26247 9.79782 8.26247C8.44217 8.26247 7.086 8.26247 5.72932 8.26247C5.63774 8.26604 5.54862 8.29309 5.47051 8.34103C5.3935 8.38943 5.33448 8.46173 5.30249 8.54687C5.27049 8.63201 5.26728 8.72529 5.29335 8.81243C5.31844 8.90799 5.37524 8.9922 5.45445 9.05126C5.53365 9.11032 5.63057 9.14072 5.72932 9.13748C6.40561 9.1421 7.08651 9.14056 7.76126 9.14056H7.76434ZM7.76434 11.4852H9.78704C9.84782 11.4895 9.90882 11.4812 9.9662 11.4607C10.0236 11.4402 10.0761 11.408 10.1204 11.3662C10.1647 11.3244 10.1999 11.2738 10.2237 11.2178C10.2475 11.1617 10.2594 11.1012 10.2586 11.0403C10.2579 10.9794 10.2445 10.9193 10.2193 10.8638C10.1942 10.8083 10.1578 10.7586 10.1124 10.7179C10.0671 10.6772 10.0138 10.6464 9.95597 10.6273C9.8981 10.6082 9.83691 10.6013 9.77626 10.6071H5.78016C5.47205 10.6071 5.27179 10.7858 5.27487 11.0523C5.27795 11.3188 5.47822 11.4852 5.77708 11.4868L7.76434 11.4852Z" fill="currentColor"/>
</svg>
