<svg width="12" height="12" viewBox="0 0 12 12" fill="none" xmlns="http://www.w3.org/2000/svg">
  <path d="M5.18398 5.436L10.165 0.3C10.4831 -0.026 10.9971 -0.026 11.3133 0.3C11.6295 0.625999 11.6295 1.156 11.3133 1.482L6.9064 6.028L11.3114 10.572C11.6295 10.898 11.6295 11.428 11.3114 11.754C10.9952 12.082 10.4812 12.082 10.165 11.754L5.18398 6.618C5.02493 6.454 4.94734 6.242 4.94734 6.028C4.94734 5.814 5.02687 5.598 5.18398 5.436Z" fill="currentColor"/>
  <path d="M0.383934 5.436L5.36497 0.3C5.68307 -0.026 6.19708 -0.026 6.51324 0.3C6.82941 0.625999 6.82941 1.156 6.51324 1.482L2.10635 6.028L6.5113 10.572C6.82941 10.898 6.82941 11.428 6.5113 11.754C6.19514 12.082 5.68113 12.082 5.36497 11.754L0.383934 6.618C0.224883 6.454 0.147296 6.242 0.147296 6.028C0.147296 5.814 0.226822 5.598 0.383934 5.436Z" fill="currentColor"/>
</svg>
