<svg viewBox="0 0 15 11" fill="none" xmlns="http://www.w3.org/2000/svg">
  <path d="M14.6912 10.5265C14.5765 10.5265 14.4684 10.4621 14.4153 10.356C14.3976 10.3217 12.9836 7.69989 7.08296 7.6107V10.2181C7.08296 10.3355 7.0161 10.4428 6.9108 10.4946C6.80566 10.5464 6.68035 10.5344 6.58669 10.463L0.121246 5.50814C0.045047 5.4497 0 5.3593 0 5.26354C0 5.16728 0.045047 5.07693 0.121246 5.01834L6.587 0.0636715C6.6808 -0.00786195 6.80596 -0.0199514 6.9111 0.0316169C7.0164 0.0830848 7.08327 0.190786 7.08327 0.307969V3.05574C7.23932 3.0458 7.44264 3.03717 7.68257 3.03717C9.8828 3.03717 15 3.73706 15 10.2174C15 10.3608 14.9015 10.4855 14.7617 10.518C14.7382 10.5241 14.715 10.5265 14.6912 10.5265Z" fill="currentColor"/>
</svg>
