<svg viewBox="0 0 23 20" fill="none" xmlns="http://www.w3.org/2000/svg">
  <path d="M22.5371 8.71825L19.7625 6.88603L22.5371 5.0276C22.6904 4.93291 22.7806 4.76267 22.7726 4.58261C22.7714 4.4048 22.6702 4.24283 22.5109 4.16382L15.7839 0.0805285C15.6348 -0.0165662 15.4451 -0.0265363 15.2866 0.054376L11.3865 2.06987L7.48649 0.0543259C7.32798 -0.0265362 7.1383 -0.0165663 6.98915 0.0804784L0.262206 4.16382C0.102937 4.24283 0.00168405 4.4048 0.000481637 4.58261C-0.00743424 4.76267 0.0826965 4.93291 0.236054 5.0276L3.03677 6.88603L0.236054 8.71825C0.0866544 8.8166 -0.00217369 8.98438 0.000481637 9.16324C0.0184176 9.34957 0.125833 9.5155 0.288409 9.60824L3.53412 11.5452V14.5291C3.51498 15.2666 3.89524 15.9571 4.52876 16.3352L10.3658 19.7379C10.6773 19.913 11.0293 20.0032 11.3866 19.9996C11.7527 20.0066 12.1139 19.9163 12.4336 19.7379L18.2445 16.3352C18.8865 15.9653 19.2698 15.2694 19.2391 14.5291V11.519L22.4586 9.60819C22.6212 9.51545 22.7286 9.34952 22.7465 9.16319C22.76 8.98834 22.6805 8.81925 22.5371 8.71825ZM15.496 1.12753L21.2807 4.60881L18.794 6.25782L12.4859 2.67183L15.496 1.12753ZM1.49242 4.60876L7.27707 1.12753L10.2872 2.67188L4.00521 6.25782L1.49242 4.60876ZM1.49242 9.13704L4.00521 7.48803L10.2872 11.0478L7.27707 12.6445L1.49242 9.13704ZM10.8631 18.8218L5.05221 15.4452C4.7454 15.2435 4.56664 14.8959 4.58107 14.5291V12.1733L7.01535 13.6915C7.0922 13.7445 7.18379 13.7719 7.27707 13.77C7.36174 13.7682 7.44386 13.7408 7.51265 13.6915L10.863 11.9378V18.8218H10.8631ZM5.05221 6.88603L11.3866 3.27388L17.7471 6.88603L11.3866 10.472L5.05221 6.88603ZM17.7209 15.4452L11.9101 18.8066V11.9378L15.2866 13.6915C15.3554 13.7409 15.4375 13.7682 15.5222 13.77C15.5997 13.7731 15.6753 13.7448 15.7316 13.6915L18.1921 12.1472V14.5291C18.2065 14.8959 18.0277 15.2436 17.7209 15.4452ZM15.496 12.6445L12.4859 11.0478L18.794 7.48803L21.2807 9.13704L15.496 12.6445Z" fill="currentColor"/>
</svg>
