<svg viewBox="0 0 11 15" fill="none" xmlns="http://www.w3.org/2000/svg">
  <path d="M5.04708 14.9985C4.84847 14.9985 4.64835 15.0015 4.44974 14.9985C3.85848 14.9878 3.41427 14.5603 3.41275 13.9675C3.41275 13.728 3.38243 13.5552 3.15502 13.4096C2.92761 13.2641 2.823 13.0048 2.81087 12.7274C2.80178 12.5227 2.78965 12.3165 2.80784 12.1149C2.85332 11.5934 2.73204 11.0885 2.67139 10.5791C2.60014 9.98481 2.29389 9.49967 1.8421 9.10852C0.967331 8.352 0.394256 7.41507 0.131976 6.28863C-0.45626 3.77347 0.980975 1.17492 3.4082 0.286506C5.93853 -0.641329 8.67048 0.78681 9.66503 3.09578C10.5534 5.15764 10.0243 7.53181 8.33392 9.02968C7.84877 9.45873 7.50008 9.96055 7.41215 10.6079C7.32725 11.2295 7.24386 11.8526 7.28783 12.4833C7.31967 12.9457 7.16048 13.3156 6.74962 13.5612C6.71475 13.5824 6.69504 13.6461 6.6905 13.6916C6.67685 13.8356 6.68746 13.9827 6.66624 14.1252C6.59498 14.6134 6.19929 14.9712 5.70808 14.9939C5.48825 15.0045 5.26691 14.9954 5.04556 14.9954V14.9985H5.04708ZM5.04253 11.2795C5.45641 11.2795 5.87182 11.2795 6.28571 11.2795C6.56921 11.2795 6.6723 11.1582 6.70111 10.8808C6.72991 10.5928 6.7663 10.3017 6.84665 10.0257C7.03161 9.38444 7.44702 8.90082 7.93671 8.45813C9.40578 7.13308 9.81663 4.99845 8.96309 3.21404C8.05799 1.3235 6.00523 0.46237 4.42245 0.729199C2.33786 1.07941 0.700502 2.94569 0.691406 5.05909C0.685341 6.48269 1.23113 7.65916 2.30299 8.5976C2.9928 9.20251 3.36424 9.96661 3.39608 10.8884C3.40517 11.1598 3.52343 11.278 3.79783 11.2795C4.21172 11.281 4.62712 11.2795 5.04101 11.2795H5.04253ZM6.59802 11.9633H3.49614C3.49614 12.2059 3.48856 12.4469 3.49917 12.688C3.50675 12.8593 3.64319 12.9881 3.82057 12.9881C4.63774 12.9927 5.4549 12.9927 6.27206 12.9881C6.4555 12.9881 6.58892 12.8547 6.5965 12.6728C6.6056 12.4378 6.59802 12.2013 6.59802 11.9618V11.9633ZM5.99007 13.7022H4.10256C4.10256 13.8068 4.0965 13.8993 4.10256 13.9903C4.11621 14.1737 4.24204 14.3056 4.42397 14.3086C4.83786 14.3147 5.25023 14.3147 5.66412 14.3086C5.84756 14.3056 5.97491 14.1752 5.98856 13.9933C5.99614 13.8993 5.98856 13.8023 5.98856 13.7022H5.99007Z" fill="currentColor"/>
  <path d="M1.60372 4.56918C1.75381 2.92121 2.80748 1.70532 4.34629 1.3733C4.54035 1.33085 4.74047 1.31418 4.93756 1.30053C5.20742 1.28234 5.37722 1.4112 5.38783 1.62649C5.39996 1.84025 5.23926 1.98428 4.9694 1.99186C4.34478 2.00854 3.78838 2.2132 3.30778 2.6089C2.67255 3.13346 2.33143 3.81114 2.29353 4.6374C2.29353 4.66924 2.29353 4.70259 2.2905 4.73443C2.26928 4.95274 2.1207 5.09829 1.92664 5.08767C1.73107 5.07706 1.59917 4.92242 1.59766 4.70108C1.59766 4.64195 1.6022 4.58282 1.60372 4.56918Z" fill="currentColor"/>
</svg>
