<svg viewBox="0 0 19 19" fill="none" xmlns="http://www.w3.org/2000/svg">
  <path d="M18.3025 1.48922H14.798V0.273438C14.798 0.200917 14.7692 0.131367 14.7179 0.080088C14.6666 0.0288085 14.5971 4.4698e-08 14.5245 4.4698e-08H13.3586C13.3227 -2.04953e-05 13.2871 0.00703817 13.2539 0.0207724C13.2207 0.0345067 13.1906 0.0546471 13.1652 0.0800422C13.1398 0.105437 13.1197 0.135589 13.1059 0.168773C13.0922 0.201957 13.0851 0.237523 13.0852 0.273438V1.48922H10.1444V0.273438C10.1444 0.237523 10.1373 0.201957 10.1236 0.168773C10.1099 0.135589 10.0897 0.105437 10.0643 0.0800422C10.0389 0.0546471 10.0088 0.0345067 9.9756 0.0207724C9.94242 0.00703817 9.90685 -2.04953e-05 9.87094 4.4698e-08H8.705C8.66909 -2.04953e-05 8.63352 0.00703817 8.60034 0.0207724C8.56715 0.0345067 8.537 0.0546471 8.5116 0.0800422C8.48621 0.105437 8.46607 0.135589 8.45234 0.168773C8.4386 0.201957 8.43154 0.237523 8.43156 0.273438V1.48922H5.49109V0.273438C5.49111 0.237523 5.48406 0.201957 5.47032 0.168773C5.45659 0.135589 5.43645 0.105437 5.41105 0.0800422C5.38566 0.0546471 5.3555 0.0345067 5.32232 0.0207724C5.28914 0.00703817 5.25357 -2.04953e-05 5.21766 4.4698e-08H4.05141C3.97889 4.4698e-08 3.90934 0.0288085 3.85806 0.080088C3.80678 0.131367 3.77797 0.200917 3.77797 0.273438V1.48922H0.273438C0.237523 1.4892 0.201957 1.49626 0.168773 1.50999C0.135589 1.52373 0.105437 1.54387 0.0800422 1.56926C0.0546471 1.59466 0.0345067 1.62481 0.0207724 1.65799C0.00703817 1.69118 -2.04953e-05 1.72674 4.4698e-08 1.76266V18.3025C-2.04953e-05 18.3384 0.00703817 18.374 0.0207724 18.4072C0.0345067 18.4403 0.0546471 18.4705 0.0800422 18.4959C0.105437 18.5213 0.135589 18.5414 0.168773 18.5552C0.201957 18.5689 0.237523 18.576 0.273438 18.5759H18.3025C18.3384 18.576 18.374 18.5689 18.4072 18.5552C18.4403 18.5414 18.4705 18.5213 18.4959 18.4959C18.5213 18.4705 18.5414 18.4403 18.5552 18.4072C18.5689 18.374 18.576 18.3384 18.5759 18.3025V1.76266C18.576 1.72674 18.5689 1.69118 18.5552 1.65799C18.5414 1.62481 18.5213 1.59466 18.4959 1.56926C18.4705 1.54387 18.4403 1.52373 18.4072 1.50999C18.374 1.49626 18.3384 1.4892 18.3025 1.48922V1.48922ZM13.6317 0.546875H14.2508V2.97844H13.6317V0.546875ZM8.97812 0.546875H9.59719V2.97844H8.97844L8.97812 0.546875ZM4.32453 0.546875H4.94422V2.97844H4.32484L4.32453 0.546875ZM0.546875 2.03609H3.77797V3.25188C3.77797 3.3244 3.80678 3.39395 3.85806 3.44522C3.90934 3.4965 3.97889 3.52531 4.05141 3.52531H5.21734C5.25326 3.52533 5.28882 3.51827 5.32201 3.50454C5.35519 3.49081 5.38534 3.47067 5.41074 3.44527C5.43613 3.41988 5.45627 3.38972 5.47001 3.35654C5.48374 3.32336 5.4908 3.28779 5.49078 3.25188V2.03609H8.43156V3.25188C8.43154 3.28779 8.4386 3.32336 8.45234 3.35654C8.46607 3.38972 8.48621 3.41988 8.5116 3.44527C8.537 3.47067 8.56715 3.49081 8.60034 3.50454C8.63352 3.51827 8.66909 3.52533 8.705 3.52531H9.87094C9.90685 3.52533 9.94242 3.51827 9.9756 3.50454C10.0088 3.49081 10.0389 3.47067 10.0643 3.44527C10.0897 3.41988 10.1099 3.38972 10.1236 3.35654C10.1373 3.32336 10.1444 3.28779 10.1444 3.25188V2.03609H13.0848V3.25188C13.0848 3.28779 13.0919 3.32336 13.1056 3.35654C13.1194 3.38972 13.1395 3.41988 13.1649 3.44527C13.1903 3.47067 13.2204 3.49081 13.2536 3.50454C13.2868 3.51827 13.3224 3.52533 13.3583 3.52531H14.5242C14.5967 3.52531 14.6663 3.4965 14.7176 3.44522C14.7688 3.39395 14.7977 3.3244 14.7977 3.25188V2.03609H18.0288V5.165H0.546875V2.03609ZM0.546875 18.0291V5.71187H18.0291V18.0291H0.546875Z" fill="currentColor"/>
  <path d="M3.60989 6.94653C3.36165 6.94653 3.11898 7.02015 2.91257 7.15806C2.70616 7.29598 2.54528 7.49201 2.45028 7.72136C2.35528 7.95071 2.33042 8.20307 2.37885 8.44655C2.42728 8.69002 2.54683 8.91367 2.72236 9.08921C2.8979 9.26474 3.12155 9.38428 3.36502 9.43271C3.6085 9.48114 3.86087 9.45629 4.09022 9.36129C4.31957 9.26629 4.5156 9.10541 4.65352 8.89901C4.79144 8.6926 4.86505 8.44993 4.86505 8.20168C4.86472 7.8689 4.73237 7.54984 4.49706 7.31452C4.26174 7.07921 3.94268 6.94686 3.60989 6.94653V6.94653ZM3.60989 8.90996C3.46981 8.90996 3.33287 8.86842 3.21639 8.79059C3.09992 8.71277 3.00913 8.60215 2.95553 8.47273C2.90192 8.34331 2.88789 8.2009 2.91522 8.0635C2.94255 7.92611 3.01001 7.79991 3.10906 7.70085C3.20812 7.6018 3.33432 7.53434 3.47171 7.50701C3.60911 7.47969 3.75152 7.49371 3.88094 7.54732C4.01036 7.60093 4.12098 7.69171 4.19881 7.80818C4.27663 7.92466 4.31817 8.0616 4.31817 8.20168C4.31801 8.38948 4.24333 8.56953 4.11054 8.70233C3.97775 8.83512 3.79769 8.90979 3.60989 8.90996V8.90996Z" fill="currentColor"/>
  <path d="M7.39529 6.94653C7.14705 6.94653 6.90438 7.02015 6.69797 7.15806C6.49156 7.29598 6.33068 7.49201 6.23568 7.72136C6.14068 7.95071 6.11582 8.20307 6.16425 8.44655C6.21269 8.69002 6.33223 8.91367 6.50776 9.08921C6.6833 9.26474 6.90695 9.38428 7.15042 9.43271C7.3939 9.48114 7.64627 9.45629 7.87562 9.36129C8.10497 9.26629 8.301 9.10541 8.43892 8.89901C8.57684 8.6926 8.65045 8.44993 8.65045 8.20168C8.65008 7.86891 8.51772 7.54987 8.28241 7.31457C8.04711 7.07926 7.72807 6.94691 7.39529 6.94653V6.94653ZM7.39529 8.90996C7.25521 8.90996 7.11827 8.86842 7.00179 8.79059C6.88532 8.71277 6.79454 8.60215 6.74093 8.47273C6.68732 8.34331 6.67329 8.2009 6.70062 8.0635C6.72795 7.92611 6.79541 7.79991 6.89446 7.70085C6.99352 7.6018 7.11972 7.53434 7.25711 7.50701C7.39451 7.47969 7.53692 7.49371 7.66634 7.54732C7.79576 7.60093 7.90638 7.69171 7.98421 7.80818C8.06204 7.92466 8.10357 8.0616 8.10357 8.20168C8.10337 8.38947 8.02868 8.5695 7.8959 8.70228C7.76311 8.83506 7.58308 8.90975 7.39529 8.90996V8.90996Z" fill="currentColor"/>
  <path d="M11.1807 6.94653C10.9324 6.94653 10.6898 7.02015 10.4834 7.15806C10.277 7.29598 10.1161 7.49201 10.0211 7.72136C9.92608 7.95071 9.90122 8.20307 9.94966 8.44655C9.99809 8.69002 10.1176 8.91367 10.2932 9.08921C10.4687 9.26474 10.6923 9.38428 10.9358 9.43271C11.1793 9.48114 11.4317 9.45629 11.661 9.36129C11.8904 9.26629 12.0864 9.10541 12.2243 8.89901C12.3622 8.6926 12.4358 8.44993 12.4358 8.20168C12.4355 7.86891 12.3031 7.54987 12.0678 7.31457C11.8325 7.07926 11.5135 6.94691 11.1807 6.94653V6.94653ZM11.1807 8.90996C11.0406 8.90996 10.9037 8.86842 10.7872 8.79059C10.6707 8.71277 10.5799 8.60215 10.5263 8.47273C10.4727 8.34331 10.4587 8.2009 10.486 8.0635C10.5133 7.92611 10.5808 7.79991 10.6799 7.70085C10.7789 7.6018 10.9051 7.53434 11.0425 7.50701C11.1799 7.47969 11.3223 7.49371 11.4517 7.54732C11.5812 7.60093 11.6918 7.69171 11.7696 7.80818C11.8474 7.92466 11.889 8.0616 11.889 8.20168C11.8888 8.38948 11.8141 8.56953 11.6813 8.70233C11.5485 8.83512 11.3685 8.90979 11.1807 8.90996V8.90996Z" fill="currentColor"/>
  <path d="M14.966 6.94653C14.7177 6.9465 14.4751 7.02009 14.2686 7.15799C14.0622 7.29589 13.9013 7.49191 13.8063 7.72126C13.7113 7.9506 13.6864 8.20298 13.7348 8.44647C13.7832 8.68995 13.9027 8.91362 14.0783 9.08917C14.2538 9.26472 14.4774 9.38428 14.7209 9.43272C14.9644 9.48117 15.2168 9.45632 15.4461 9.36133C15.6755 9.26633 15.8715 9.10545 16.0095 8.89904C16.1474 8.69263 16.221 8.44995 16.221 8.20169C16.2207 7.86893 16.0883 7.54989 15.8531 7.31458C15.6178 7.07927 15.2988 6.94691 14.966 6.94653V6.94653ZM14.966 8.90998C14.8259 8.91001 14.689 8.86849 14.5725 8.79069C14.456 8.71288 14.3652 8.60227 14.3115 8.47285C14.2579 8.34343 14.2438 8.20101 14.2712 8.06361C14.2985 7.92621 14.3659 7.79999 14.465 7.70092C14.564 7.60185 14.6902 7.53437 14.8276 7.50703C14.965 7.47969 15.1074 7.49371 15.2369 7.54731C15.3663 7.60091 15.4769 7.6917 15.5547 7.80818C15.6326 7.92466 15.6741 8.0616 15.6741 8.20169C15.674 8.38946 15.5993 8.5695 15.4665 8.70229C15.3338 8.83508 15.1538 8.90977 14.966 8.90998V8.90998Z" fill="currentColor"/>
  <path d="M3.60996 10.6162C3.36167 10.6162 3.11895 10.6898 2.91249 10.8277C2.70603 10.9656 2.54511 11.1617 2.45008 11.3911C2.35505 11.6204 2.33017 11.8729 2.37861 12.1164C2.42704 12.3599 2.5466 12.5836 2.72217 12.7592C2.89773 12.9347 3.12142 13.0543 3.36494 13.1027C3.60847 13.1511 3.86088 13.1263 4.09026 13.0312C4.31965 12.9362 4.5157 12.7753 4.65362 12.5688C4.79155 12.3624 4.86515 12.1196 4.86512 11.8714C4.86475 11.5386 4.73239 11.2196 4.49708 10.9842C4.26177 10.7489 3.94274 10.6166 3.60996 10.6162V10.6162ZM3.60996 12.5798C3.46984 12.5798 3.33285 12.5383 3.21633 12.4605C3.09981 12.3827 3.00898 12.272 2.95534 12.1426C2.9017 12.0131 2.88764 11.8707 2.91496 11.7332C2.94228 11.5958 3.00974 11.4696 3.10881 11.3705C3.20788 11.2714 3.33411 11.2039 3.47154 11.1765C3.60897 11.1492 3.75142 11.1632 3.88088 11.2168C4.01034 11.2705 4.12099 11.3613 4.19884 11.4778C4.27669 11.5943 4.31824 11.7312 4.31824 11.8714C4.31787 12.059 4.24311 12.2389 4.11034 12.3716C3.97758 12.5042 3.79764 12.5788 3.60996 12.579V12.5798Z" fill="currentColor"/>
  <path d="M7.39537 10.6162C7.14707 10.6162 6.90435 10.6898 6.69789 10.8277C6.49143 10.9656 6.33051 11.1617 6.23548 11.3911C6.14045 11.6204 6.11557 11.8729 6.16401 12.1164C6.21244 12.3599 6.332 12.5836 6.50757 12.7592C6.68314 12.9347 6.90683 13.0543 7.15035 13.1027C7.39387 13.1511 7.64629 13.1263 7.87567 13.0312C8.10506 12.9362 8.30111 12.7753 8.43903 12.5688C8.57696 12.3624 8.65056 12.1196 8.65053 11.8714C8.65011 11.5386 8.51774 11.2196 8.28244 10.9843C8.04714 10.749 7.72813 10.6166 7.39537 10.6162V10.6162ZM7.39537 12.5798C7.25524 12.5798 7.11826 12.5383 7.00174 12.4605C6.88521 12.3827 6.79439 12.272 6.74074 12.1426C6.6871 12.0131 6.67305 11.8707 6.70036 11.7332C6.72768 11.5958 6.79514 11.4696 6.89421 11.3705C6.99328 11.2714 7.11951 11.2039 7.25694 11.1765C7.39437 11.1492 7.53682 11.1632 7.66628 11.2168C7.79574 11.2705 7.90639 11.3613 7.98425 11.4778C8.0621 11.5943 8.10365 11.7312 8.10365 11.8714C8.10324 12.059 8.02846 12.2389 7.8957 12.3715C7.76295 12.5041 7.58303 12.5788 7.39537 12.579V12.5798Z" fill="currentColor"/>
  <path d="M11.1805 10.6162C10.9322 10.6162 10.6895 10.6898 10.483 10.8277C10.2766 10.9656 10.1157 11.1617 10.0206 11.3911C9.9256 11.6204 9.90073 11.8729 9.94916 12.1164C9.99759 12.3599 10.1172 12.5836 10.2927 12.7592C10.4683 12.9347 10.692 13.0543 10.9355 13.1027C11.179 13.1511 11.4314 13.1263 11.6608 13.0312C11.8902 12.9362 12.0863 12.7753 12.2242 12.5688C12.3621 12.3624 12.4357 12.1196 12.4357 11.8714C12.4353 11.5386 12.3029 11.2196 12.0676 10.9843C11.8323 10.749 11.5133 10.6166 11.1805 10.6162V10.6162ZM11.1805 12.5798C11.0404 12.5798 10.9034 12.5383 10.7869 12.4605C10.6704 12.3827 10.5795 12.272 10.5259 12.1426C10.4722 12.0131 10.4582 11.8707 10.4855 11.7332C10.5128 11.5958 10.5803 11.4696 10.6794 11.3705C10.7784 11.2714 10.9047 11.2039 11.0421 11.1765C11.1795 11.1492 11.322 11.1632 11.4514 11.2168C11.5809 11.2705 11.6915 11.3613 11.7694 11.4778C11.8472 11.5943 11.8888 11.7312 11.8888 11.8714C11.8884 12.059 11.8137 12.2389 11.6809 12.3716C11.5481 12.5042 11.3682 12.5788 11.1805 12.579V12.5798Z" fill="currentColor"/>
  <path d="M14.9661 10.6162C14.7178 10.6161 14.475 10.6897 14.2686 10.8276C14.0621 10.9655 13.9011 11.1616 13.8061 11.391C13.711 11.6203 13.6861 11.8727 13.7345 12.1163C13.783 12.3598 13.9025 12.5835 14.0781 12.7591C14.2536 12.9347 14.4773 13.0543 14.7208 13.1027C14.9644 13.1511 15.2168 13.1263 15.4462 13.0313C15.6756 12.9362 15.8716 12.7753 16.0096 12.5688C16.1475 12.3624 16.2211 12.1197 16.2211 11.8714C16.2207 11.5386 16.0884 11.2196 15.8531 10.9843C15.6178 10.749 15.2988 10.6166 14.9661 10.6162V10.6162ZM14.9661 12.5798C14.8259 12.5799 14.6889 12.5384 14.5724 12.4606C14.4559 12.3827 14.365 12.2721 14.3113 12.1427C14.2577 12.0132 14.2436 11.8708 14.2709 11.7333C14.2982 11.5959 14.3656 11.4696 14.4647 11.3705C14.5638 11.2714 14.69 11.2039 14.8274 11.1766C14.9649 11.1492 15.1073 11.1632 15.2368 11.2168C15.3663 11.2704 15.4769 11.3612 15.5548 11.4777C15.6326 11.5943 15.6742 11.7312 15.6742 11.8714C15.6738 12.059 15.5991 12.2389 15.4663 12.3715C15.3336 12.5041 15.1537 12.5788 14.9661 12.579V12.5798Z" fill="currentColor"/>
  <path d="M3.60989 14.2842C3.36165 14.2842 3.11898 14.3578 2.91257 14.4957C2.70616 14.6336 2.54528 14.8297 2.45028 15.059C2.35528 15.2884 2.33042 15.5407 2.37885 15.7842C2.42728 16.0277 2.54683 16.2513 2.72236 16.4269C2.8979 16.6024 3.12155 16.7219 3.36502 16.7704C3.6085 16.8188 3.86087 16.7939 4.09022 16.6989C4.31957 16.6039 4.5156 16.4431 4.65352 16.2367C4.79144 16.0302 4.86505 15.7876 4.86505 15.5393C4.86472 15.2065 4.73237 14.8875 4.49706 14.6522C4.26174 14.4169 3.94268 14.2845 3.60989 14.2842V14.2842ZM3.60989 16.2476C3.46981 16.2476 3.33287 16.2061 3.21639 16.1282C3.09992 16.0504 3.00913 15.9398 2.95553 15.8104C2.90192 15.681 2.88789 15.5385 2.91522 15.4012C2.94255 15.2638 3.01001 15.1376 3.10906 15.0385C3.20812 14.9394 3.33432 14.872 3.47171 14.8447C3.60911 14.8173 3.75152 14.8314 3.88094 14.885C4.01036 14.9386 4.12098 15.0294 4.19881 15.1458C4.27663 15.2623 4.31817 15.3992 4.31817 15.5393C4.31801 15.7271 4.24333 15.9072 4.11054 16.04C3.97775 16.1728 3.79769 16.2474 3.60989 16.2476V16.2476Z" fill="currentColor"/>
  <path d="M7.39529 14.2842C7.14705 14.2842 6.90438 14.3578 6.69797 14.4957C6.49156 14.6336 6.33068 14.8297 6.23568 15.059C6.14068 15.2884 6.11582 15.5407 6.16425 15.7842C6.21269 16.0277 6.33223 16.2513 6.50776 16.4269C6.6833 16.6024 6.90695 16.7219 7.15042 16.7704C7.3939 16.8188 7.64627 16.7939 7.87562 16.6989C8.10497 16.6039 8.301 16.4431 8.43892 16.2367C8.57684 16.0302 8.65045 15.7876 8.65045 15.5393C8.65008 15.2066 8.51772 14.8875 8.28241 14.6522C8.04711 14.4169 7.72807 14.2846 7.39529 14.2842ZM7.39529 16.2476C7.25521 16.2476 7.11827 16.2061 7.00179 16.1282C6.88532 16.0504 6.79454 15.9398 6.74093 15.8104C6.68732 15.681 6.67329 15.5385 6.70062 15.4012C6.72795 15.2638 6.79541 15.1376 6.89446 15.0385C6.99352 14.9394 7.11972 14.872 7.25711 14.8447C7.39451 14.8173 7.53692 14.8314 7.66634 14.885C7.79576 14.9386 7.90638 15.0294 7.98421 15.1458C8.06204 15.2623 8.10357 15.3992 8.10357 15.5393C8.10337 15.7271 8.02868 15.9071 7.8959 16.0399C7.76311 16.1727 7.58308 16.2474 7.39529 16.2476V16.2476Z" fill="currentColor"/>
  <path d="M11.1807 14.2842C10.9324 14.2842 10.6898 14.3578 10.4834 14.4957C10.277 14.6336 10.1161 14.8297 10.0211 15.059C9.92608 15.2884 9.90122 15.5407 9.94966 15.7842C9.99809 16.0277 10.1176 16.2513 10.2932 16.4269C10.4687 16.6024 10.6923 16.7219 10.9358 16.7704C11.1793 16.8188 11.4317 16.7939 11.661 16.6989C11.8904 16.6039 12.0864 16.4431 12.2243 16.2367C12.3622 16.0302 12.4358 15.7876 12.4358 15.5393C12.4355 15.2066 12.3031 14.8875 12.0678 14.6522C11.8325 14.4169 11.5135 14.2846 11.1807 14.2842V14.2842ZM11.1807 16.2476C11.0406 16.2476 10.9037 16.2061 10.7872 16.1282C10.6707 16.0504 10.5799 15.9398 10.5263 15.8104C10.4727 15.681 10.4587 15.5385 10.486 15.4012C10.5133 15.2638 10.5808 15.1376 10.6799 15.0385C10.7789 14.9394 10.9051 14.872 11.0425 14.8447C11.1799 14.8173 11.3223 14.8314 11.4517 14.885C11.5812 14.9386 11.6918 15.0294 11.7696 15.1458C11.8474 15.2623 11.889 15.3992 11.889 15.5393C11.8888 15.7271 11.8141 15.9072 11.6813 16.04C11.5485 16.1728 11.3685 16.2474 11.1807 16.2476V16.2476Z" fill="currentColor"/>
  <path d="M14.966 14.2842C14.7177 14.2841 14.4751 14.3577 14.2686 14.4956C14.0622 14.6335 13.9013 14.8296 13.8063 15.0589C13.7113 15.2883 13.6864 15.5406 13.7348 15.7841C13.7832 16.0276 13.9027 16.2513 14.0783 16.4268C14.2538 16.6024 14.4774 16.7219 14.7209 16.7704C14.9644 16.8188 15.2168 16.794 15.4461 16.699C15.6755 16.604 15.8715 16.4431 16.0095 16.2367C16.1474 16.0303 16.221 15.7876 16.221 15.5393C16.2207 15.2066 16.0883 14.8875 15.8531 14.6522C15.6178 14.4169 15.2988 14.2846 14.966 14.2842V14.2842ZM14.966 16.2476C14.8259 16.2477 14.689 16.2061 14.5725 16.1283C14.456 16.0505 14.3652 15.9399 14.3115 15.8105C14.2579 15.6811 14.2438 15.5387 14.2712 15.4013C14.2985 15.2639 14.3659 15.1376 14.465 15.0386C14.564 14.9395 14.6902 14.872 14.8276 14.8447C14.965 14.8173 15.1074 14.8314 15.2369 14.885C15.3663 14.9386 15.4769 15.0293 15.5547 15.1458C15.6326 15.2623 15.6741 15.3992 15.6741 15.5393C15.674 15.7271 15.5993 15.9071 15.4665 16.0399C15.3338 16.1727 15.1538 16.2474 14.966 16.2476V16.2476Z" fill="currentColor"/>
</svg>
