<svg viewBox="0 0 25 25" fill="currentColor" xmlns="http://www.w3.org/2000/svg">
  <path d="M12.4994 18.7502C15.3759 18.7502 17.7077 16.4183 17.7077 13.5418C17.7077 10.6654 15.3759 8.3335 12.4994 8.3335C9.62287 8.3335 7.29102 10.6654 7.29102 13.5418C7.29102 16.4183 9.62287 18.7502 12.4994 18.7502Z" fill="currentColor"/>
  <path d="M22.9167 5.2085H19.6131C19.1956 5.2085 18.8034 5.04575 18.5079 4.75073L16.6036 2.84644C16.1118 2.35459 15.4577 2.0835 14.7619 2.0835H10.2381C9.54233 2.0835 8.88823 2.35459 8.39639 2.84644L6.49209 4.75073C6.19658 5.04575 5.80444 5.2085 5.38687 5.2085H2.08335C0.934326 5.2085 0 6.14282 0 7.2918V20.8334C0 21.9824 0.934326 22.9168 2.08335 22.9168H22.9167C24.0657 22.9168 25 21.9825 25 20.8334V7.2918C25 6.14282 24.0657 5.2085 22.9167 5.2085ZM12.5 19.7918C9.05356 19.7918 6.25 16.9882 6.25 13.5418C6.25 10.0954 9.05356 7.2918 12.5 7.2918C15.9464 7.2918 18.75 10.0954 18.75 13.5418C18.75 16.9882 15.9464 19.7918 12.5 19.7918ZM20.8333 10.4168C20.2591 10.4168 19.7917 9.94937 19.7917 9.37515C19.7917 8.80093 20.2591 8.3335 20.8333 8.3335C21.4076 8.3335 21.875 8.80093 21.875 9.37515C21.875 9.94937 21.4076 10.4168 20.8333 10.4168Z" fill="currentColor"/>
</svg>
