<svg viewBox="0 0 15 15" fill="none" xmlns="http://www.w3.org/2000/svg">
  <path d="M10.1723 8.8232L8.08086 7.25465V4.05947C8.08086 3.7382 7.82117 3.47852 7.4999 3.47852C7.17863 3.47852 6.91895 3.7382 6.91895 4.05947V7.54516C6.91895 7.72815 7.00493 7.9007 7.15133 8.00992L9.4751 9.75276C9.57966 9.83119 9.70168 9.86896 9.82309 9.86896C10.0003 9.86896 10.1746 9.78936 10.2884 9.63599C10.4814 9.37976 10.4291 9.01551 10.1723 8.8232Z" fill="currentColor"/>
  <path d="M7.5 0C3.36425 0 0 3.36425 0 7.5C0 11.6358 3.36425 15 7.5 15C11.6358 15 15 11.6358 15 7.5C15 3.36425 11.6358 0 7.5 0ZM7.5 13.8381C4.00562 13.8381 1.16188 10.9944 1.16188 7.5C1.16188 4.00562 4.00562 1.16188 7.5 1.16188C10.995 1.16188 13.8381 4.00562 13.8381 7.5C13.8381 10.9944 10.9944 13.8381 7.5 13.8381Z" fill="currentColor"/>
</svg>
