<svg viewBox="0 0 20 20" fill="none" xmlns="http://www.w3.org/2000/svg">
  <path d="M10 1.66667C11.6482 1.66667 13.2593 2.15541 14.6298 3.07109C16.0002 3.98676 17.0683 5.28825 17.699 6.81097C18.3297 8.33369 18.4948 10.0092 18.1732 11.6258C17.8517 13.2423 17.058 14.7271 15.8926 15.8926C14.7271 17.058 13.2423 17.8517 11.6258 18.1732C10.0092 18.4948 8.33369 18.3297 6.81098 17.699C5.28826 17.0683 3.98677 16.0002 3.07109 14.6298C2.15541 13.2593 1.66667 11.6482 1.66667 10C1.66667 7.78986 2.54464 5.67025 4.10745 4.10744C5.67025 2.54464 7.78987 1.66667 10 1.66667V1.66667ZM10 0C8.02219 0 6.08879 0.58649 4.4443 1.6853C2.79981 2.78412 1.51809 4.3459 0.761209 6.17317C0.00433286 8.00043 -0.193701 10.0111 0.192152 11.9509C0.578004 13.8907 1.53041 15.6725 2.92894 17.0711C4.32746 18.4696 6.10929 19.422 8.0491 19.8079C9.98891 20.1937 11.9996 19.9957 13.8268 19.2388C15.6541 18.4819 17.2159 17.2002 18.3147 15.5557C19.4135 13.9112 20 11.9778 20 10C20 7.34783 18.9464 4.8043 17.0711 2.92893C15.1957 1.05357 12.6522 0 10 0V0ZM13.3333 11.7333C13.3333 9.95 11.475 9.45 10.05 8.78333C9.21667 8.33333 9.29167 7.25833 10.5333 7.18333C11.2302 7.18022 11.9209 7.31327 12.5667 7.575L12.8667 6.2C12.2089 5.98518 11.5247 5.8618 10.8333 5.83333V5H10V5.89167C8.38334 6.10833 7.5 7.125 7.5 8.26667C7.5 10.2917 9.86667 10.6083 10.6417 10.9667C11.7 11.4417 11.475 12.425 10.55 12.6333C9.62852 12.7319 8.69764 12.5763 7.85834 12.1833L7.5 13.5583C8.27608 13.949 9.1312 14.1571 10 14.1667V15H10.8333V14.1667C12.2167 13.925 13.3333 13.1667 13.3333 11.7333Z" fill="currentColor"/>
</svg>
