<svg viewBox="0 0 13 12" fill="none" xmlns="http://www.w3.org/2000/svg">
  <path d="M6.01546 1.99219C6.19871 2.00165 6.33231 2.08559 6.4127 2.2511C6.59714 2.6247 6.78157 2.9983 6.96482 3.37307C6.98965 3.42391 7.02039 3.44756 7.07832 3.45583C7.49448 3.51376 7.91063 3.57524 8.32679 3.6379C8.50177 3.66391 8.62354 3.76204 8.68029 3.92874C8.73822 4.0978 8.70157 4.25386 8.57507 4.37918C8.27832 4.67238 7.97921 4.9644 7.67773 5.25288C7.62453 5.30371 7.6127 5.35219 7.62453 5.42194C7.69664 5.82628 7.76522 6.23179 7.83379 6.63731C7.86453 6.81701 7.80778 6.96598 7.66236 7.07238C7.51694 7.17879 7.35733 7.18706 7.19655 7.10194C6.88088 6.93642 6.56522 6.77091 6.24955 6.60421C6.19162 6.57347 6.13132 6.54509 6.07458 6.51199C6.0332 6.48835 5.99773 6.48953 5.95517 6.51199C5.58157 6.70943 5.20797 6.90687 4.8332 7.10194C4.55655 7.245 4.2397 7.09248 4.19477 6.78864C4.18177 6.70352 4.20068 6.6113 4.21487 6.52381C4.27635 6.1514 4.34137 5.77899 4.40758 5.40657C4.41822 5.34746 4.40522 5.30608 4.36029 5.26233C4.05881 4.9715 3.75852 4.6783 3.4594 4.38509C3.30926 4.23731 3.28206 4.01977 3.38847 3.84598C3.46059 3.72775 3.56699 3.65918 3.70295 3.63908C4.12265 3.57761 4.54236 3.51613 4.96325 3.45583C5.01172 3.44874 5.03891 3.42746 5.05901 3.3849C5.24462 3.00539 5.43142 2.62588 5.6194 2.24756C5.6998 2.0844 5.83339 2.00401 6.01428 1.99455L6.01546 1.99219ZM4.56128 6.70706C4.56128 6.76381 4.60147 6.79337 4.64995 6.77445C4.6665 6.76854 4.68068 6.75908 4.69724 6.75081C5.05901 6.56046 5.42196 6.37248 5.78256 6.17977C5.94098 6.09465 6.09467 6.09583 6.2531 6.17977C6.62078 6.37603 6.98965 6.56874 7.3597 6.76027C7.38334 6.77209 7.42472 6.77682 7.44246 6.76381C7.46019 6.75081 7.47083 6.70943 7.4661 6.68342C7.3999 6.28972 7.33724 5.89485 7.26157 5.50352C7.22019 5.28598 7.27221 5.11692 7.43536 4.96559C7.72502 4.69603 8.00403 4.41583 8.28659 4.138C8.30906 4.11672 8.3327 4.07534 8.32561 4.05169C8.31852 4.02805 8.27595 4.00559 8.24522 4.00086C7.86216 3.94293 7.47911 3.88027 7.09369 3.83534C6.85842 3.80815 6.70354 3.70411 6.60423 3.48539C6.44226 3.13189 6.26256 2.78549 6.08758 2.4379C6.07339 2.40953 6.03793 2.37169 6.01428 2.37169C5.98945 2.37169 5.95753 2.41071 5.94098 2.44027C5.90315 2.50529 5.87241 2.57504 5.8393 2.64243C5.68916 2.94628 5.53783 3.25012 5.39004 3.55514C5.31674 3.70411 5.20206 3.79278 5.03773 3.81761C4.86748 3.84362 4.69605 3.86726 4.52581 3.89209C4.27635 3.92874 4.02689 3.96302 3.77743 4.00204C3.75024 4.00677 3.71123 4.02805 3.7065 4.04815C3.70059 4.07298 3.7195 4.10963 3.73842 4.13091C3.7798 4.17938 3.82945 4.22076 3.87438 4.26569C4.12857 4.51396 4.38157 4.76224 4.63694 5.00933C4.75871 5.12637 4.806 5.26588 4.77763 5.4314C4.73034 5.71041 4.68187 5.98943 4.63339 6.26844C4.60857 6.41504 4.58256 6.56283 4.55891 6.70588L4.56128 6.70706Z" fill="currentColor"/>
  <path d="M7.41285 7.21596C7.33364 7.21596 7.25207 7.19468 7.17049 7.15212C6.94586 7.03389 6.72123 6.91684 6.4966 6.79862L6.17029 6.62719C6.12891 6.60591 6.08753 6.58463 6.04734 6.56098C6.02724 6.54916 6.01423 6.5468 5.98468 6.56217C5.61108 6.7596 5.23749 6.95704 4.86271 7.15212C4.71138 7.23133 4.54113 7.23369 4.39689 7.16039C4.25739 7.08946 4.16281 6.95586 4.13798 6.79507C4.12497 6.70877 4.13916 6.62128 4.15335 6.53616L4.15808 6.51133C4.21955 6.13773 4.28458 5.76532 4.35079 5.3929C4.35788 5.35271 4.35079 5.33143 4.32123 5.30187C4.01975 5.01103 3.71946 4.71783 3.42034 4.42345C3.2501 4.25675 3.21817 4.01084 3.33995 3.81221C3.42152 3.6798 3.54093 3.60059 3.69699 3.57813L3.85542 3.55448C4.2231 3.5001 4.59079 3.44689 4.95847 3.39487C4.98566 3.39133 4.99748 3.38305 5.00931 3.35704C5.19492 2.97753 5.38172 2.59803 5.5697 2.2197C5.65837 2.04 5.80852 1.94423 6.01423 1.93359H6.02014C6.22704 1.94423 6.37719 2.04236 6.46822 2.22443L6.6231 2.53655C6.7567 2.80611 6.88911 3.07566 7.02152 3.34522C7.03808 3.37951 7.05226 3.39015 7.0901 3.39487C7.50744 3.45281 7.92359 3.51428 8.33975 3.57694C8.53837 3.6065 8.6767 3.72 8.74054 3.9068C8.80556 4.09596 8.763 4.27684 8.62113 4.41753C8.32675 4.70955 8.02409 5.00394 7.72379 5.29123C7.68714 5.3267 7.67886 5.35389 7.68832 5.40709C7.7498 5.74877 7.80773 6.09162 7.86566 6.43448L7.89758 6.62246C7.93187 6.82581 7.86448 6.99606 7.70251 7.11547C7.61266 7.18167 7.51571 7.21359 7.41758 7.21359L7.41285 7.21596ZM6.01896 6.4333C6.04852 6.4333 6.07689 6.44157 6.10645 6.45813C6.14547 6.48059 6.18448 6.50069 6.22468 6.52079L6.55216 6.69221C6.7768 6.81044 7.00143 6.92867 7.22606 7.04571C7.36911 7.12019 7.50507 7.11192 7.63039 7.0197C7.75571 6.92867 7.80537 6.80098 7.77817 6.64256L7.74625 6.45458C7.68832 6.11172 7.63039 5.77005 7.56891 5.42837C7.55236 5.33616 7.57364 5.26877 7.63867 5.20611C7.93896 4.91882 8.24044 4.62561 8.53483 4.33359C8.64596 4.22364 8.6767 4.09241 8.62586 3.94463C8.5762 3.80039 8.47335 3.71645 8.31965 3.69399C7.9035 3.63133 7.48734 3.56985 7.07118 3.51192C6.99551 3.50128 6.94704 3.46581 6.91276 3.39724C6.78152 3.12768 6.64793 2.85813 6.51551 2.58857L6.36064 2.27645C6.29088 2.1334 6.17739 2.0601 6.01542 2.05064C5.85463 2.0601 5.74231 2.13221 5.67374 2.27054C5.48576 2.64886 5.30014 3.02837 5.11453 3.40788C5.08497 3.46936 5.04005 3.50128 4.97384 3.51074C4.60615 3.56276 4.23847 3.61714 3.87197 3.67034L3.71354 3.69399C3.59295 3.71172 3.5031 3.77083 3.44044 3.87251C3.34822 4.02384 3.37305 4.21064 3.5031 4.33832C3.80221 4.63152 4.10133 4.92473 4.40281 5.21556C4.46074 5.27231 4.48083 5.33261 4.46665 5.41182C4.40044 5.78423 4.33542 6.15547 4.27394 6.52906L4.26921 6.55389C4.2562 6.62955 4.2432 6.70758 4.25384 6.77497C4.27276 6.89793 4.34369 6.99842 4.44891 7.05281C4.55886 7.10955 4.6901 7.10601 4.80714 7.04571C5.18192 6.85064 5.55551 6.65438 5.92911 6.45694C5.95985 6.44039 5.98941 6.43212 6.01896 6.43212V6.4333ZM4.62152 6.84C4.5967 6.84 4.57423 6.8329 4.55414 6.8199C4.51985 6.79625 4.50093 6.75487 4.50212 6.70758V6.69813L4.62389 5.99113C4.65699 5.80197 4.68891 5.61281 4.72083 5.42364C4.74566 5.27941 4.70547 5.15763 4.5967 5.05359C4.42054 4.88335 4.24556 4.71192 4.07059 4.54167L3.79276 4.27093C3.75847 4.23901 3.72418 4.20709 3.69463 4.17162C3.66625 4.1397 3.63788 4.08532 3.6497 4.03684C3.66271 3.9801 3.73601 3.95172 3.76911 3.94581C3.96773 3.91507 4.16753 3.8867 4.36734 3.85714L4.68182 3.81221C4.79768 3.79566 4.91354 3.77911 5.02941 3.76138C5.17128 3.7401 5.27177 3.66443 5.33798 3.53084C5.4432 3.31566 5.54842 3.10167 5.65483 2.88768L5.8168 2.55783C5.84044 2.50817 5.86409 2.45852 5.89128 2.41123C5.90783 2.38285 5.95276 2.31547 6.01423 2.3131C6.07926 2.3131 6.12773 2.38404 6.14192 2.41123L6.25542 2.63586C6.39138 2.90423 6.53207 3.18207 6.65975 3.46108C6.74842 3.65616 6.88202 3.75074 7.1031 3.77675C7.41167 3.81221 7.72379 3.86069 8.02527 3.9068L8.25581 3.94226C8.29601 3.94817 8.36694 3.97891 8.3835 4.03448C8.40005 4.09123 8.3563 4.15389 8.32911 4.1799L8.16478 4.34305C7.94133 4.56414 7.71079 4.79231 7.47788 5.00985C7.33128 5.14581 7.28399 5.29478 7.32182 5.4934C7.38448 5.81734 7.43886 6.14719 7.49207 6.46758L7.52635 6.67566C7.53226 6.71468 7.52281 6.78207 7.47906 6.81399C7.4365 6.84473 7.36911 6.8329 7.33364 6.81399C6.96359 6.62246 6.59473 6.42857 6.22704 6.23231C6.08517 6.15665 5.95276 6.15547 5.81207 6.23231C5.55197 6.37064 5.29069 6.50778 5.02941 6.64492L4.71492 6.80926C4.70074 6.81635 4.68773 6.82345 4.67354 6.82936C4.65699 6.83527 4.64044 6.83881 4.62389 6.83881L4.62152 6.84ZM4.62152 6.71231C4.62152 6.71822 4.62389 6.72177 4.62389 6.72295C4.63926 6.71586 4.64872 6.71113 4.65699 6.7064L4.97266 6.54088C5.23394 6.40374 5.49522 6.26778 5.75532 6.12827C5.93148 6.03369 6.10409 6.03487 6.28143 6.12827C6.64911 6.32453 7.01798 6.51724 7.38684 6.70877C7.39157 6.71113 7.39985 6.7135 7.40576 6.7135C7.40694 6.70758 7.40813 6.69931 7.40813 6.69458L7.37384 6.4865C7.32064 6.16729 7.26625 5.83862 7.20478 5.51586C7.15867 5.27586 7.21896 5.08788 7.3963 4.92354C7.62921 4.70719 7.85857 4.48019 8.08083 4.26029L8.24635 4.09714C8.25345 4.09005 8.26054 4.07941 8.26409 4.07113C8.25581 4.0664 8.24517 4.06167 8.23689 4.06049L8.00635 4.02502C7.70606 3.97891 7.39512 3.93162 7.08773 3.89497C6.82763 3.86423 6.6562 3.74246 6.55098 3.51074C6.42448 3.23409 6.28497 2.95744 6.14901 2.68906L6.03551 2.46443C6.03079 2.45497 6.02251 2.44551 6.01542 2.43842C6.00832 2.44551 6.00005 2.45734 5.99295 2.47034C5.96694 2.51527 5.94566 2.56138 5.9232 2.60867L5.76005 2.9397C5.65364 3.15369 5.54842 3.36768 5.4432 3.58167C5.36044 3.75074 5.22684 3.85005 5.04596 3.87724C4.9301 3.89497 4.81305 3.91152 4.69719 3.92808L4.38271 3.973C4.18409 4.00138 3.98428 4.02975 3.78566 4.06167C3.78093 4.06167 3.77266 4.06522 3.76675 4.06877C3.77029 4.07468 3.7762 4.08532 3.7833 4.09359C3.81167 4.12551 3.84241 4.15507 3.87315 4.18463L4.15335 4.45655C4.32832 4.62798 4.5033 4.79822 4.67946 4.96847C4.81542 5.0997 4.86862 5.25931 4.83788 5.44256C4.80596 5.63172 4.77285 5.82088 4.73975 6.01005L4.61916 6.71113L4.62152 6.71231Z" fill="currentColor"/>
  <path d="M10.8272 9.14719H6.07685C5.91369 9.14719 5.78128 9.01478 5.78128 8.85163C5.78128 8.68847 5.91369 8.55606 6.07685 8.55606H10.8272C11.3167 8.55606 11.7139 8.15882 11.7139 7.66936V1.47783C11.7139 0.988374 11.3167 0.591133 10.8272 0.591133H1.47783C0.988374 0.591133 0.591133 0.988374 0.591133 1.47783V7.66936C0.591133 8.15882 0.988374 8.55606 1.47783 8.55606H2.56079C2.72394 8.55606 2.85635 8.68847 2.85635 8.85163C2.85635 9.01478 2.72394 9.14719 2.56079 9.14719H1.47783C0.663251 9.14719 0 8.48394 0 7.66936V1.47783C0 0.663251 0.663251 0 1.47783 0H10.8272C11.6418 0 12.305 0.663251 12.305 1.47783V7.66936C12.305 8.48394 11.6418 9.14719 10.8272 9.14719Z" fill="currentColor"/>
  <path d="M1.84061 11.9995C1.78031 11.9995 1.72001 11.9806 1.66799 11.944C1.5675 11.8718 1.52258 11.7453 1.55568 11.6259L2.28041 8.96701C2.32297 8.80977 2.48612 8.71637 2.64336 8.76011C2.80061 8.80268 2.894 8.96583 2.85026 9.12307L2.33361 11.0194L5.76336 8.72583C5.89933 8.63479 6.08258 8.67144 6.17361 8.8074C6.26465 8.94336 6.228 9.12662 6.09203 9.21765L2.00494 11.951C1.95529 11.9842 1.89735 12.0007 1.84061 12.0007V11.9995Z" fill="currentColor"/>
</svg>
