<svg viewBox="0 0 20 12" fill="none" xmlns="http://www.w3.org/2000/svg">
  <path d="M-0.000213279 0.299222C0.0861447 0.117745 0.212553 -0.0149205 0.430325 0.00134986C1.60179 0.0852047 2.77325 0.17782 3.90342 0.525755C4.10993 0.589585 4.30892 0.684704 4.50292 0.783578C4.74196 0.904979 4.84334 1.10398 4.78201 1.37432C4.767 1.4394 4.767 1.50823 4.75573 1.6021H4.95223C5.89591 1.6021 6.83959 1.60586 7.78327 1.59709C7.8859 1.59709 8.00354 1.55329 8.0874 1.49196C8.68064 1.06017 9.32019 0.784829 10.0736 0.861175C10.5517 0.908734 10.9935 1.0777 11.4316 1.26293C12.0974 1.54453 12.7682 1.81612 13.4378 2.09146C13.4942 2.11399 13.553 2.13026 13.6143 2.15029C13.603 1.79985 13.6744 1.69722 14.0023 1.57081C15.0774 1.15529 16.1988 0.957545 17.3415 0.863678C17.7958 0.826131 18.2514 0.813615 18.7082 0.799848C19.0386 0.789835 19.1963 0.946281 19.1975 1.27169C19.1975 3.62087 19.1975 5.97131 19.1975 8.3205C19.1975 8.64841 19.0461 8.8011 18.7157 8.80235C17.9848 8.80485 17.2539 8.80235 16.5229 8.80235C16.1863 8.80235 16.0774 8.721 15.981 8.40435C15.9572 8.32801 15.9347 8.25166 15.9034 8.14778C15.6994 8.2842 15.5129 8.40435 15.3327 8.53452C15.3027 8.55579 15.2864 8.62087 15.2914 8.66218C15.379 9.38308 14.7995 10.0552 14.0411 10.1177C13.9823 10.1228 13.9047 10.1716 13.8734 10.2229C13.5317 10.7811 13.0223 11.0089 12.3865 10.9726C12.2839 10.9663 12.2338 10.9826 12.18 11.0727C11.8258 11.6622 11.1287 11.9475 10.5805 11.7598C10.5455 11.7473 10.4917 11.751 10.4604 11.7698C9.98102 12.0727 9.47789 12.0364 8.96224 11.8875C8.47163 11.746 8.05736 11.4719 7.66187 11.1628C6.66812 10.3856 5.66437 9.62087 4.69065 8.81862C4.19128 8.40686 3.74947 7.925 3.26637 7.46067C3.24009 7.53952 3.21255 7.62338 3.18377 7.70723C3.11869 7.89246 2.99103 7.99634 2.79203 7.99634C1.99854 7.99634 1.20504 7.99509 0.411551 7.99885C0.207546 7.99885 0.0986603 7.87494 -0.00146484 7.72601V0.299222H-0.000213279ZM11.5667 10.5933C10.9472 9.95504 10.369 9.3593 9.79203 8.7623C9.74447 8.71349 9.69566 8.66218 9.66061 8.6046C9.55799 8.44065 9.58802 8.23915 9.7282 8.10898C9.87088 7.97632 10.0874 7.9638 10.2426 8.08771C10.3052 8.13777 10.3577 8.2016 10.4153 8.25917C10.9973 8.8424 11.573 9.43314 12.165 10.0076C12.4228 10.2579 12.8108 10.2254 13.0699 9.97256C13.1825 9.86243 13.1975 9.78108 13.0674 9.65216C12.3565 8.94878 11.6569 8.23539 10.9572 7.522C10.757 7.318 10.7507 7.0777 10.9272 6.90999C11.1012 6.74603 11.3277 6.7623 11.5242 6.9613C11.7182 7.15654 11.9047 7.35805 12.0987 7.55204C12.6418 8.09647 13.1838 8.6409 13.7307 9.17907C13.8972 9.34303 14.0574 9.34678 14.2526 9.22163C14.4804 9.07519 14.5605 8.83364 14.4366 8.58833C14.359 8.43439 14.2614 8.2817 14.1425 8.1578C13.8509 7.84991 13.558 7.53952 13.2351 7.26418C12.1562 6.34428 11.0649 5.4394 9.97351 4.53452C9.93471 4.50198 9.84835 4.49572 9.79578 4.51324C9.60054 4.57832 9.41531 4.67219 9.21881 4.72726C9.08114 4.76606 8.97851 4.82738 8.88339 4.93752C8.3277 5.57832 7.64059 5.8374 6.80329 5.61837C6.15623 5.44941 5.85461 4.9588 5.98352 4.29797C6.10617 3.67219 6.43784 3.15654 6.83083 2.67094C6.89841 2.58708 6.971 2.50573 7.05486 2.40686H4.62432C4.57426 2.63714 4.5342 2.86493 4.47663 3.08646C4.18252 4.19534 3.88339 5.30298 3.59053 6.41312C3.573 6.4807 3.573 6.58708 3.61305 6.62964C4.08615 7.119 4.5317 7.6434 5.05486 8.07394C6.19253 9.01011 7.36399 9.90623 8.53921 10.7948C8.77451 10.9726 9.0849 11.0577 9.369 11.1641C9.48039 11.2066 9.61556 11.1891 9.73946 11.1991L9.77576 11.1265C9.36399 10.7273 8.94973 10.3293 8.54046 9.92751C8.38527 9.77482 8.23258 9.61587 8.09366 9.44816C7.95223 9.2792 7.97601 9.05141 8.1312 8.90748C8.28264 8.76606 8.51168 8.76731 8.67438 8.91249C8.73446 8.96631 8.78702 9.02888 8.84459 9.08646C9.4466 9.6847 10.0461 10.288 10.6544 10.8799C10.8346 11.0552 11.0073 11.0677 11.2163 10.9275C11.3502 10.8374 11.4554 10.7035 11.568 10.5933H11.5667ZM14.9259 7.83865C15.1425 7.69347 15.3527 7.5608 15.553 7.41186C15.593 7.38183 15.6206 7.2817 15.603 7.23289C15.135 5.93001 14.6606 4.62964 14.1813 3.33176C14.1575 3.26668 14.0899 3.19534 14.0248 3.16906C12.9572 2.73352 11.8846 2.30923 10.8171 1.87369C10.1099 1.58583 9.42282 1.54578 8.767 2.00135C8.19879 2.39559 7.67563 2.84616 7.28014 3.41311C7.06987 3.71474 6.91593 4.06393 6.78702 4.41061C6.68189 4.69221 6.76324 4.79359 7.06237 4.85867C7.20004 4.88871 7.34772 4.90248 7.4879 4.88871C7.90091 4.84741 8.16625 4.57832 8.40655 4.27044C8.48039 4.17532 8.573 4.07019 8.68064 4.03014C9.05736 3.88621 9.44535 3.77357 9.82582 3.63965C10.0123 3.57457 10.1612 3.61462 10.3077 3.74102C10.9034 4.25542 11.4992 4.76856 12.1037 5.27294C13.0761 6.08521 14.0962 6.8449 14.9284 7.84115L14.9259 7.83865ZM14.5768 2.21161C14.6368 2.34678 14.6881 2.46067 14.7357 2.57457C15.4529 4.29171 16.0661 6.04641 16.6356 7.81612C16.6831 7.96505 16.7482 8.00511 16.8959 8.00135C17.3264 7.99134 17.7582 7.9976 18.1888 7.9976C18.2551 7.9976 18.3202 7.99134 18.3865 7.98758V1.60586C17.0874 1.6384 15.8258 1.80861 14.5743 2.21036L14.5768 2.21161ZM0.807046 7.1991C1.35273 7.1991 1.88339 7.2016 2.41406 7.19409C2.45911 7.19409 2.52419 7.12651 2.54171 7.0777C2.61055 6.88996 2.66437 6.69847 2.72069 6.50698C3.20379 4.87995 3.68815 3.25417 3.95348 1.57331C3.97851 1.41812 3.93846 1.35179 3.80079 1.32175C3.27138 1.20786 2.74322 1.0777 2.21005 0.986331C1.75073 0.907483 1.28389 0.874942 0.807046 0.819873V7.1991Z" fill="currentColor"/>
</svg>
