<svg viewBox="0 0 16.34 16" fill="none" xmlns="http://www.w3.org/2000/svg">
  <path d="M15.8404 8C15.8404 12.1323 12.4163 15.5 8.17021 15.5C3.9241 15.5 0.5 12.1323 0.5 8C0.5 3.86774 3.9241 0.5 8.17021 0.5C12.4163 0.5 15.8404 3.86774 15.8404 8Z" stroke="currentColor"/>
  <path d="M7.47939 9.75971H8.3182L8.49249 5.49304L8.53607 4.23438H7.27241L7.30509 5.49304L7.47939 9.75971ZM7.89334 12.405C8.37266 12.405 8.74305 12.053 8.74305 11.5517C8.74305 11.0504 8.37266 10.677 7.89334 10.677C7.42492 10.677 7.06543 11.0504 7.06543 11.5517C7.06543 12.053 7.42492 12.405 7.89334 12.405Z" fill="currentColor"/>
</svg>
