<svg viewBox="0 0 15 18" fill="none" xmlns="http://www.w3.org/2000/svg">
  <path d="M5.20395 0L5.38351 0.0619195C5.63611 0.134361 5.86154 0.280103 6.03128 0.480705C6.20102 0.681307 6.30744 0.927752 6.33707 1.18885C6.34533 1.26072 6.36196 1.33137 6.38661 1.39938C6.42376 1.26935 6.46091 1.13932 6.50116 1.00929C6.60793 0.6753 6.83965 0.3955 7.14789 0.228361C7.45613 0.0612216 7.81704 0.0196773 8.1552 0.11241C8.49335 0.205143 8.78258 0.424976 8.96245 0.725969C9.14231 1.02696 9.19889 1.38582 9.12036 1.72755C9.0863 1.87616 9.04605 2.03715 9.00581 2.18576C9.56618 1.46749 10.1296 1.25697 10.7736 1.52632C10.959 1.60182 11.1252 1.71769 11.2601 1.8655C11.3951 2.01331 11.4954 2.18935 11.5538 2.38081C11.6382 2.76464 11.6146 3.16436 11.4857 3.5356L11.5445 3.45201C11.7121 3.16525 11.9789 2.94978 12.2945 2.84629C12.6101 2.7428 12.9526 2.75846 13.2575 2.8903C13.5623 3.02215 13.8083 3.26106 13.9491 3.56191C14.0898 3.86276 14.1155 4.20472 14.0213 4.52322C13.755 5.56966 13.4733 6.61404 13.1761 7.65635C13.0915 7.99001 12.8823 8.2786 12.5915 8.46285C12.3007 8.6471 11.9505 8.71302 11.6126 8.64706C11.2686 8.58132 10.9627 8.38676 10.7573 8.1031C10.5519 7.81944 10.4625 7.46808 10.5074 7.12074L10.4083 7.28793C10.2687 7.52956 10.0582 7.7225 9.8054 7.84063C9.55258 7.95876 9.26956 7.9964 8.99465 7.94844C8.71974 7.90048 8.46618 7.76925 8.26829 7.57248C8.07039 7.37572 7.9377 7.12293 7.88816 6.8483C7.87732 6.77958 7.87732 6.70959 7.88816 6.64087C7.97614 6.08188 7.9251 5.50982 7.73955 4.97523C7.67763 4.76519 7.57254 4.57039 7.43098 4.40331C7.28944 4.23623 7.11455 4.10054 6.91754 4.00495C6.72053 3.90936 6.50572 3.85596 6.28688 3.84818C6.06804 3.84039 5.84998 3.8784 5.64667 3.95975C4.71788 4.29412 3.78909 4.63777 2.86029 4.97833L2.625 5.05573C2.64358 4.96285 2.65286 4.89164 2.66834 4.82353C3.00581 3.56347 3.34017 2.30031 3.68073 1.04334C3.73881 0.7923 3.86768 0.563187 4.05207 0.383192C4.23645 0.203197 4.46861 0.0798764 4.72098 0.0278638C4.7427 0.0211942 4.7635 0.0118336 4.7829 0L5.20395 0Z" fill="currentColor"/>
  <path d="M5.41514 9.18012C6.13899 9.01297 6.7901 8.61796 7.27272 8.05318C7.43062 8.20179 7.56684 8.36278 7.72473 8.48043C8.02214 8.72596 8.37528 8.89474 8.75314 8.97193C9.131 9.04912 9.52204 9.03237 9.89192 8.92315C9.92777 8.90682 9.96794 8.90252 10.0064 8.91089C10.0449 8.91926 10.0797 8.93985 10.1055 8.96959C10.3297 9.21172 10.6014 9.40506 10.9036 9.53757C11.2058 9.67008 11.5321 9.73892 11.862 9.73979C12.192 9.74066 12.5186 9.67355 12.8215 9.54264C13.1244 9.41172 13.3971 9.21982 13.6226 8.97888L13.7031 8.90458C13.7031 8.97269 13.7031 9.02222 13.7031 9.07176C13.7031 10.5496 13.7031 12.0264 13.7031 13.5021C13.7132 13.9079 13.5943 14.3064 13.3634 14.6403C13.1325 14.9741 12.8015 15.226 12.4182 15.3597C12.3099 15.3999 12.2975 15.4557 12.2975 15.5516C12.2975 16.1708 12.2975 16.79 12.2975 17.4092C12.3107 17.4919 12.3044 17.5765 12.2792 17.6564C12.254 17.7362 12.2105 17.8091 12.1522 17.8692C12.0939 17.9293 12.0224 17.975 11.9434 18.0026C11.8643 18.0303 11.7799 18.0391 11.6969 18.0284H4.11173C4.03094 18.0374 3.94915 18.028 3.87251 18.0009C3.79586 17.9738 3.72634 17.9298 3.66915 17.872C3.61197 17.8142 3.5686 17.7442 3.5423 17.6673C3.51601 17.5904 3.50746 17.5085 3.5173 17.4278V15.304C3.16746 15.1708 2.82071 15.0222 2.47706 14.8767C1.74747 14.5727 1.12353 14.0607 0.683076 13.4044C0.242621 12.7481 0.0051465 11.9767 0.000276366 11.1863C0.000276366 10.338 0.000276366 9.48662 0.000276366 8.63832C-0.00690602 8.19564 0.12607 7.76202 0.380189 7.39947C0.634308 7.03692 0.996557 6.764 1.41514 6.61975L5.9848 4.95411C6.05914 4.91728 6.14102 4.89822 6.22399 4.89844C6.30695 4.89866 6.38873 4.91815 6.46288 4.95537C6.53703 4.99259 6.60151 5.04653 6.65125 5.11294C6.70099 5.17934 6.73463 5.25639 6.7495 5.33801C6.88639 5.7363 6.91314 6.16417 6.8269 6.5764C6.76636 6.89525 6.62413 7.19295 6.41413 7.44039C6.20412 7.68784 5.93352 7.87658 5.62876 7.98817C5.15198 8.17393 4.66591 8.3473 4.17984 8.51758C4.06471 8.53866 3.95966 8.59687 3.88075 8.68331C3.80184 8.76975 3.75341 8.87966 3.74288 8.99622C3.73235 9.11279 3.76028 9.2296 3.82242 9.32878C3.88456 9.42797 3.97748 9.50407 4.08696 9.54544C4.57954 9.81479 5.00528 10.1914 5.3327 10.6474C5.66013 11.1035 5.88087 11.6273 5.9786 12.1801C5.98477 12.2531 6.00602 12.324 6.04101 12.3884C6.07599 12.4528 6.12396 12.5092 6.18186 12.554C6.23977 12.5989 6.30636 12.6313 6.37742 12.6491C6.44848 12.6669 6.52246 12.6698 6.59468 12.6575C6.66691 12.6453 6.73581 12.6182 6.79701 12.5779C6.85822 12.5377 6.91041 12.4851 6.95028 12.4237C6.99015 12.3622 7.01683 12.2932 7.02863 12.2209C7.04044 12.1486 7.03711 12.0746 7.01885 12.0036C6.833 10.9614 6.31237 10.0081 5.53588 9.28848L5.41514 9.18012Z" fill="currentColor"/>
</svg>
