<svg  viewBox="0 0 14 20" fill="none" xmlns="http://www.w3.org/2000/svg">
  <path
    d="M13.205 10.5L9.96589 6.97826L13.205 3.47827C13.32 3.36342 13.3465 3.187 13.2702 3.04348C13.2035 2.89127 13.0434 2.80235 12.8789 2.82611H2.42245V2.52178C2.9194 2.31743 3.25095 1.84137 3.27025 1.30439C3.27025 0.583956 2.6863 9.04583e-09 1.9659 9.04583e-09C1.25753 -8.32111e-05 0.68323 0.574052 0.683105 1.28242C0.683105 1.28975 0.683147 1.29703 0.683272 1.30435C0.711733 1.84474 1.0509 2.31955 1.55284 2.52174V19.5652C1.55284 19.8053 1.74749 20 1.98762 20C2.22775 20 2.42241 19.8053 2.42241 19.5652V11.3043H12.8789C13.0559 11.2837 13.2067 11.1664 13.2702 11C13.3509 10.8353 13.3252 10.6384 13.205 10.5ZM1.9659 1.73913C1.72577 1.73913 1.53112 1.54448 1.53112 1.30435C1.53112 1.06422 1.72577 0.869567 1.9659 0.869567C2.20603 0.869567 2.40069 1.06422 2.40069 1.30435C2.40069 1.54448 2.20603 1.73913 1.9659 1.73913ZM2.42245 10.4348V3.69564H11.9007L9.07465 6.71736C8.91965 6.89067 8.91965 7.15277 9.07465 7.32608L11.9007 10.4348H2.42245V10.4348Z"
    fill="currentColor"
  />
</svg>
