<svg viewBox="0 0 25 15" fill="none" xmlns="http://www.w3.org/2000/svg">
  <path d="M24.4335 5.27613L12.2168 0L0 5.27613L2.18065 6.21788V12.1018H3.60488V6.83296L5.17401 7.51061V12.6226L5.40222 12.834C5.49769 12.9224 7.79152 15 12.2168 15C16.642 15 18.9359 12.9224 19.0313 12.8339L19.2596 12.6226V7.51066L24.4335 5.27613ZM12.2168 1.55137L20.8413 5.27613L12.2168 9.00088L3.59221 5.27613L12.2168 1.55137ZM17.8353 11.9673C17.2084 12.4218 15.3112 13.5758 12.2168 13.5758C9.12 13.5758 7.2223 12.42 6.59825 11.9676V8.12574L12.2168 10.5523L17.8353 8.12578V11.9673Z"
        fill="currentColor"/>
</svg>
