<svg viewBox="0 0 15 17" fill="none" xmlns="http://www.w3.org/2000/svg">
  <path d="M9.16797 15.4116L13.2402 15.4116C13.5633 15.4116 13.8262 15.1187 13.8262 14.7586L13.8262 1.9608C13.8262 1.60077 13.5633 1.30785 13.2402 1.30785L9.16797 1.30785L9.16797 0.00195312L13.2402 0.00195332C14.2095 0.00195337 14.998 0.880694 14.998 1.9608L14.998 14.7586C14.998 15.8387 14.2095 16.7175 13.2402 16.7175L9.16797 16.7175L9.16797 15.4116Z" fill="currentColor"/>
  <path d="M6.90574 11.4945L9.1323 9.01325L-1.84771e-07 9.01325L-1.33547e-07 7.70735L9.13231 7.70735L6.90574 5.22614L7.73438 4.30273L11.3755 8.3603L7.73438 12.4179L6.90574 11.4945Z" fill="currentColor"/>
</svg>
