<svg viewBox="0 0 12 12" fill="none" xmlns="http://www.w3.org/2000/svg">
  <path d="M10.5691 12H1.47657C1.45855 11.994 1.44053 11.9844 1.42251 11.982C0.867441 11.9075 0.468562 11.6083 0.22467 11.1132C0.12495 10.9126 0.073288 10.6891 0 10.4764C0 6.98468 0 3.49174 0 0H9.88546V8.96726H11.9988C11.9988 9.45269 12.0012 9.9249 11.9988 10.3971C11.994 11.082 11.5555 11.6888 10.9067 11.9087C10.7974 11.9459 10.6832 11.97 10.5703 11.9988L10.5691 12ZM0.702843 0.708922C0.702843 0.762992 0.702843 0.812256 0.702843 0.862721C0.702843 3.98318 0.702843 7.10363 0.706448 10.2241C0.706448 10.3719 0.740088 10.5281 0.79175 10.6675C0.983981 11.1829 1.43813 11.4052 1.96916 11.261C2.34521 11.1589 2.64437 10.7564 2.64678 10.3454C2.64918 9.93091 2.64678 9.51757 2.64678 9.10303C2.64678 9.06098 2.64678 9.01892 2.64678 8.96245H9.17061V0.708922H0.702843ZM3.04566 11.2971H3.18743C4.72527 11.2971 6.26432 11.2971 7.80216 11.2971C8.65759 11.2971 9.51181 11.2995 10.3672 11.2971C10.837 11.2959 11.2191 10.9847 11.2767 10.5185C11.3116 10.2433 11.2827 9.95975 11.2827 9.67498H3.34241C3.34241 9.95855 3.35923 10.2361 3.33761 10.5113C3.31598 10.7888 3.19824 11.0424 3.04445 11.2983L3.04566 11.2971Z" fill="currentColor"/>
  <path d="M8.12853 2.94922V3.63171H3.99316V2.94922H8.12853Z" fill="currentColor"/>
  <path d="M8.12755 5.73242V6.41972H3.99219V5.73242H8.12755Z" fill="currentColor"/>
  <path d="M1.55101 6.34023L2.08805 5.88964L2.34636 6.19364C2.57584 5.99898 2.7981 5.81034 3.02878 5.61328L3.48413 6.14677C3.07804 6.49282 2.67556 6.83647 2.26226 7.18973L1.5498 6.34023H1.55101Z" fill="currentColor"/>
  <path d="M2.26399 3.9842L1.55273 3.1347L2.08858 2.68652L2.34929 2.98811L3.03051 2.41016L3.48706 2.94365L2.26519 3.98661L2.26399 3.9842Z" fill="currentColor"/>
</svg>
