<svg viewBox="0 0 12 15" fill="none" xmlns="http://www.w3.org/2000/svg">
  <path d="M10.6619 15.0003H1.19528C0.535487 15.0003 0 14.4648 0 13.805V6.48825C0 5.82846 0.535487 5.29297 1.19528 5.29297H10.6619C11.3217 5.29297 11.8572 5.82846 11.8572 6.48825V13.8066C11.8572 14.4664 11.3217 15.0019 10.6619 15.0019V15.0003ZM1.19528 6.08982C0.975351 6.08982 0.796855 6.26832 0.796855 6.48825V13.8066C0.796855 14.0265 0.975351 14.205 1.19528 14.205H10.6619C10.8819 14.205 11.0603 14.0265 11.0603 13.8066V6.48825C11.0603 6.26832 10.8819 6.08982 10.6619 6.08982H1.19528Z" fill="currentColor"/>
  <path d="M5.92857 10.5036C6.5579 10.5036 7.06807 9.99344 7.06807 9.36411C7.06807 8.73478 6.5579 8.22461 5.92857 8.22461C5.29924 8.22461 4.78906 8.73478 4.78906 9.36411C4.78906 9.99344 5.29924 10.5036 5.92857 10.5036Z" fill="currentColor"/>
  <path d="M5.9287 12.4661C5.70877 12.4661 5.53027 12.2876 5.53027 12.0676V10.2285C5.53027 10.0086 5.70877 9.83008 5.9287 9.83008C6.14863 9.83008 6.32713 10.0086 6.32713 10.2285V12.0676C6.32713 12.2876 6.14863 12.4661 5.9287 12.4661Z" fill="currentColor"/>
  <path d="M9.66406 3.73566H8.8672C8.8672 2.11485 7.5492 0.796855 5.9284 0.796855C4.3076 0.796855 2.99119 2.11485 2.99119 3.73566H2.19434C2.19434 1.67499 3.86933 0 5.92999 0C7.99066 0 9.66565 1.67499 9.66565 3.73566H9.66406Z" fill="currentColor"/>
  <path d="M2.98973 3.73633H2.19287V5.61053H2.98973V3.73633Z" fill="currentColor"/>
  <path d="M9.66404 3.73633H8.86719V5.62647H9.66404V3.73633Z" fill="currentColor"/>
</svg>
