<svg viewBox="0 0 23 15" fill="none" xmlns="http://www.w3.org/2000/svg">
  <path d="M19.6718 1.24456C19.813 1.60677 19.715 1.89587 19.4259 2.15174C19.1501 2.39598 18.9025 2.67012 18.64 2.92932C18.3592 3.20679 17.9871 3.21842 17.7295 2.96587C17.4737 2.71332 17.4803 2.32952 17.7495 2.05205C18.002 1.79285 18.2728 1.55027 18.5121 1.28111C18.7696 0.99035 19.062 0.879029 19.4342 1.00863L19.6702 1.24456H19.6718Z" fill="currentColor"/>
  <path d="M7.41504 10.7756C7.41504 11.937 7.41504 13.0702 7.41504 14.2033C7.41504 14.7815 7.19905 15.0008 6.62583 15.0008C5.63226 15.0008 4.63702 15.0008 3.64345 15.0008C3.06857 15.0008 2.84593 14.7815 2.84593 14.2133C2.84593 12.6565 2.84593 11.098 2.84593 9.54115C2.84593 9.47137 2.86254 9.40324 2.87417 9.30854C2.44218 9.30854 2.04841 9.31186 1.65463 9.31186C1.32732 9.31186 1.00166 9.31519 0.674349 9.31186C0.252329 9.30522 0.00144278 9.05267 -0.000218721 8.62899C-0.00188022 7.40446 -0.00188022 6.1816 -0.000218721 4.95708C-0.000218721 4.51013 0.250667 4.26589 0.702595 4.26589C1.52337 4.26589 2.34415 4.26756 3.16327 4.26257C3.28456 4.26257 3.41416 4.24263 3.5288 4.2011C7.32034 2.84199 11.1086 1.47624 14.8968 0.11215C14.9882 0.0789205 15.0795 0.0423675 15.1726 0.0191065C15.5448 -0.0722758 15.897 0.173626 15.9402 0.554109C15.9485 0.630538 15.9468 0.706967 15.9468 0.783395C15.9468 4.78927 15.9468 8.79348 15.9468 12.7993C15.9468 13.4473 15.5747 13.7082 14.9649 13.4889C12.5225 12.6099 10.0784 11.731 7.63602 10.8521C7.57123 10.8288 7.50643 10.8072 7.41338 10.7756H7.41504ZM14.6608 12.0467C14.6608 8.53927 14.6608 5.03683 14.6608 1.53605C14.6409 1.54104 14.601 1.55101 14.5611 1.56596C11.1252 2.80211 7.68919 4.03993 4.25321 5.2711C4.12196 5.31762 4.09371 5.3874 4.09537 5.51534C4.10036 6.34941 4.10368 7.18348 4.09371 8.01756C4.09205 8.19201 4.14522 8.26512 4.31137 8.32493C7.18077 9.35174 10.0469 10.3869 12.9129 11.4186C13.4994 11.6297 14.0876 11.8407 14.6608 12.045V12.0467ZM6.16726 13.7098C6.16726 12.6299 6.16726 11.5333 6.15729 10.4367C6.15729 10.3785 6.06923 10.2905 6.00277 10.2656C5.42457 10.0479 4.84305 9.84188 4.26318 9.63419C4.215 9.61758 4.16183 9.60927 4.14356 9.60595C4.14356 10.985 4.14356 12.3574 4.14356 13.7065C4.79819 13.7065 5.47608 13.7065 6.16726 13.7082V13.7098ZM2.82599 5.56352C2.29929 5.56352 1.78257 5.56352 1.30904 5.56352V8.02254L2.82599 8.01756V5.56352Z" fill="currentColor"/>
  <path d="M19.1418 7.26165C18.974 7.04234 18.9142 6.82302 19.0056 6.57878C19.0953 6.33786 19.2781 6.1767 19.5356 6.17005C20.2019 6.1551 20.8698 6.15343 21.5361 6.17005C21.87 6.17836 22.1143 6.46746 22.1109 6.79477C22.1076 7.11378 21.87 7.39623 21.5444 7.40454C20.8715 7.42116 20.1969 7.41617 19.5223 7.40122C19.3944 7.3979 19.2698 7.30984 19.1435 7.26165H19.1418Z" fill="currentColor"/>
  <path d="M19.092 11.1004C19.2449 11.2532 19.3994 11.4028 19.5473 11.5573C19.7915 11.8132 19.8032 12.1704 19.5789 12.4229C19.3629 12.6655 18.9691 12.7104 18.7149 12.4778C18.356 12.1504 18.0104 11.8065 17.6848 11.446C17.4521 11.1884 17.5037 10.8129 17.7562 10.5853C17.9971 10.3693 18.356 10.3776 18.6036 10.6136C18.7697 10.7714 18.9292 10.9376 19.0904 11.0987L19.092 11.1004Z" fill="currentColor"/>
</svg>
