<svg viewBox="0 0 23 20" fill="none" xmlns="http://www.w3.org/2000/svg">
  <path
    fill="currentColor"
    d="M8.26523 0C5.53076 0 3.30615 2.21297 3.30615 4.93313C3.30615 7.65329 5.53076 9.86626 8.26523 9.86626C10.9997 9.86626 13.2243 7.65329 13.2243 4.93313C13.2243 2.21297 10.9997 0 8.26523 0ZM8.26523 8.77001C7.50237 8.77001 6.75665 8.54498 6.12236 8.12338C5.48807 7.70178 4.9937 7.10254 4.70177 6.40144C4.40984 5.70034 4.33346 4.92887 4.48228 4.18459C4.63111 3.44031 4.99846 2.75664 5.53787 2.22005C6.07729 1.68345 6.76456 1.31802 7.51275 1.16998C8.26095 1.02193 9.03647 1.09791 9.74126 1.38832C10.446 1.67872 11.0484 2.1705 11.4723 2.80147C11.8961 3.43245 12.1223 4.17427 12.1223 4.93313C12.1211 5.95038 11.7144 6.92563 10.9913 7.64493C10.2682 8.36423 9.28782 8.76885 8.26523 8.77001Z"/>
  <path
    fill="currentColor"
    d="M13.0145 17.6131H1.12627C1.40214 14.5038 4.004 12.0588 7.16312 12.0588H9.36715C10.7561 12.0583 12.1019 12.5382 13.1743 13.4163C13.2107 13.3078 13.256 13.2024 13.3098 13.1013C13.3899 12.8548 13.5154 12.6252 13.6797 12.4242C12.4449 11.4748 10.9278 10.9606 9.36715 10.9625H7.16312C5.25295 10.9625 3.45299 11.7178 2.09384 13.0889C0.749832 14.4382 -0.00289897 16.2617 8.39084e-06 18.1612C8.39084e-06 18.3066 0.0580609 18.446 0.161395 18.5488C0.264729 18.6516 0.40488 18.7093 0.551017 18.7093H13.7161C13.6292 18.6132 13.5506 18.5101 13.481 18.4009C13.2783 18.169 13.1201 17.9019 13.0145 17.6131Z"/>
  <path
    fill="currentColor"
    d="M17.7058 20C16.8267 20 15.9673 19.7407 15.2364 19.2548C14.5054 18.769 13.9357 18.0785 13.5993 17.2705C13.2629 16.4626 13.1749 15.5736 13.3464 14.7159C13.5179 13.8582 13.9412 13.0703 14.5628 12.452C15.1845 11.8336 15.9764 11.4125 16.8387 11.2419C17.7009 11.0713 18.5946 11.1588 19.4067 11.4935C20.2189 11.8281 20.9131 12.3949 21.4015 13.122C21.8899 13.8491 22.1506 14.704 22.1506 15.5785C22.1492 16.7507 21.6805 17.8746 20.8472 18.7035C20.014 19.5324 18.8842 19.9987 17.7058 20ZM17.7058 12.2532C17.0446 12.2532 16.3984 12.4482 15.8486 12.8136C15.2989 13.179 14.8705 13.6983 14.6175 14.3059C14.3645 14.9136 14.2983 15.5822 14.4272 16.2272C14.5562 16.8722 14.8746 17.4648 15.3421 17.9298C15.8096 18.3949 16.4052 18.7116 17.0536 18.8399C17.7021 18.9682 18.3742 18.9023 18.985 18.6506C19.5958 18.399 20.1179 17.9727 20.4852 17.4259C20.8525 16.8791 21.0486 16.2361 21.0486 15.5785C21.0475 14.6969 20.695 13.8517 20.0683 13.2283C19.4417 12.6049 18.592 12.2542 17.7058 12.2532Z"/>
  <path
    fill="currentColor"
    d="M19.756 16.1266H15.6557C15.5096 16.1266 15.3695 16.0688 15.2661 15.966C15.1628 15.8632 15.1047 15.7238 15.1047 15.5785C15.1047 15.4331 15.1628 15.2937 15.2661 15.1909C15.3695 15.0881 15.5096 15.0303 15.6557 15.0303H19.756C19.9021 15.0303 20.0423 15.0881 20.1456 15.1909C20.2489 15.2937 20.307 15.4331 20.307 15.5785C20.307 15.7238 20.2489 15.8632 20.1456 15.966C20.0423 16.0688 19.9021 16.1266 19.756 16.1266Z"/>
  <path
    fill="currentColor"
    d="M17.7058 18.1663C17.5597 18.1663 17.4195 18.1086 17.3162 18.0058C17.2128 17.903 17.1548 17.7636 17.1548 17.6182V13.5391C17.1548 13.3937 17.2128 13.2543 17.3162 13.1515C17.4195 13.0487 17.5597 12.9909 17.7058 12.9909C17.8519 12.9909 17.9921 13.0487 18.0954 13.1515C18.1987 13.2543 18.2568 13.3937 18.2568 13.5391V17.6182C18.2568 17.7636 18.1987 17.903 18.0954 18.0058C17.9921 18.1086 17.8519 18.1663 17.7058 18.1663Z"/>
</svg>
