<svg viewBox="0 0 24 16" fill="none" xmlns="http://www.w3.org/2000/svg">
  <path d="M3.36361 8.67052C1.35687 7.30148 1.25058 4.89237 2.40284 3.38921C3.5551 1.88604 5.89082 1.37824 7.7103 2.91093C8.49394 1.01215 9.8866 -0.075998 11.9701 0.00413701C13.8756 0.0775238 15.1384 1.14796 15.8368 2.90334C17.8908 1.24834 20.1599 2.12054 21.1384 3.39764C22.1683 4.74138 22.3252 7.16483 20.2451 8.65197C20.6416 8.89153 21.0701 9.09988 21.4429 9.3833C22.8398 10.4445 23.5315 11.8725 23.5593 13.6237C23.5661 14.0337 23.5635 14.4445 23.5593 14.8544C23.5593 15.3268 23.4277 15.4592 22.9604 15.4592C21.4556 15.4592 19.951 15.4592 18.4467 15.4592H18.0772C17.9313 15.9341 17.8444 15.9982 17.3543 15.9982H6.18352C5.71199 15.9982 5.61077 15.9206 5.49014 15.4592H0.674454C0.103387 15.4592 -0.0206118 15.3521 0.00385048 14.7709C0.038435 13.9535 0.00385048 13.1159 0.183522 12.3247C0.554673 10.679 1.58377 9.51067 3.11477 8.79283C3.18732 8.76078 3.25986 8.72282 3.36361 8.67052ZM17.1468 15.099C17.1468 14.5018 17.1654 13.9341 17.1468 13.3681C17.0681 11.3808 16.1481 9.91866 14.3868 8.98178C13.3881 8.45121 12.3058 8.44361 11.2185 8.47567C9.91866 8.51531 8.80858 9.00372 7.8807 9.90966C6.39609 11.3538 6.28896 13.1825 6.4467 15.099H17.1468ZM15.1477 4.24285C15.1688 2.41662 13.6614 0.887309 11.8141 0.861159C11.1454 0.853137 10.4894 1.04399 9.9294 1.4095C9.3694 1.775 8.93064 2.29867 8.66882 2.91401C8.40701 3.52935 8.33395 4.20861 8.45891 4.86556C8.58388 5.5225 8.90124 6.1275 9.37071 6.60373C9.84017 7.07996 10.4406 7.40595 11.0956 7.54032C11.7507 7.67468 12.431 7.61135 13.05 7.35837C13.669 7.10539 14.1989 6.67418 14.5724 6.11947C14.9459 5.56476 15.1461 4.91158 15.1477 4.24285ZM5.27251 8.31456C5.86016 8.3199 6.43349 8.13333 6.90545 7.78317C7.3774 7.43301 7.72219 6.9384 7.88744 6.37445C7.9173 6.22527 7.91298 6.07127 7.87479 5.924C7.76766 5.37149 7.64957 4.82067 7.52642 4.27153C7.50651 4.13104 7.45613 3.99659 7.3788 3.87761C7.08895 3.52126 6.71358 3.24411 6.2877 3.07199C5.86181 2.89988 5.39928 2.83841 4.94323 2.89332C4.48718 2.94823 4.05245 3.11772 3.67959 3.386C3.30673 3.65428 3.00787 4.0126 2.81088 4.42756C2.61389 4.84253 2.52518 5.30062 2.55303 5.75912C2.58088 6.21762 2.72438 6.6616 2.97015 7.04967C3.21591 7.43774 3.55594 7.75726 3.95853 7.97844C4.36113 8.19962 4.81317 8.31525 5.27251 8.31456ZM22.6365 14.5566C22.855 12.6697 22.3117 10.9674 20.6416 9.89785C19.3678 9.08216 18.0072 8.98853 16.5572 9.55454C17.847 11.0197 18.165 12.727 18.0148 14.5566H22.6365ZM0.906423 14.5482H5.55341C5.3847 12.6925 5.72971 10.9953 7.00343 9.54695C5.43785 8.96491 4.00807 9.1041 2.70145 10.0472C1.17466 11.1522 0.743623 12.7254 0.906423 14.5507V14.5482ZM18.2653 8.31287C18.8774 8.31619 19.4726 8.11256 19.9544 7.73503C20.4362 7.35749 20.7762 6.82822 20.9193 6.23312C21.0624 5.63802 21.0002 5.01201 20.7428 4.45672C20.4853 3.90142 20.0478 3.44943 19.5011 3.17411C18.959 2.89397 18.3377 2.80708 17.7395 2.92778C17.1414 3.04847 16.6024 3.36954 16.2114 3.83796C16.1191 3.97124 16.0578 4.12339 16.0317 4.28334C15.9108 4.82151 15.7966 5.36193 15.6892 5.9046C15.6487 6.06154 15.6441 6.2256 15.6757 6.38457C15.8381 6.94436 16.179 7.43574 16.6465 7.78385C17.114 8.13197 17.6825 8.31774 18.2653 8.31287ZM9.47749 7.82194L8.65927 7.13952L7.24299 8.74222C7.4117 8.76331 7.64788 8.87044 7.7896 8.7979C8.36488 8.50688 8.91064 8.15682 9.47749 7.82194ZM14.8997 7.13615C14.6508 7.34534 14.3497 7.5984 14.0663 7.83796C14.5648 8.11464 15.0785 8.37698 15.561 8.67558C15.9414 8.90924 15.9684 8.92864 16.2637 8.69499L14.8997 7.13615Z" fill="currentColor"/>
</svg>
