<svg viewBox="0 0 35 25" fill="none" xmlns="http://www.w3.org/2000/svg">
  <path d="M29.4287 15.0742H26.7686C27.0425 15.6198 27.186 16.2217 27.1877 16.8322V24.2631C27.1869 24.5176 27.1285 24.7686 27.0171 24.9973H31.4144C33.0575 24.9973 34.3936 24.0092 34.3936 22.7953V18.744C34.3936 16.724 32.1661 15.0742 29.4287 15.0742Z" fill="currentColor"/>
  <path d="M7.20523 16.8322C7.20719 16.2216 7.35091 15.6198 7.62508 15.0742H4.96493C2.22754 15.0742 0 16.724 0 18.744V22.7953C0 24.0092 1.33612 24.9973 2.97923 24.9973H7.37653C7.26488 24.7686 7.20632 24.5176 7.20523 24.2631V16.8322Z" fill="currentColor"/>
  <path d="M20.2371 13.168H14.1563C11.4183 13.168 9.19141 14.8138 9.19141 16.8378V24.2674C9.19141 24.6704 9.63611 25.0016 10.1843 25.0016H24.2091C24.7573 25.0016 25.202 24.6731 25.202 24.2674V16.8364C25.202 14.8124 22.9738 13.168 20.2371 13.168Z" fill="currentColor"/>
  <path d="M17.1971 0C16.0164 0.000265725 14.8624 0.350585 13.8809 1.00667C12.8993 1.66275 12.1344 2.59513 11.6827 3.68593C11.231 4.77672 11.1129 5.97696 11.3433 7.13487C11.5737 8.29279 12.1422 9.3564 12.9771 10.1912C13.8119 11.026 14.8755 11.5946 16.0334 11.825C17.1913 12.0554 18.3916 11.9373 19.4824 11.4856C20.5731 11.0339 21.5055 10.2689 22.1616 9.2874C22.8177 8.30587 23.168 7.15184 23.1683 5.97122C23.1663 4.38816 22.5366 2.87049 21.4172 1.75109C20.2978 0.631692 18.7801 0.00195539 17.1971 0V0Z" fill="currentColor"/>
  <path d="M6.7121 5.5625C5.82954 5.5629 4.96692 5.82494 4.23327 6.31551C3.49962 6.80608 2.92788 7.50315 2.59033 8.31859C2.25277 9.13404 2.16456 10.0313 2.33683 10.8968C2.50911 11.7624 2.93414 12.5575 3.5582 13.1815C4.18226 13.8056 4.97733 14.2306 5.8429 14.4029C6.70848 14.5752 7.6057 14.487 8.42115 14.1494C9.2366 13.8118 9.93366 13.2401 10.4242 12.5065C10.9148 11.7728 11.1768 10.9102 11.1772 10.0276C11.1758 8.84385 10.7049 7.70895 9.86786 6.87188C9.03079 6.03481 7.89589 5.56392 6.7121 5.5625Z" fill="currentColor"/>
  <path d="M27.6817 5.5625C26.7984 5.5625 25.9349 5.82443 25.2005 6.31517C24.4661 6.80591 23.8937 7.50342 23.5557 8.31948C23.2177 9.13554 23.1293 10.0335 23.3017 10.8998C23.4741 11.7661 23.8994 12.5618 24.5241 13.1864C25.1487 13.8109 25.9445 14.2362 26.8108 14.4084C27.6772 14.5807 28.5751 14.4921 29.3911 14.154C30.2071 13.8159 30.9045 13.2434 31.3952 12.5089C31.8858 11.7744 32.1476 10.9109 32.1475 10.0276C32.1461 8.84374 31.6751 7.70873 30.8379 6.87165C30.0006 6.03456 28.8656 5.56374 27.6817 5.5625Z" fill="currentColor"/>
</svg>
