<svg viewBox="0 0 11 12" fill="none" xmlns="http://www.w3.org/2000/svg">
  <path d="M2.82627 4.78704C2.51612 4.5495 2.38196 4.25042 2.48412 3.88242C2.59735 3.4738 2.89889 3.29165 3.32596 3.26827C3.22258 3.09473 3.12658 2.93473 3.03058 2.77473C2.67858 2.18765 2.32658 1.59934 1.97212 1.0135C1.90196 0.897804 1.8675 0.779651 1.95981 0.671343C2.00658 0.615958 2.0915 0.563035 2.16165 0.560574C2.43858 0.553189 2.66873 0.446112 2.89396 0.294727C3.42196 -0.0597341 3.9795 -0.0917341 4.55181 0.183958C4.66258 0.236881 4.76227 0.313189 4.86689 0.37842C5.25581 0.61842 5.64719 0.61842 6.03365 0.375958C6.25027 0.240574 6.46073 0.0978044 6.71796 0.0461121C7.14873 -0.0412725 7.55981 0.00426592 7.93027 0.249189C8.18627 0.417804 8.4435 0.556881 8.7635 0.563035C8.95058 0.566727 9.04412 0.784574 8.95181 0.959343C8.89027 1.07627 8.81765 1.18704 8.74996 1.30027C8.38196 1.91319 8.01519 2.52611 7.64719 3.13904C7.62381 3.17842 7.60288 3.21903 7.57581 3.2695C7.98442 3.28796 8.28227 3.4615 8.40412 3.84919C8.5235 4.2295 8.39058 4.54211 8.08165 4.78088C8.34258 4.99873 8.60719 5.2055 8.85704 5.4295C9.57581 6.07688 10.185 6.80796 10.5678 7.70765C10.777 8.19873 10.8903 8.7095 10.8964 9.24488C10.9075 10.1827 10.4964 10.8683 9.67673 11.3138C9.16596 11.592 8.61088 11.7372 8.04227 11.827C6.76104 12.0289 5.47242 12.0252 4.18258 11.9649C3.49704 11.9329 2.81642 11.8553 2.15304 11.6757C1.59796 11.5243 1.07489 11.3064 0.649039 10.9015C0.241655 10.515 0.0385777 10.035 0.00657775 9.48242C-0.0524992 8.46827 0.290885 7.57596 0.854578 6.75627C1.35673 6.02642 1.98935 5.42211 2.69212 4.88919C2.73273 4.85842 2.77335 4.82765 2.82627 4.78704V4.78704ZM5.44412 4.91011C4.87304 4.91011 4.30319 4.90765 3.73212 4.91257C3.66442 4.91257 3.58689 4.9335 3.5315 4.97042C2.83119 5.43196 2.19489 5.96857 1.65581 6.61473C1.07242 7.3138 0.639193 8.08304 0.55427 9.01104C0.509962 9.49473 0.571501 9.95627 0.882885 10.3526C1.13889 10.6775 1.48473 10.872 1.86504 11.0147C2.5875 11.2843 3.34319 11.3729 4.10504 11.4147C5.26688 11.4787 6.42873 11.4812 7.58688 11.3421C8.1715 11.272 8.7475 11.1612 9.28535 10.9077C9.96596 10.5864 10.3512 10.067 10.3537 9.29657C10.3561 8.6135 10.1493 7.9895 9.8035 7.4098C9.19058 6.38211 8.32165 5.60796 7.33704 4.95319C7.2915 4.92365 7.22627 4.9138 7.16965 4.9138C6.59489 4.91134 6.02012 4.91257 5.44535 4.91257L5.44412 4.91011ZM5.02196 3.26704H5.87365C5.87858 3.23996 5.88227 3.22027 5.88473 3.19934C5.96596 2.69719 6.15919 2.23565 6.42258 1.80365C6.51981 1.64365 6.67365 1.59811 6.8115 1.68057C6.95304 1.76427 6.98135 1.92427 6.88412 2.09165C6.84965 2.15073 6.81396 2.20857 6.78196 2.26888C6.6195 2.58273 6.48165 2.90519 6.42627 3.27442C6.56288 3.27442 6.69089 3.2695 6.81642 3.27565C6.90012 3.28057 6.94565 3.25103 6.98873 3.17842C7.39488 2.49411 7.80596 1.8135 8.21458 1.13042C8.23058 1.10334 8.24288 1.07257 8.24904 1.0615C8.04227 0.940881 7.84412 0.82642 7.64719 0.710727C7.27304 0.491651 6.89765 0.487958 6.5235 0.708266C6.43858 0.757497 6.35858 0.814112 6.27612 0.865804C5.9475 1.06888 5.59058 1.1255 5.21027 1.07873C4.89396 1.04057 4.63796 0.876881 4.37827 0.713189C4.02873 0.494112 3.66196 0.487958 3.30012 0.68242C3.08104 0.799343 2.86935 0.932266 2.64658 1.06273C2.64658 1.05288 2.64412 1.06273 2.64658 1.06765C3.07489 1.78273 3.50319 2.4978 3.93396 3.21288C3.94873 3.23873 3.98319 3.26827 4.00904 3.2695C4.16042 3.27442 4.31304 3.27196 4.46812 3.27196C4.46442 3.23873 4.46319 3.2215 4.4595 3.2055C4.38689 2.81042 4.22442 2.4535 4.02504 2.10765C3.98689 2.04119 3.95489 1.9575 3.95735 1.88242C3.96104 1.7618 4.03858 1.68057 4.15919 1.6498C4.27981 1.61904 4.38689 1.66334 4.46196 1.78519C4.74258 2.23811 4.94073 2.72304 5.02196 3.2658V3.26704ZM5.45642 3.82457C5.00965 3.82457 4.56165 3.82457 4.11489 3.82457C3.82935 3.82457 3.54381 3.82211 3.2595 3.82704C3.10935 3.8295 3.00104 3.94396 2.99612 4.08673C2.99119 4.23319 3.10196 4.35257 3.25458 4.36611C3.28781 4.36857 3.32227 4.36734 3.35673 4.36734C4.74873 4.36734 6.14196 4.36734 7.53396 4.36734C7.57212 4.36734 7.6115 4.3698 7.64842 4.36488C7.79365 4.35011 7.90073 4.23073 7.89827 4.09042C7.89581 3.94888 7.7875 3.83688 7.63858 3.8258C7.59673 3.82211 7.55365 3.82334 7.51058 3.82334C6.82504 3.82334 6.1395 3.82334 5.45396 3.82334L5.45642 3.82457Z" fill="currentColor"/>
  <path d="M5.72268 6.82146C5.86053 6.82146 5.98238 6.819 6.10545 6.82146C6.28145 6.82516 6.39715 6.93223 6.39838 7.091C6.39961 7.25223 6.28884 7.36054 6.11038 7.363C5.81253 7.36669 5.51468 7.363 5.21684 7.36546C5.04945 7.36669 4.93745 7.44916 4.91161 7.58208C4.87715 7.76054 4.9953 7.90577 5.18976 7.91316C5.37684 7.92054 5.56391 7.91192 5.75099 7.91808C6.16822 7.93162 6.48822 8.23931 6.53376 8.66639C6.57438 9.04423 6.30976 9.41962 5.92822 9.52054C5.86299 9.53777 5.79653 9.54639 5.72145 9.55993C5.72145 9.68423 5.72391 9.80239 5.72145 9.92177C5.71653 10.1101 5.61191 10.2258 5.44945 10.227C5.28699 10.227 5.17991 10.1125 5.17376 9.92669C5.1713 9.86762 5.17376 9.80731 5.17376 9.74823C5.17376 9.68916 5.17376 9.63008 5.17376 9.55254C5.03838 9.55254 4.91284 9.55623 4.7873 9.55254C4.58176 9.54392 4.45622 9.38393 4.50668 9.20177C4.54114 9.07746 4.65068 9.00608 4.81561 9.00485C5.10976 9.00362 5.40268 9.00608 5.69684 9.00362C5.86791 9.00239 5.97622 8.90885 5.98853 8.76239C6.0033 8.595 5.8913 8.46823 5.7153 8.46331C5.54914 8.45839 5.38299 8.46331 5.21684 8.46208C4.7393 8.45962 4.3873 8.13839 4.35899 7.67931C4.33191 7.24854 4.65807 6.88546 5.12084 6.82762C5.13314 6.82639 5.14545 6.82269 5.17376 6.81777C5.17376 6.70208 5.17253 6.58392 5.17376 6.46577C5.17745 6.27131 5.2833 6.14577 5.44576 6.14454C5.60822 6.14331 5.71776 6.26885 5.72268 6.46085C5.72515 6.57531 5.72268 6.691 5.72268 6.82516V6.82146Z" fill="currentColor"/>
</svg>
