<svg viewBox="0 0 11 12" fill="none" xmlns="http://www.w3.org/2000/svg">
  <path d="M10.5138 12H1.3379C1.17995 12 1.05176 11.8739 1.05176 11.7186V0.281373C1.05176 0.126055 1.17995 0 1.3379 0H10.5138C10.6717 0 10.7999 0.126055 10.7999 0.281373V11.7186C10.7999 11.8739 10.6717 12 10.5138 12ZM1.62403 11.4373H10.2276V0.562746H1.62403V11.4373Z" fill="currentColor"/>
  <path d="M2.47796 3.70923H0.286138C0.12819 3.70923 0 3.58318 0 3.42786C0 3.27254 0.12819 3.14648 0.286138 3.14648H2.47796C2.63591 3.14648 2.7641 3.27254 2.7641 3.42786C2.7641 3.58318 2.63591 3.70923 2.47796 3.70923Z" fill="currentColor"/>
  <path d="M2.47796 6.33814H0.286138C0.12819 6.33814 0 6.21208 0 6.05676C0 5.90145 0.12819 5.77539 0.286138 5.77539H2.47796C2.63591 5.77539 2.7641 5.90145 2.7641 6.05676C2.7641 6.21208 2.63591 6.33814 2.47796 6.33814Z" fill="currentColor"/>
  <path d="M2.47796 8.96704H0.286138C0.12819 8.96704 0 8.84099 0 8.68567C0 8.53035 0.12819 8.4043 0.286138 8.4043H2.47796C2.63591 8.4043 2.7641 8.53035 2.7641 8.68567C2.7641 8.84099 2.63591 8.96704 2.47796 8.96704Z" fill="currentColor"/>
  <path d="M6.14619 6.19512C5.37705 6.19512 4.75098 5.57948 4.75098 4.82315C4.75098 4.06682 5.37705 3.45117 6.14619 3.45117C6.91533 3.45117 7.5414 4.06682 7.5414 4.82315C7.5414 5.57948 6.91533 6.19512 6.14619 6.19512ZM6.14619 4.01392C5.69294 4.01392 5.32325 4.37745 5.32325 4.82315C5.32325 5.26884 5.6918 5.63238 6.14619 5.63238C6.60057 5.63238 6.96912 5.26884 6.96912 4.82315C6.96912 4.37745 6.59943 4.01392 6.14619 4.01392Z" fill="currentColor"/>
  <path d="M8.84136 8.39815H3.59473L3.62563 8.08977C3.75611 6.76506 4.8709 5.76562 6.21919 5.76562C7.56747 5.76562 8.68226 6.76506 8.81274 8.08977L8.84365 8.39815H8.84136ZM4.24827 7.83541H8.18667C7.96005 6.95752 7.16115 6.32837 6.21804 6.32837C5.27493 6.32837 4.47603 6.95752 4.24941 7.83541H4.24827Z" fill="currentColor"/>
</svg>
