<svg viewBox="0 0 15 15" fill="none" xmlns="http://www.w3.org/2000/svg">
  <path d="M15 7.50021C15 7.18319 14.8238 6.89813 14.5402 6.75613L13.4233 6.1977L14.5402 5.63931C14.5402 5.63928 14.5403 5.63925 14.5403 5.63925C14.8239 5.4973 15 5.21222 15 4.8952C15 4.57823 14.8239 4.29315 14.5402 4.15115L8.23504 0.998631C7.77473 0.768681 7.22518 0.768681 6.76478 0.998661L0.459696 4.15129C0.176162 4.29318 5.84403e-08 4.57823 5.84403e-08 4.89523C5.84403e-08 5.21225 0.176133 5.4973 0.459784 5.63931L1.57661 6.1977L0.459638 6.75619C0.176133 6.89813 5.84403e-08 7.18319 5.84403e-08 7.50021C5.84403e-08 7.81723 0.176133 8.10229 0.459784 8.24426L1.57661 8.80269L0.459872 9.36106C0.176367 9.50271 0.000117246 9.78768 5.84403e-08 10.1047C-0.000117129 10.422 0.176015 10.7072 0.459784 10.8492L6.7649 14.0018C6.99505 14.1168 7.24745 14.1742 7.49996 14.1742C7.75247 14.1742 8.00497 14.1167 8.23516 14.0018L14.5403 10.8492C14.8239 10.7072 15.0001 10.422 15 10.1048C14.9999 9.78771 14.8236 9.50274 14.5402 9.36117L13.4233 8.80275L14.5403 8.24426C14.8238 8.10229 15 7.81723 15 7.50021ZM0.768309 5.02258C0.699784 4.98827 0.689589 4.92807 0.689589 4.89526C0.689589 4.86244 0.699843 4.80224 0.768192 4.76802L7.0731 1.61556C7.20678 1.54877 7.35341 1.51543 7.50004 1.51543C7.64662 1.51543 7.79322 1.5488 7.92681 1.61553L14.2317 4.76796C14.3002 4.80224 14.3104 4.86244 14.3104 4.89526C14.3104 4.92807 14.3002 4.98827 14.2317 5.02258L7.9269 8.17495C7.65956 8.30848 7.34041 8.30848 7.07322 8.17498L0.768309 5.02258ZM14.2319 9.97796C14.3002 10.0121 14.3104 10.0721 14.3104 10.105C14.3104 10.1379 14.3002 10.1982 14.2318 10.2324L7.92687 13.3849C7.65954 13.5184 7.34038 13.5185 7.07319 13.3849L0.768309 10.2325C0.699784 10.1982 0.689559 10.1379 0.689589 10.105C0.689589 10.0722 0.699784 10.0121 0.768192 9.9779L2.34764 9.18818L6.7649 11.3968C6.99505 11.5118 7.24745 11.5692 7.49993 11.5692C7.75244 11.5692 8.00495 11.5117 8.23513 11.3967L12.6523 9.18818L14.2319 9.97796ZM14.2318 7.62748L7.92687 10.7799C7.65954 10.9135 7.34038 10.9135 7.07319 10.78L0.768309 7.62753C0.699784 7.59326 0.689589 7.53305 0.689589 7.50024C0.689589 7.46737 0.699784 7.40722 0.768192 7.37298L2.34764 6.58325L6.7649 8.79185C6.99503 8.90684 7.24748 8.96429 7.49993 8.96429C7.75238 8.96429 8.00492 8.90681 8.2351 8.79179L12.6523 6.58322L14.2316 7.37289C14.3002 7.40719 14.3104 7.46737 14.3104 7.50021C14.3104 7.53302 14.3002 7.59323 14.2318 7.62748Z" fill="currentColor"/>
</svg>
