<svg viewBox="0 0 19 15" fill="none" xmlns="http://www.w3.org/2000/svg">
  <path d="M17.8091 10.3636C17.5612 10.3636 17.315 10.3636 17.0518 10.3636V6.77344H16.3679V10.3499H2.48258H1.83464V6.77515H1.1508V10.3653H0.441319C0.113077 10.3653 0.00195312 10.473 0.00195312 10.7927C0.00195312 11.1722 0.00195312 11.5512 0.00195312 11.9296C0.00195312 12.2373 0.116496 12.3484 0.429352 12.3501H2.90656C2.97152 12.3501 3.03649 12.3501 3.1271 12.3621C3.057 12.4561 3.00742 12.5331 2.95614 12.598C2.5162 13.1873 2.07455 13.7754 1.6312 14.3623C1.52691 14.4991 1.4346 14.6325 1.53033 14.812C1.62607 14.9915 1.78677 14.9949 1.95773 14.9932C2.28255 14.9932 2.60738 14.9744 2.92878 14.9932C3.05123 15.0055 3.17463 14.9824 3.28434 14.9266C3.39404 14.8709 3.48543 14.7848 3.54766 14.6786C4.08276 13.9435 4.63667 13.222 5.1769 12.4903C5.21023 12.4401 5.25624 12.3996 5.31029 12.3728C5.36433 12.3461 5.42448 12.3342 5.48463 12.3382C7.8906 12.3382 10.2954 12.3382 12.6991 12.3382C12.7663 12.333 12.8336 12.3461 12.8938 12.3762C12.954 12.4063 13.0049 12.4523 13.041 12.5091C13.6018 13.2665 14.1728 14.0187 14.7353 14.7761C14.7807 14.8449 14.8435 14.9004 14.9174 14.9371C14.9913 14.9737 15.0735 14.9901 15.1558 14.9846C15.5336 14.9846 15.9132 14.9846 16.2927 14.9846C16.3679 14.9964 16.4449 14.9846 16.5131 14.951C16.5813 14.9173 16.6375 14.8634 16.6739 14.7966C16.7015 14.7281 16.7076 14.6528 16.6915 14.5807C16.6753 14.5087 16.6376 14.4432 16.5833 14.3931C16.1274 13.7879 15.6715 13.1816 15.2157 12.5741C15.1678 12.5108 15.1233 12.4442 15.0567 12.3484H15.2892C16.1217 12.3484 16.956 12.3484 17.7903 12.3484C18.0621 12.3484 18.1852 12.2288 18.1886 11.9638C18.1886 11.5569 18.1886 11.15 18.1886 10.7431C18.1947 10.6918 18.189 10.6398 18.1721 10.591C18.1551 10.5422 18.1274 10.4979 18.0908 10.4614C18.0543 10.4249 18.01 10.3971 17.9612 10.3802C17.9124 10.3632 17.8604 10.3576 17.8091 10.3636V10.3636ZM4.32723 12.5348C3.94428 13.0477 3.54082 13.5451 3.18351 14.0734C3.0023 14.3418 2.79372 14.3658 2.49967 14.311L3.05016 13.5759C3.28096 13.2682 3.53398 12.9724 3.734 12.6476C3.79691 12.5213 3.90451 12.4228 4.03593 12.3713C4.16734 12.3198 4.3132 12.319 4.44519 12.3689C4.40075 12.4254 4.36655 12.4818 4.32723 12.5348ZM15.5576 14.1247C15.602 14.1828 15.6413 14.2444 15.6926 14.3162C15.4037 14.3623 15.1934 14.3418 15.0088 14.0734C14.6156 13.4956 14.1779 12.9468 13.7488 12.3741C13.8814 12.3251 14.0273 12.3264 14.159 12.3777C14.2907 12.4291 14.399 12.5269 14.4634 12.6527C14.8071 13.1656 15.1917 13.634 15.5576 14.1247ZM17.5236 11.6766H0.684082V11.0389H17.5236V11.6766Z" fill="currentColor"/>
  <path d="M0.437657 1.98655H1.14885V6.98541H1.83269V1.99852H16.3643V6.98541H17.0481V1.98655H17.7644C18.0756 1.98655 18.1901 1.87372 18.1918 1.56599C18.1918 1.21552 18.1918 0.863346 18.1918 0.512879C18.1918 0.0871894 18.108 0 17.6892 0H0.453043C0.102576 0.0017096 0 0.105995 0 0.459881C0 0.813768 0 1.19843 0 1.55573C0 1.88227 0.111124 1.98484 0.437657 1.98655ZM0.671872 0.675291H17.5234V1.30955H0.671872V0.675291Z" fill="currentColor"/>
  <path d="M5.35631 4.7428H7.87797C7.94679 4.73678 8.016 4.73678 8.08483 4.7428C8.16417 4.75277 8.23713 4.79137 8.29003 4.85133C8.34293 4.9113 8.37212 4.98851 8.37212 5.06848C8.37212 5.14844 8.34293 5.22565 8.29003 5.28562C8.23713 5.34559 8.16417 5.38418 8.08483 5.39416C8.02282 5.39932 7.96049 5.39932 7.89848 5.39416H3.70313C3.64112 5.39932 3.57879 5.39932 3.51678 5.39416C3.43745 5.38418 3.36448 5.34559 3.31158 5.28562C3.25868 5.22565 3.22949 5.14844 3.22949 5.06848C3.22949 4.98851 3.25868 4.9113 3.31158 4.85133C3.36448 4.79137 3.43745 4.75277 3.51678 4.7428C3.58561 4.73683 3.65482 4.73683 3.72365 4.7428H5.35631Z" fill="currentColor"/>
  <path d="M5.35631 7.23108H7.87797C7.94679 7.22506 8.016 7.22506 8.08483 7.23108C8.16417 7.24106 8.23713 7.27965 8.29003 7.33962C8.34293 7.39958 8.37212 7.47679 8.37212 7.55676C8.37212 7.63672 8.34293 7.71393 8.29003 7.7739C8.23713 7.83386 8.16417 7.87246 8.08483 7.88243C8.02286 7.88846 7.96045 7.88846 7.89848 7.88243H3.70313C3.64112 7.8876 3.57879 7.8876 3.51678 7.88243C3.43745 7.87246 3.36448 7.83386 3.31158 7.7739C3.25868 7.71393 3.22949 7.63672 3.22949 7.55676C3.22949 7.47679 3.25868 7.39958 3.31158 7.33962C3.36448 7.27965 3.43745 7.24106 3.51678 7.23108C3.58561 7.22511 3.65482 7.22511 3.72365 7.23108H5.35631Z" fill="currentColor"/>
  <path d="M11.9894 4.7428H14.5127C14.5816 4.73678 14.6508 4.73678 14.7196 4.7428C14.7989 4.75277 14.8719 4.79137 14.9248 4.85133C14.9777 4.9113 15.0069 4.98851 15.0069 5.06848C15.0069 5.14844 14.9777 5.22565 14.9248 5.28562C14.8719 5.34559 14.7989 5.38418 14.7196 5.39416C14.6576 5.39932 14.5953 5.39932 14.5332 5.39416H10.3379C10.2759 5.39932 10.2136 5.39932 10.1516 5.39416C10.0722 5.38418 9.99924 5.34559 9.94635 5.28562C9.89345 5.22565 9.86426 5.14844 9.86426 5.06848C9.86426 4.98851 9.89345 4.9113 9.94635 4.85133C9.99924 4.79137 10.0722 4.75277 10.1516 4.7428C10.2204 4.73683 10.2896 4.73683 10.3584 4.7428H11.9894Z" fill="currentColor"/>
  <path d="M11.9894 7.23108H14.5127C14.5816 7.22506 14.6508 7.22506 14.7196 7.23108C14.7989 7.24106 14.8719 7.27965 14.9248 7.33962C14.9777 7.39958 15.0069 7.47679 15.0069 7.55676C15.0069 7.63672 14.9777 7.71393 14.9248 7.7739C14.8719 7.83386 14.7989 7.87246 14.7196 7.88243C14.6576 7.88846 14.5952 7.88846 14.5332 7.88243H10.3379C10.2759 7.8876 10.2136 7.8876 10.1516 7.88243C10.0722 7.87246 9.99924 7.83386 9.94635 7.7739C9.89345 7.71393 9.86426 7.63672 9.86426 7.55676C9.86426 7.47679 9.89345 7.39958 9.94635 7.33962C9.99924 7.27965 10.0722 7.24106 10.1516 7.23108C10.2204 7.22511 10.2896 7.22511 10.3584 7.23108H11.9894Z" fill="currentColor"/>
</svg>
