<svg viewBox="0 0 16 12" fill="none" xmlns="http://www.w3.org/2000/svg">
  <path d="M15.2131 7.39769C15.1374 7.67573 15.0264 7.93549 14.7601 8.08039C14.6061 8.16393 14.4364 8.21745 14.2537 8.29185C14.2537 8.73828 14.2602 9.2082 14.2511 9.67812C14.2471 9.88437 14.2315 10.0958 14.1832 10.2956C13.9404 11.2941 13.0593 11.986 12.0346 12.0003C12.015 12.0003 11.9954 12.0003 11.9745 12.0003C8.74121 12.0003 5.50788 12.0003 2.27455 12.0003C1.17415 12.0003 0.272161 11.2746 0.0463372 10.2081C0.015009 10.0593 0.00195557 9.90395 0.00195557 9.75122C0.000650227 7.24888 0.000650227 4.74785 0.00195557 2.24682C0.00326091 1.00283 0.992709 0.00424236 2.23539 0.00293702C5.49353 -0.000979006 8.75166 -0.000979006 12.0098 0.00293702C13.2616 0.00424236 14.238 0.989775 14.2537 2.25335C14.2589 2.68933 14.2537 3.12531 14.2537 3.5613C14.2537 3.61482 14.2537 3.66833 14.2537 3.72838C14.6322 3.7819 14.9324 3.93985 15.0995 4.28837C15.1439 4.38105 15.1752 4.47895 15.2131 4.57555V7.399V7.39769ZM13.43 3.73752C13.43 3.14228 13.4326 2.57446 13.4274 2.00533C13.4274 1.91918 13.3921 1.83041 13.3621 1.74818C13.1467 1.16208 12.6076 0.803111 11.9393 0.803111C8.73077 0.803111 5.52224 0.803111 2.31371 0.803111C2.27847 0.803111 2.24453 0.803111 2.20929 0.804416C1.42086 0.833134 0.80474 1.45448 0.80474 2.2429C0.800824 4.74394 0.80213 7.24497 0.807351 9.746C0.807351 9.90134 0.836069 10.0632 0.885672 10.2107C1.08408 10.8046 1.62058 11.1793 2.27194 11.1793C5.51049 11.1806 8.74774 11.1793 11.9863 11.1793C12.0215 11.1793 12.0555 11.178 12.0907 11.1767C12.7773 11.1479 13.383 10.6075 13.4326 9.92092C13.4718 9.37398 13.4457 8.82313 13.4483 8.27358C13.4483 8.26575 13.4378 8.25791 13.4248 8.23572H13.2577C11.8414 8.23572 10.4251 8.23572 9.01011 8.23572C8.88219 8.23572 8.75166 8.23442 8.62504 8.21614C7.39149 8.04384 6.47645 6.88208 6.79626 5.43446C7.01947 4.42282 7.88883 3.74404 8.93702 3.74013C10.3781 3.7336 11.8192 3.73882 13.259 3.73882C13.3177 3.73882 13.3752 3.73882 13.4313 3.73882L13.43 3.73752ZM11.5151 7.45382C12.3818 7.45382 13.2473 7.45382 14.114 7.45382C14.3529 7.45382 14.4116 7.39508 14.4116 7.15621C14.4116 6.38344 14.4116 5.61068 14.4116 4.83923C14.4116 4.6121 14.3503 4.54944 14.1205 4.54944C12.4079 4.54944 10.694 4.54683 8.9814 4.54944C8.01283 4.55205 7.35755 5.37964 7.5638 6.32862C7.7113 7.0087 8.25954 7.4486 8.97487 7.45252C9.82204 7.45643 10.6679 7.45252 11.5151 7.45252V7.45382Z" fill="currentColor"/>
  <path d="M9.04002 5.34375C9.41857 5.34506 9.68747 5.60482 9.68877 5.9677C9.68877 6.33711 9.39507 6.62951 9.02696 6.62429C8.68235 6.61907 8.39648 6.32798 8.39648 5.98337C8.39648 5.62962 8.68496 5.34375 9.04002 5.34506V5.34375Z" fill="currentColor"/>
</svg>
