<svg viewBox="0 0 17 15" fill="none" xmlns="http://www.w3.org/2000/svg">
  <path d="M8.48139 7.69565H13.1593C13.2237 7.68999 13.2885 7.68999 13.3529 7.69565C13.4277 7.70507 13.4966 7.74148 13.5465 7.79806C13.5964 7.85464 13.624 7.9275 13.624 8.00294C13.624 8.07839 13.5964 8.15125 13.5465 8.20783C13.4966 8.26441 13.4277 8.30082 13.3529 8.31024C13.2949 8.3159 13.2366 8.3159 13.1787 8.31024H3.78088C3.72241 8.31592 3.66353 8.31592 3.60506 8.31024C3.5302 8.30082 3.46135 8.26441 3.41144 8.20783C3.36153 8.15125 3.33398 8.07839 3.33398 8.00294C3.33398 7.9275 3.36153 7.85464 3.41144 7.79806C3.46135 7.74148 3.5302 7.70507 3.60506 7.69565C3.67 7.69002 3.7353 7.69002 3.80024 7.69565H8.48139Z" fill="currentColor"/>
  <path d="M8.48179 10.0439H13.1597C13.2241 10.0374 13.2889 10.0374 13.3533 10.0439C13.4269 10.0546 13.4942 10.0915 13.5429 10.1478C13.5916 10.2041 13.6184 10.276 13.6184 10.3504C13.6184 10.4248 13.5916 10.4967 13.5429 10.553C13.4942 10.6093 13.4269 10.6462 13.3533 10.6569C13.2953 10.6625 13.237 10.6625 13.1791 10.6569H3.78128C3.72281 10.6626 3.66393 10.6626 3.60546 10.6569C3.53182 10.6462 3.4645 10.6093 3.41581 10.553C3.36713 10.4967 3.34033 10.4248 3.34033 10.3504C3.34033 10.276 3.36713 10.2041 3.41581 10.1478C3.4645 10.0915 3.53182 10.0546 3.60546 10.0439C3.67036 10.0374 3.73574 10.0374 3.80064 10.0439H8.48179Z" fill="currentColor"/>
  <path d="M0 3.62047C0.0593526 3.62904 0.119122 3.63443 0.179052 3.6366C1.88139 3.6366 3.58318 3.6366 5.28444 3.6366C5.33864 3.63978 5.39288 3.63103 5.44333 3.61096C5.49377 3.5909 5.5392 3.56 5.57641 3.52046C6.27433 2.81393 6.97709 2.11009 7.6847 1.40894C7.71674 1.38577 7.73994 1.35238 7.7505 1.31427C7.76105 1.27616 7.75833 1.23559 7.74277 1.19924C7.6714 1.01534 7.66444 0.812684 7.72303 0.624323C7.78162 0.435961 7.9023 0.273006 8.06538 0.162031C8.22829 0.0502884 8.42338 -0.00486674 8.62067 0.00504173C8.81797 0.0149502 9.00655 0.089374 9.15744 0.216875C9.30791 0.344438 9.41185 0.518281 9.45301 0.711207C9.49416 0.904133 9.4702 1.10526 9.38488 1.28312L9.34455 1.37023C9.38327 1.41217 9.42359 1.45572 9.46553 1.49766C10.135 2.16225 10.8076 2.82845 11.469 3.5011C11.5106 3.54709 11.5618 3.58346 11.6189 3.60769C11.676 3.63193 11.7377 3.64344 11.7997 3.64144C13.4466 3.64144 15.0936 3.64144 16.7389 3.64144H16.9631V14.991C16.9115 14.991 16.8583 15.0007 16.8018 15.0007H0.132272C0.0887192 15.0007 0.0435531 15.0007 0 15.0007V3.62047ZM16.2388 4.38507H0.740402V14.2555H16.2388V4.38507ZM11.0222 3.62531L9.0542 1.66058C8.90169 1.75727 8.72311 1.80464 8.54273 1.79627C8.36235 1.78791 8.18893 1.72419 8.04603 1.6138L6.03775 3.62531H11.0222Z" fill="currentColor"/>
</svg>
