<svg viewBox="0 0 10 12" fill="none" xmlns="http://www.w3.org/2000/svg">
  <path d="M6.63423 12.0014C6.6087 11.9726 6.58316 11.9426 6.55651 11.9159C5.7349 11.0954 4.91329 10.276 4.09056 9.45664C4.06058 9.42667 4.02172 9.40557 3.9873 9.38114L4.00729 9.34339H5.97583V4.66797H7.30818V9.33673H9.28005L9.30892 9.38336C9.27228 9.40668 9.22898 9.42334 9.199 9.4522C8.3785 10.2683 7.56021 11.0854 6.74082 11.9037C6.71084 11.9337 6.68642 11.9681 6.65866 12.0003H6.63534L6.63423 12.0014Z" fill="currentColor"/>
  <path d="M2.63694 0C3.51184 0.881569 4.38675 1.76314 5.26721 2.65026H3.30533V7.32346H1.97298V2.65359H0C0.88601 1.76203 1.76092 0.881569 2.63694 0Z" fill="currentColor"/>
</svg>
