<svg viewBox="0 0 25 25" fill="none" xmlns="http://www.w3.org/2000/svg">
  <path d="M22.9167 0H2.08333C1.5308 0 1.0009 0.219493 0.610194 0.610194C0.219493 1.0009 0 1.5308 0 2.08333L0 22.9167C0 23.4692 0.219493 23.9991 0.610194 24.3898C1.0009 24.7805 1.5308 25 2.08333 25H22.9167C23.4692 25 23.9991 24.7805 24.3898 24.3898C24.7805 23.9991 25 23.4692 25 22.9167V2.08333C25 1.5308 24.7805 1.0009 24.3898 0.610194C23.9991 0.219493 23.4692 0 22.9167 0V0ZM23.9583 22.9167C23.9583 23.1929 23.8486 23.4579 23.6532 23.6532C23.4579 23.8486 23.1929 23.9583 22.9167 23.9583H2.08333C1.80707 23.9583 1.54211 23.8486 1.34676 23.6532C1.15141 23.4579 1.04167 23.1929 1.04167 22.9167V2.08333C1.04167 1.80707 1.15141 1.54211 1.34676 1.34676C1.54211 1.15141 1.80707 1.04167 2.08333 1.04167H22.9167C23.1929 1.04167 23.4579 1.15141 23.6532 1.34676C23.8486 1.54211 23.9583 1.80707 23.9583 2.08333V22.9167Z" fill="currentColor"/>
  <path d="M6.24935 8.33268C6.66139 8.33268 7.06418 8.2105 7.40679 7.98158C7.74939 7.75266 8.01642 7.42729 8.1741 7.04661C8.33178 6.66593 8.37304 6.24704 8.29265 5.84291C8.21227 5.43878 8.01385 5.06757 7.72249 4.77621C7.43113 4.48485 7.05991 4.28643 6.65579 4.20605C6.25166 4.12566 5.83277 4.16692 5.45209 4.3246C5.07141 4.48228 4.74604 4.74931 4.51712 5.09191C4.2882 5.43451 4.16602 5.83731 4.16602 6.24935C4.16602 6.80188 4.38551 7.33179 4.77621 7.72249C5.16691 8.11319 5.69681 8.33268 6.24935 8.33268ZM6.24935 5.20768C6.45537 5.20768 6.65677 5.26878 6.82807 5.38324C6.99937 5.4977 7.13288 5.66038 7.21172 5.85072C7.29057 6.04106 7.31119 6.25051 7.271 6.45257C7.23081 6.65463 7.1316 6.84024 6.98592 6.98592C6.84024 7.1316 6.65463 7.23081 6.45257 7.271C6.2505 7.31119 6.04106 7.29057 5.85072 7.21172C5.66038 7.13288 5.49769 6.99937 5.38324 6.82807C5.26878 6.65677 5.20768 6.45537 5.20768 6.24935C5.20768 5.97308 5.31743 5.70813 5.51278 5.51278C5.70813 5.31743 5.97308 5.20768 6.24935 5.20768Z" fill="currentColor"/>
  <path d="M6.24935 10.416C5.83731 10.416 5.43451 10.5382 5.09191 10.7671C4.74931 10.996 4.48228 11.3214 4.3246 11.7021C4.16692 12.0828 4.12566 12.5017 4.20605 12.9058C4.28643 13.3099 4.48485 13.6811 4.77621 13.9725C5.06757 14.2638 5.43878 14.4623 5.84291 14.5427C6.24704 14.623 6.66593 14.5818 7.04661 14.4241C7.42729 14.2664 7.75266 13.9994 7.98158 13.6568C8.2105 13.3142 8.33268 12.9114 8.33268 12.4993C8.33268 11.9468 8.11319 11.4169 7.72249 11.0262C7.33179 10.6355 6.80188 10.416 6.24935 10.416ZM6.24935 13.541C6.04333 13.541 5.84193 13.4799 5.67063 13.3655C5.49933 13.251 5.36582 13.0883 5.28698 12.898C5.20813 12.7076 5.18751 12.4982 5.2277 12.2961C5.26789 12.0941 5.3671 11.9085 5.51278 11.7628C5.65846 11.6171 5.84407 11.5179 6.04613 11.4777C6.24819 11.4375 6.45764 11.4581 6.64798 11.537C6.83832 11.6158 7.001 11.7493 7.11546 11.9206C7.22992 12.0919 7.29102 12.2933 7.29102 12.4993C7.29102 12.7756 7.18127 13.0406 6.98592 13.2359C6.79057 13.4313 6.52562 13.541 6.24935 13.541Z" fill="currentColor"/>
  <path d="M6.24935 16.666C5.83731 16.666 5.43451 16.7882 5.09191 17.0171C4.74931 17.246 4.48228 17.5714 4.3246 17.9521C4.16692 18.3328 4.12566 18.7517 4.20605 19.1558C4.28643 19.5599 4.48485 19.9311 4.77621 20.2225C5.06757 20.5138 5.43878 20.7123 5.84291 20.7927C6.24704 20.873 6.66593 20.8318 7.04661 20.6741C7.42729 20.5164 7.75266 20.2494 7.98158 19.9068C8.2105 19.5642 8.33268 19.1614 8.33268 18.7494C8.33268 18.1968 8.11319 17.6669 7.72249 17.2762C7.33179 16.8855 6.80188 16.666 6.24935 16.666ZM6.24935 19.791C6.04333 19.791 5.84193 19.7299 5.67063 19.6155C5.49933 19.501 5.36582 19.3383 5.28698 19.148C5.20813 18.9576 5.18751 18.7482 5.2277 18.5461C5.26789 18.3441 5.3671 18.1585 5.51278 18.0128C5.65846 17.8671 5.84407 17.7679 6.04613 17.7277C6.24819 17.6875 6.45764 17.7081 6.64798 17.787C6.83832 17.8658 7.001 17.9993 7.11546 18.1706C7.22992 18.3419 7.29102 18.5433 7.29102 18.7494C7.29102 19.0256 7.18127 19.2906 6.98592 19.4859C6.79057 19.6813 6.52562 19.791 6.24935 19.791Z" fill="currentColor"/>
  <path d="M18.7494 8.33268C19.1614 8.33268 19.5642 8.2105 19.9068 7.98158C20.2494 7.75266 20.5164 7.42729 20.6741 7.04661C20.8318 6.66593 20.873 6.24704 20.7927 5.84291C20.7123 5.43878 20.5138 5.06757 20.2225 4.77621C19.9311 4.48485 19.5599 4.28643 19.1558 4.20605C18.7517 4.12566 18.3328 4.16692 17.9521 4.3246C17.5714 4.48228 17.246 4.74931 17.0171 5.09191C16.7882 5.43451 16.666 5.83731 16.666 6.24935C16.666 6.80188 16.8855 7.33179 17.2762 7.72249C17.6669 8.11319 18.1968 8.33268 18.7494 8.33268ZM18.7494 5.20768C18.9554 5.20768 19.1568 5.26878 19.3281 5.38324C19.4994 5.4977 19.6329 5.66038 19.7117 5.85072C19.7906 6.04106 19.8112 6.25051 19.771 6.45257C19.7308 6.65463 19.6316 6.84024 19.4859 6.98592C19.3402 7.1316 19.1546 7.23081 18.9526 7.271C18.7505 7.31119 18.5411 7.29057 18.3507 7.21172C18.1604 7.13288 17.9977 6.99937 17.8832 6.82807C17.7688 6.65677 17.7077 6.45537 17.7077 6.24935C17.7077 5.97308 17.8174 5.70813 18.0128 5.51278C18.2081 5.31743 18.4731 5.20768 18.7494 5.20768Z" fill="currentColor"/>
  <path d="M18.7494 10.416C18.3373 10.416 17.9345 10.5382 17.5919 10.7671C17.2493 10.996 16.9823 11.3214 16.8246 11.7021C16.6669 12.0828 16.6257 12.5017 16.706 12.9058C16.7864 13.3099 16.9849 13.6811 17.2762 13.9725C17.5676 14.2638 17.9388 14.4623 18.3429 14.5427C18.747 14.623 19.1659 14.5818 19.5466 14.4241C19.9273 14.2664 20.2527 13.9994 20.4816 13.6568C20.7105 13.3142 20.8327 12.9114 20.8327 12.4993C20.8327 11.9468 20.6132 11.4169 20.2225 11.0262C19.8318 10.6355 19.3019 10.416 18.7494 10.416ZM18.7494 13.541C18.5433 13.541 18.3419 13.4799 18.1706 13.3655C17.9993 13.251 17.8658 13.0883 17.787 12.898C17.7081 12.7076 17.6875 12.4982 17.7277 12.2961C17.7679 12.0941 17.8671 11.9085 18.0128 11.7628C18.1585 11.6171 18.3441 11.5179 18.5461 11.4777C18.7482 11.4375 18.9576 11.4581 19.148 11.537C19.3383 11.6158 19.501 11.7493 19.6155 11.9206C19.7299 12.0919 19.791 12.2933 19.791 12.4993C19.791 12.7756 19.6813 13.0406 19.4859 13.2359C19.2906 13.4313 19.0256 13.541 18.7494 13.541Z" fill="currentColor"/>
  <path d="M18.7494 16.666C18.3373 16.666 17.9345 16.7882 17.5919 17.0171C17.2493 17.246 16.9823 17.5714 16.8246 17.9521C16.6669 18.3328 16.6257 18.7517 16.706 19.1558C16.7864 19.5599 16.9849 19.9311 17.2762 20.2225C17.5676 20.5138 17.9388 20.7123 18.3429 20.7927C18.747 20.873 19.1659 20.8318 19.5466 20.6741C19.9273 20.5164 20.2527 20.2494 20.4816 19.9068C20.7105 19.5642 20.8327 19.1614 20.8327 18.7494C20.8327 18.1968 20.6132 17.6669 20.2225 17.2762C19.8318 16.8855 19.3019 16.666 18.7494 16.666ZM18.7494 19.791C18.5433 19.791 18.3419 19.7299 18.1706 19.6155C17.9993 19.501 17.8658 19.3383 17.787 19.148C17.7081 18.9576 17.6875 18.7482 17.7277 18.5461C17.7679 18.3441 17.8671 18.1585 18.0128 18.0128C18.1585 17.8671 18.3441 17.7679 18.5461 17.7277C18.7482 17.6875 18.9576 17.7081 19.148 17.787C19.3383 17.8658 19.501 17.9993 19.6155 18.1706C19.7299 18.3419 19.791 18.5433 19.791 18.7494C19.791 19.0256 19.6813 19.2906 19.4859 19.4859C19.2906 19.6813 19.0256 19.791 18.7494 19.791Z" fill="currentColor"/>
  <path d="M12.4993 8.33268C12.9114 8.33268 13.3142 8.2105 13.6568 7.98158C13.9994 7.75266 14.2664 7.42729 14.4241 7.04661C14.5818 6.66593 14.623 6.24704 14.5427 5.84291C14.4623 5.43878 14.2638 5.06757 13.9725 4.77621C13.6811 4.48485 13.3099 4.28643 12.9058 4.20605C12.5017 4.12566 12.0828 4.16692 11.7021 4.3246C11.3214 4.48228 10.996 4.74931 10.7671 5.09191C10.5382 5.43451 10.416 5.83731 10.416 6.24935C10.416 6.80188 10.6355 7.33179 11.0262 7.72249C11.4169 8.11319 11.9468 8.33268 12.4993 8.33268ZM12.4993 5.20768C12.7054 5.20768 12.9068 5.26878 13.0781 5.38324C13.2494 5.4977 13.3829 5.66038 13.4617 5.85072C13.5406 6.04106 13.5612 6.25051 13.521 6.45257C13.4808 6.65463 13.3816 6.84024 13.2359 6.98592C13.0902 7.1316 12.9046 7.23081 12.7026 7.271C12.5005 7.31119 12.2911 7.29057 12.1007 7.21172C11.9104 7.13288 11.7477 6.99937 11.6332 6.82807C11.5188 6.65677 11.4577 6.45537 11.4577 6.24935C11.4577 5.97308 11.5674 5.70813 11.7628 5.51278C11.9581 5.31743 12.2231 5.20768 12.4993 5.20768Z" fill="currentColor"/>
  <path d="M12.4994 10.416C12.0873 10.416 11.6845 10.5382 11.3419 10.7671C10.9993 10.996 10.7323 11.3214 10.5746 11.7021C10.4169 12.0828 10.3757 12.5017 10.456 12.9058C10.5364 13.3099 10.7349 13.6811 11.0262 13.9725C11.3176 14.2638 11.6888 14.4623 12.0929 14.5427C12.497 14.623 12.9159 14.5818 13.2966 14.4241C13.6773 14.2664 14.0027 13.9994 14.2316 13.6568C14.4605 13.3142 14.5827 12.9114 14.5827 12.4993C14.5827 11.9468 14.3632 11.4169 13.9725 11.0262C13.5818 10.6355 13.0519 10.416 12.4994 10.416ZM12.4994 13.541C12.2933 13.541 12.0919 13.4799 11.9206 13.3655C11.7493 13.251 11.6158 13.0883 11.537 12.898C11.4581 12.7076 11.4375 12.4982 11.4777 12.2961C11.5179 12.0941 11.6171 11.9085 11.7628 11.7628C11.9085 11.6171 12.0941 11.5179 12.2961 11.4777C12.4982 11.4375 12.7076 11.4581 12.898 11.537C13.0883 11.6158 13.251 11.7493 13.3655 11.9206C13.4799 12.0919 13.541 12.2933 13.541 12.4993C13.541 12.7756 13.4313 13.0406 13.2359 13.2359C13.0406 13.4313 12.7756 13.541 12.4994 13.541Z" fill="currentColor"/>
  <path d="M12.4994 16.666C12.0873 16.666 11.6845 16.7882 11.3419 17.0171C10.9993 17.246 10.7323 17.5714 10.5746 17.9521C10.4169 18.3328 10.3757 18.7517 10.456 19.1558C10.5364 19.5599 10.7349 19.9311 11.0262 20.2225C11.3176 20.5138 11.6888 20.7123 12.0929 20.7927C12.497 20.873 12.9159 20.8318 13.2966 20.6741C13.6773 20.5164 14.0027 20.2494 14.2316 19.9068C14.4605 19.5642 14.5827 19.1614 14.5827 18.7494C14.5827 18.1968 14.3632 17.6669 13.9725 17.2762C13.5818 16.8855 13.0519 16.666 12.4994 16.666ZM12.4994 19.791C12.2933 19.791 12.0919 19.7299 11.9206 19.6155C11.7493 19.501 11.6158 19.3383 11.537 19.148C11.4581 18.9576 11.4375 18.7482 11.4777 18.5461C11.5179 18.3441 11.6171 18.1585 11.7628 18.0128C11.9085 17.8671 12.0941 17.7679 12.2961 17.7277C12.4982 17.6875 12.7076 17.7081 12.898 17.787C13.0883 17.8658 13.251 17.9993 13.3655 18.1706C13.4799 18.3419 13.541 18.5433 13.541 18.7494C13.541 19.0256 13.4313 19.2906 13.2359 19.4859C13.0406 19.6813 12.7756 19.791 12.4994 19.791Z" fill="currentColor"/>
  <path d="M22.9167 0H2.08333C1.5308 0 1.0009 0.219493 0.610194 0.610194C0.219493 1.0009 0 1.5308 0 2.08333L0 22.9167C0 23.4692 0.219493 23.9991 0.610194 24.3898C1.0009 24.7805 1.5308 25 2.08333 25H22.9167C23.4692 25 23.9991 24.7805 24.3898 24.3898C24.7805 23.9991 25 23.4692 25 22.9167V2.08333C25 1.5308 24.7805 1.0009 24.3898 0.610194C23.9991 0.219493 23.4692 0 22.9167 0V0ZM23.9583 22.9167C23.9583 23.1929 23.8486 23.4579 23.6532 23.6532C23.4579 23.8486 23.1929 23.9583 22.9167 23.9583H2.08333C1.80707 23.9583 1.54211 23.8486 1.34676 23.6532C1.15141 23.4579 1.04167 23.1929 1.04167 22.9167V2.08333C1.04167 1.80707 1.15141 1.54211 1.34676 1.34676C1.54211 1.15141 1.80707 1.04167 2.08333 1.04167H22.9167C23.1929 1.04167 23.4579 1.15141 23.6532 1.34676C23.8486 1.54211 23.9583 1.80707 23.9583 2.08333V22.9167Z" fill="currentColor"/>
</svg>
