<svg viewBox="0 0 14 12" fill="none" xmlns="http://www.w3.org/2000/svg">
  <path d="M6.94296 11.9988C4.78293 11.9988 2.6217 11.9988 0.461677 11.9988C0.098444 11.9988 0.00158195 11.9032 0.00158195 11.546C0.00158195 10.8946 0.00158195 10.2432 0.00158195 9.59179C0.00158195 9.24914 0.0960225 9.15833 0.443515 9.1547C0.660244 9.15228 0.879394 9.16196 1.0937 9.13533C1.58407 9.07358 1.91703 8.64981 1.89281 8.1437C1.87102 7.67029 1.48115 7.28284 1.00047 7.26347C0.793429 7.25499 0.586387 7.26226 0.379344 7.25984C0.126292 7.2562 0.00279273 7.13876 0.00279273 6.88813C0.000371175 6.18709 0.000371175 5.48726 0.00279273 4.78622C0.00279273 4.53196 0.120238 4.41815 0.378133 4.41815C1.0489 4.41693 1.71967 4.41451 2.39044 4.42057C2.50426 4.42057 2.57206 4.38182 2.63381 4.29343C2.95951 3.83213 2.79242 3.16862 2.27784 2.91799C2.09259 2.8284 1.89645 2.75696 1.70514 2.67947C1.43393 2.56929 1.37097 2.42642 1.47994 2.15884C1.73783 1.53044 1.99573 0.900842 2.25484 0.272449C2.36865 -0.00239698 2.51031 -0.0593034 2.79121 0.056931C4.87132 0.91416 6.95264 1.77018 9.03276 2.62862C10.4348 3.20616 11.8357 3.78612 13.2402 4.36124C13.3371 4.40119 13.4485 4.41209 13.555 4.41936C13.7729 4.43388 13.8977 4.54286 13.8989 4.76201C13.9025 5.48242 13.9037 6.20283 13.8989 6.92324C13.8977 7.13876 13.7705 7.25741 13.5514 7.26347C13.3589 7.26831 13.1663 7.26347 12.9738 7.26589C12.4229 7.27436 12.0149 7.66787 12.0076 8.19455C12.0004 8.72972 12.4036 9.14138 12.9569 9.15954C13.1542 9.1656 13.3516 9.15954 13.5489 9.16196C13.7766 9.1656 13.8989 9.28062 13.9001 9.50946C13.9037 10.2202 13.9037 10.9309 13.9001 11.6404C13.9001 11.8862 13.7717 12.0024 13.5138 12.0024C12.6954 12.0037 11.8757 12.0024 11.0572 12.0024C9.68536 12.0024 8.31477 12.0024 6.94296 12.0024V11.9988ZM13.2572 9.78309C13.1167 9.78309 12.9944 9.78794 12.8709 9.78309C11.9846 9.74798 11.2884 8.94524 11.3805 8.06379C11.4664 7.22714 12.119 6.64113 12.9811 6.62539C13.0719 6.62418 13.1639 6.62539 13.2523 6.62539V5.05743H0.646925V6.6266C1.12397 6.60481 1.57075 6.66898 1.94609 6.98257C2.32385 7.29858 2.52121 7.7054 2.52847 8.19577C2.53452 8.57837 2.40981 8.92344 2.16161 9.21766C1.76568 9.68865 1.24021 9.82789 0.646925 9.78309V11.351H13.2572V9.7843V9.78309ZM11.6359 4.41088L11.6432 4.38545C8.68405 3.16741 5.72492 1.94816 2.7561 0.724068C2.65197 0.974699 2.55269 1.21443 2.4534 1.45538C2.35533 1.69511 2.25726 1.93605 2.15313 2.19153C2.62897 2.34045 3.01641 2.58987 3.24404 3.03423C3.47288 3.481 3.47893 3.93989 3.28884 4.41088H11.6359V4.41088Z" fill="currentColor"/>
  <path d="M5.98766 10.103C5.39559 10.103 4.80473 10.103 4.21267 10.103C4.14486 10.103 4.07343 10.0982 4.00804 10.08C3.87728 10.0437 3.78405 9.91169 3.79253 9.7773C3.80221 9.63684 3.87002 9.53151 4.00804 9.49034C4.07706 9.46976 4.15334 9.46733 4.22719 9.46733C5.41012 9.46612 6.59305 9.46733 7.77598 9.46733C8.05567 9.46733 8.2058 9.57509 8.21065 9.77851C8.21549 9.98676 8.0593 10.1042 7.77477 10.1042C7.17785 10.1042 6.58215 10.1042 5.98524 10.1042L5.98766 10.103Z" fill="currentColor"/>
  <path d="M6.00624 6.31465C6.59225 6.31465 7.17948 6.31465 7.7655 6.31465C7.81514 6.31465 7.86478 6.31344 7.91321 6.31707C8.08514 6.33039 8.21106 6.45873 8.21348 6.62339C8.2159 6.78564 8.09241 6.92367 7.92411 6.94183C7.88052 6.94667 7.83572 6.94425 7.79092 6.94425C6.59831 6.94425 5.40569 6.94425 4.21308 6.94425C4.17312 6.94425 4.13438 6.94546 4.09442 6.94304C3.91644 6.9273 3.7881 6.78806 3.79415 6.61976C3.8002 6.45631 3.92613 6.32191 4.09806 6.31949C4.51698 6.31344 4.93591 6.31586 5.35484 6.31586C5.57157 6.31586 5.7883 6.31586 6.00503 6.31586L6.00624 6.31465Z" fill="currentColor"/>
  <path d="M5.99484 8.51955C5.37856 8.51955 4.76228 8.52198 4.14599 8.51955C3.88446 8.51834 3.72706 8.31009 3.81787 8.09094C3.8772 7.94686 3.99585 7.89116 4.14841 7.89116C4.61214 7.89237 5.07466 7.89116 5.53838 7.89116C6.31207 7.89116 7.08575 7.88995 7.85944 7.89116C8.12339 7.89116 8.28442 8.11637 8.18272 8.33552C8.11612 8.47839 7.99262 8.52076 7.84249 8.52076C7.2262 8.51834 6.60992 8.52076 5.99363 8.52076L5.99484 8.51955Z" fill="currentColor"/>
  <path d="M10.1095 6.32148C10.1095 6.42439 10.1156 6.52852 10.1083 6.63144C10.0938 6.8179 9.96423 6.94018 9.79472 6.94139C9.62642 6.94139 9.4884 6.8179 9.47992 6.63386C9.47023 6.41713 9.47023 6.2004 9.47992 5.98367C9.48961 5.80205 9.63248 5.67613 9.79957 5.67976C9.96181 5.6834 10.0914 5.80569 10.1071 5.98125C10.1168 6.09385 10.1083 6.20766 10.1083 6.32148H10.1095Z" fill="currentColor"/>
  <path d="M9.47502 8.20585C9.47502 8.10293 9.46897 7.99881 9.47623 7.89589C9.48834 7.70459 9.62395 7.57261 9.79709 7.57625C9.96417 7.57867 10.0986 7.70701 10.107 7.89105C10.1155 8.10293 10.1167 8.31482 10.107 8.52671C10.0986 8.71317 9.96539 8.83667 9.79588 8.83788C9.62152 8.83909 9.48955 8.70953 9.47744 8.51702C9.47139 8.4141 9.47744 8.30998 9.47744 8.20706L9.47502 8.20585Z" fill="currentColor"/>
  <path d="M9.476 10.098C9.476 9.9951 9.46994 9.89097 9.47721 9.78805C9.48932 9.60281 9.61766 9.47568 9.78596 9.47083C9.95789 9.46599 10.0995 9.59796 10.108 9.78927C10.1165 10.0012 10.1177 10.213 10.108 10.4249C10.0995 10.6102 9.96273 10.7337 9.79322 10.7337C9.62371 10.7337 9.49295 10.609 9.47963 10.4237C9.47115 10.316 9.47842 10.207 9.47842 10.098H9.476Z" fill="currentColor"/>
</svg>
