<svg viewBox="0 0 15 15" fill="none" xmlns="http://www.w3.org/2000/svg">
  <path d="M13.7855 11.6641L3.43956 1.31823C2.86817 0.74684 1.93009 0.758512 1.34431 1.3443C0.758522 1.93008 0.74685 2.86816 1.31824 3.43955L11.6641 13.7855C12.2355 14.3568 13.1736 14.3452 13.7594 13.7594C14.3452 13.1736 14.3569 12.2355 13.7855 11.6641Z" fill="currentColor"/>
  <path d="M11.7428 1.27804L1.27688 11.7439C0.69886 12.322 0.705159 13.2654 1.29095 13.8512C1.87673 14.437 2.82018 14.4433 3.3982 13.8653L13.8641 3.39936C14.4421 2.82134 14.4358 1.8779 13.85 1.29211C13.2642 0.706326 12.3208 0.700024 11.7428 1.27804Z" fill="currentColor"/>
</svg>
