<svg viewBox="0 0 16 16" fill="white" xmlns="http://www.w3.org/2000/svg">
  <path d="M5.19477 2.33142H2.29209V0.101562H5.19477V2.33142ZM5.1936 6.87919H2.29209V10.6496V13.5523H5.1936H9.20358V10.6496H5.1936V6.87919ZM13.7525 13.5523H15.656V10.6496H13.7525V13.5523ZM6.01673 3.15455H3.11522H1.94921V6.05606H3.11522H10.015L10.0291 9.8265V12.7257V14.1336H12.9294V12.7257V9.8265V6.05606V3.15455H10.0291H6.01673ZM15.4105 0.168493L12.8719 2.70482L13.4613 3.29428L16 0.756781L15.4105 0.168493ZM6.00616 9.4895L6.59328 10.0778L9.54646 7.12461L8.95934 6.53632L6.00616 9.4895ZM0 15.3113L0.587113 15.8984L2.29209 14.1946L1.70498 13.6075L0 15.3113Z" fill="currentColor"/>
</svg>
