<svg viewBox="0 0 16 16" fill="none" xmlns="http://www.w3.org/2000/svg">
  <path d="M9.96924 8C9.96924 8.19043 9.93347 8.37097 9.88281 8.54529L11.6997 9.59424C11.9116 9.10474 12.0315 8.56653 12.0315 8C12.0315 7.43347 11.9116 6.89526 11.6997 6.40576L9.88281 7.45471C9.93347 7.62903 9.96924 7.80957 9.96924 8Z" fill="currentColor"/>
  <path d="M6.03088 8C6.03088 7.80957 6.06665 7.62903 6.11731 7.45471L4.30042 6.40576C4.08862 6.89526 3.96875 7.43347 3.96875 8C3.96875 8.56653 4.08862 9.10474 4.30042 9.59424L6.11731 8.54529C6.06665 8.37097 6.03088 8.19043 6.03088 8Z" fill="currentColor"/>
  <path d="M11.2197 5.59985C10.5736 4.73547 9.59375 4.1488 8.46875 4.01636V6.09375C8.83655 6.18433 9.1637 6.37524 9.41797 6.64026L11.2197 5.59985Z" fill="currentColor"/>
  <path d="M6.96875 8C6.96875 8.56848 7.43164 9.03137 8.00012 9.03137C8.5686 9.03137 9.03149 8.56848 9.03149 8C9.03149 7.43152 8.5686 6.96863 8.00012 6.96863C7.43164 6.96863 6.96875 7.43152 6.96875 8Z" fill="currentColor"/>
  <path d="M8.46875 9.90625V11.9836C9.59375 11.8512 10.5736 11.2645 11.2197 10.4001L9.41797 9.35974C9.1637 9.62476 8.83655 9.81567 8.46875 9.90625Z" fill="currentColor"/>
  <path d="M8 16C12.394 16 16 12.394 16 8C16 3.60596 12.394 0 8 0C3.60596 0 0 3.60596 0 8C0 12.394 3.60596 16 8 16ZM8 3.03149C10.7971 3.03149 12.9685 5.37585 12.9685 8C12.9685 10.6254 10.7955 12.9685 8 12.9685C5.19971 12.9685 3.03149 10.618 3.03149 8C3.03149 5.33606 5.23474 3.03149 8 3.03149Z" fill="currentColor"/>
  <path d="M4.78125 10.4001C5.42737 11.2645 6.40723 11.8512 7.53223 11.9836V9.90625C7.16443 9.81567 6.83728 9.62476 6.58301 9.35974L4.78125 10.4001Z" fill="currentColor"/>
  <path d="M7.53223 6.09375V4.01636C6.40723 4.1488 5.42737 4.73547 4.78125 5.59985L6.58301 6.64026C6.83728 6.37524 7.16443 6.18433 7.53223 6.09375Z" fill="currentColor"/>
</svg>
