<svg viewBox="0 0 16 15" fill="none" xmlns="http://www.w3.org/2000/svg">
  <path d="M6.97979 12.484C7.03326 12.279 7.08928 12.074 7.13893 11.8678C7.29807 11.2223 7.45339 10.5743 7.61763 9.9301C7.638 9.85116 7.68383 9.76841 7.74239 9.71112C9.37836 8.07006 11.0182 6.43154 12.6579 4.79302C12.8947 4.5575 13.1736 4.46965 13.4918 4.58678C13.6013 4.62752 13.7083 4.70009 13.7936 4.78284C14.2086 5.18769 14.6186 5.59891 15.026 6.01141C15.3544 6.34369 15.3544 6.80584 15.0234 7.13685C13.3773 8.78428 11.7311 10.4304 10.0811 12.074C10.0238 12.1313 9.93727 12.1708 9.85706 12.1912C9.02571 12.4 8.19435 12.6024 7.36173 12.8074C7.34645 12.8112 7.33245 12.8188 7.31844 12.8252H7.18858C7.088 12.7857 7.01798 12.7144 6.97852 12.6151V12.4853L6.97979 12.484ZM12.374 5.8841C11.0194 7.2387 9.661 8.5984 8.31785 9.94156C8.83219 10.4559 9.35545 10.9792 9.86979 11.4922C11.218 10.144 12.5765 8.78683 13.9273 7.43604C13.4091 6.91788 12.8846 6.39335 12.374 5.8841ZM14.3525 7.03628C14.4365 6.95098 14.5256 6.86058 14.6147 6.77147C14.7637 6.62251 14.7637 6.51939 14.6173 6.37298C14.2226 5.97831 13.8279 5.58364 13.4333 5.18897C13.4129 5.1686 13.3913 5.14695 13.3683 5.12913C13.2856 5.06547 13.1761 5.05911 13.101 5.12913C12.9864 5.2348 12.882 5.35065 12.7763 5.46014C13.2983 5.98213 13.8229 6.50666 14.3525 7.03628ZM9.29052 11.7672C8.87166 11.3484 8.45153 10.9282 8.03521 10.5119C7.96519 10.7996 7.89008 11.1026 7.81878 11.4069C7.81369 11.4298 7.82515 11.4655 7.8417 11.482C7.99956 11.6437 8.15998 11.8041 8.32167 11.9633C8.33694 11.9773 8.36495 11.9926 8.38278 11.9887C8.69087 11.9149 8.99897 11.8385 9.29052 11.7672Z" fill="currentColor"/>
  <path d="M7.34554 12.9516H7.16603L7.14311 12.9427C7.00943 12.8905 6.91522 12.795 6.86047 12.6613L6.85156 12.6384L6.85538 12.4526L6.90503 12.2616C6.94195 12.1215 6.97888 11.9802 7.01452 11.8389C7.06672 11.6263 7.11892 11.4137 7.17112 11.2011C7.27679 10.7669 7.38373 10.3328 7.49322 9.89993C7.51868 9.79936 7.57725 9.69496 7.65109 9.62112C9.20303 8.06408 10.7588 6.50959 12.3133 4.95638L12.5666 4.70302C12.8505 4.42039 13.1854 4.33891 13.5355 4.46749C13.6564 4.51205 13.7799 4.59099 13.8818 4.69156C14.3083 5.10788 14.7271 5.52928 15.1154 5.92141C15.4961 6.30716 15.4948 6.84315 15.1129 7.22636C13.4667 8.87379 11.8206 10.5212 10.1706 12.1648C10.0777 12.2565 9.95418 12.2985 9.88797 12.3151C9.26796 12.4704 8.64795 12.6232 8.02666 12.7759L7.34426 12.9529L7.34554 12.9516ZM7.21695 12.697H7.29334C7.30862 12.6906 7.32007 12.6855 7.3328 12.683L7.9681 12.5264C8.58811 12.3736 9.20812 12.2221 9.82814 12.0668C9.89434 12.0502 9.958 12.0184 9.99237 11.9828C11.6423 10.3392 13.2885 8.69301 14.9334 7.04558C15.2147 6.76422 15.216 6.38355 14.9347 6.09964C14.5464 5.70752 14.1288 5.28739 13.7035 4.87235C13.6272 4.79851 13.5342 4.7374 13.4476 4.70557C13.1905 4.61136 12.9613 4.66865 12.7474 4.88253L12.4941 5.13589C10.9396 6.69038 9.38509 8.24359 7.83187 9.80063C7.78986 9.84264 7.75548 9.90375 7.74021 9.96104C7.63072 10.3939 7.52505 10.8268 7.41938 11.2596C7.36718 11.4722 7.31498 11.6849 7.26278 11.8975C7.22714 12.0401 7.19021 12.1827 7.15329 12.324L7.10746 12.4984V12.585C7.13165 12.6359 7.1673 12.6703 7.21695 12.6945V12.697ZM8.37677 12.1177C8.31821 12.1177 8.26473 12.0859 8.23291 12.0553C8.07122 11.8962 7.90953 11.7345 7.75039 11.5728C7.70201 11.5232 7.6791 11.4442 7.69437 11.3793C7.75166 11.1387 7.81023 10.8981 7.86752 10.6638L7.96555 10.2628L9.54041 11.8376L9.15847 11.9318C8.91658 11.9917 8.6645 12.0541 8.41242 12.1139C8.39969 12.1165 8.38823 12.1177 8.37677 12.1177ZM7.949 11.4111C8.09541 11.5614 8.24437 11.709 8.39332 11.8567C8.61103 11.8045 8.82873 11.7511 9.04007 11.6989L8.10432 10.7631C8.05212 10.9745 7.99992 11.1922 7.94773 11.4099L7.949 11.4111ZM9.86888 11.6721L8.13742 9.94067L12.3731 5.7037L14.1058 7.43643L9.8676 11.6721H9.86888ZM8.49772 9.94067L9.86888 11.3118L13.7468 7.43643L12.3744 6.064L8.49772 9.94067ZM14.3528 7.21618L12.5972 5.46053L12.685 5.37014C12.7156 5.33831 12.7461 5.30649 12.7767 5.27338C12.8518 5.19445 12.9295 5.11297 13.0135 5.03531C13.1319 4.92582 13.3089 4.922 13.4451 5.0264C13.4731 5.04804 13.4973 5.07223 13.5228 5.09642L14.7068 6.28043C14.9028 6.47649 14.9028 6.66109 14.7042 6.8597L14.3528 7.21491V7.21618ZM12.9537 5.45799L14.3516 6.85588L14.5247 6.68146C14.624 6.58216 14.624 6.55924 14.5273 6.46249L13.3432 5.27848C13.3254 5.26065 13.3089 5.2441 13.291 5.2301C13.2809 5.22246 13.2274 5.18554 13.1879 5.22373C13.1103 5.2963 13.0351 5.37523 12.9626 5.45162L12.9549 5.45926L12.9537 5.45799Z" fill="currentColor"/>
  <path d="M10.5402 12.0553V14.1114H0.89119V0.884824H7.0264V4.39484H10.5402V5.63232H11.4276C11.4276 5.06069 11.4276 4.48778 11.4276 3.91614C11.4276 3.81557 11.4009 3.74554 11.3283 3.67298C10.1354 2.48387 8.94373 1.2935 7.7559 0.100577C7.68588 0.029282 7.61585 0 7.51528 0C5.06451 0.00254626 2.61373 0.00254626 0.16296 0.00254626H0V15H11.4263C11.4263 14.0184 11.4263 13.0368 11.4263 12.0553H10.5402ZM7.91759 1.56213C8.56434 2.20888 9.21745 2.86199 9.86165 3.5062H7.91759V1.56213Z" fill="currentColor"/>
  <path d="M8.02935 6.72852H3.39771C3.15864 6.72852 2.96484 6.92232 2.96484 7.16138C2.96484 7.40044 3.15864 7.59424 3.39771 7.59424H8.02935C8.26841 7.59424 8.46221 7.40044 8.46221 7.16138C8.46221 6.92232 8.26841 6.72852 8.02935 6.72852Z" fill="currentColor"/>
  <path d="M5.96883 9.77344H3.39966C3.1606 9.77344 2.9668 9.96724 2.9668 10.2063C2.9668 10.4454 3.1606 10.6392 3.39966 10.6392H5.96883C6.2079 10.6392 6.4017 10.4454 6.4017 10.2063C6.4017 9.96724 6.2079 9.77344 5.96883 9.77344Z" fill="currentColor"/>
</svg>
