<svg width="15" height="12" viewBox="0 0 15 12" fill="none" xmlns="http://www.w3.org/2000/svg">
  <path d="M3.27992 9.48695C2.8884 9.09542 2.49688 8.7039 2.10536 8.31238C2.04806 8.21211 2.04329 8.10229 2.04806 7.99247C2.07671 6.63647 2.07671 5.28046 2.04806 3.92446C2.04806 3.81464 2.04806 3.70482 2.10536 3.60456C2.30589 3.35627 2.5303 3.13186 2.77381 2.9361C3.07461 3.24646 2.95525 3.63798 2.9839 4.00563C2.99822 4.18706 2.9839 4.36373 2.95525 4.54516C2.74516 4.77435 2.5303 4.99876 2.27725 5.27091C2.52553 5.28524 2.73561 5.29479 2.94092 5.30911C3.14146 5.74838 3.14146 6.18288 2.94092 6.62214H2.24382C2.65922 7.05664 3.01254 7.42429 3.36587 7.79671C3.44226 8.36967 3.49479 8.93786 3.27515 9.49649L3.27992 9.48695Z" fill="currentColor"/>
  <path d="M2.10499 3.60456C2.17661 3.82897 2.19571 4.06292 2.19571 4.29688C2.19094 5.40461 2.19094 6.51233 2.19571 7.62005C2.19571 7.85878 2.17661 8.08797 2.10499 8.31238C1.77554 8.03067 1.46519 7.72032 1.18348 7.39087C1.09754 7.22853 1.05457 7.05664 1.05457 6.87043C1.05457 6.25927 1.05457 5.64811 1.05457 5.03696C1.05457 4.85074 1.09754 4.67886 1.18348 4.51652C1.46519 4.18707 1.77554 3.88149 2.10499 3.59501V3.60456Z" fill="currentColor"/>
  <path d="M4.79907 9.21956C5.37203 9.78298 5.94976 10.3368 6.51317 10.9098C6.71848 11.1151 6.68028 11.5639 6.47497 11.7692C6.17894 12.0605 5.84472 12.0796 5.57256 11.8074C5.24788 11.4875 4.93753 11.1533 4.61763 10.8286C4.51259 10.3655 4.58421 9.90234 4.60808 9.43442C4.61285 9.33416 4.64628 9.20524 4.79907 9.21956Z" fill="currentColor"/>
  <path d="M4.79926 9.21956C4.63692 9.3628 4.71809 9.55379 4.70854 9.72568C4.68944 10.0933 4.75151 10.4705 4.61782 10.8286C4.1499 10.4085 3.70108 9.95964 3.28091 9.49172C3.30479 8.92353 3.22839 8.35535 3.37163 7.79194C3.87297 8.24553 4.35044 8.723 4.79926 9.21956Z" fill="currentColor"/>
  <path d="M4.95112 0.758855C5.14211 0.558319 5.32355 0.353008 5.52408 0.162021C5.75804 -0.062388 6.28326 -0.048064 6.49334 0.171571C6.71775 0.400755 6.69388 0.835249 6.43605 1.09308C5.9729 1.55145 5.50976 2.00027 5.04184 2.45864C4.74581 1.90477 4.75059 1.34136 4.95112 0.758855Z" fill="currentColor"/>
  <path d="M4.95111 0.758854C4.94634 1.32704 4.95111 1.89522 5.04183 2.45864C4.65031 2.8979 4.23491 3.31807 3.79087 3.7096C3.6333 3.71915 3.60466 3.59501 3.59988 3.49474C3.57601 3.0316 3.50916 2.56368 3.60943 2.10531C4.03438 1.63262 4.47842 1.18857 4.95111 0.763629V0.758854Z" fill="currentColor"/>
  <path d="M7.13404 5.30434C7.72133 5.30434 8.30861 5.30434 8.89112 5.30434C9.09166 5.74361 9.09166 6.1781 8.89112 6.61737C8.30384 6.61737 7.71655 6.61737 7.13404 6.61737C6.93351 6.1781 6.93351 5.74361 7.13404 5.30434Z" fill="currentColor"/>
  <path d="M11.9081 6.61737C11.3494 6.61737 10.7908 6.61737 10.2322 6.61737C10.0316 6.1781 10.0316 5.74361 10.2322 5.30434C10.7908 5.30434 11.3494 5.30434 11.9081 5.30434C12.1086 5.74361 12.1086 6.1781 11.9081 6.61737Z" fill="currentColor"/>
  <path d="M7.13355 5.30434V6.61737C6.60357 6.61737 6.07358 6.61737 5.54359 6.61737C5.34305 6.1781 5.34305 5.74361 5.54359 5.30434C6.07358 5.30434 6.60357 5.30434 7.13355 5.30434Z" fill="currentColor"/>
  <path d="M1.18412 4.52607C1.18412 5.481 1.18412 6.44071 1.18412 7.39564C0.845116 7.06619 0.50134 6.74151 0.171888 6.40251C-0.057296 6.16855 -0.057296 5.74838 0.171888 5.51442C0.50134 5.17542 0.845116 4.85074 1.18412 4.52129V4.52607Z" fill="currentColor"/>
  <path d="M11.9081 6.61737V5.30434C12.4095 5.30434 12.9108 5.30434 13.4169 5.30434C13.6174 5.74361 13.6174 6.1781 13.4169 6.61737C12.9156 6.61737 12.4142 6.61737 11.9081 6.61737Z" fill="currentColor"/>
  <path d="M5.54316 5.30434C5.54316 5.74361 5.54316 6.1781 5.54316 6.61737C5.07047 6.61737 4.593 6.61737 4.12031 6.61737C3.91978 6.1781 3.91978 5.74361 4.12031 5.30434C4.593 5.30434 5.07047 5.30434 5.54316 5.30434Z" fill="currentColor"/>
  <path d="M10.2314 5.30434V6.61737C9.78254 6.61737 9.3385 6.61737 8.88968 6.61737C8.88968 6.1781 8.88968 5.74361 8.88968 5.30434C9.3385 5.30434 9.78254 5.30434 10.2314 5.30434Z" fill="currentColor"/>
  <path d="M4.12113 5.30434C4.12113 5.74361 4.12113 6.1781 4.12113 6.61737C3.72961 6.61737 3.33809 6.61737 2.94656 6.61737V5.30434C3.33809 5.30434 3.72961 5.30434 4.12113 5.30434Z" fill="currentColor"/>
  <path d="M3.61496 2.09576C3.75342 2.46818 3.68658 2.85493 3.70567 3.23691C3.71522 3.39447 3.6436 3.57113 3.79639 3.70005C3.51946 3.97698 3.23776 4.25868 2.96083 4.53561C2.81281 4.42102 2.87011 4.25868 2.87011 4.11544C2.87011 3.71915 2.87966 3.31807 2.77939 2.93133C3.03245 2.63052 3.31415 2.34882 3.61496 2.09576Z" fill="currentColor"/>
  <path d="M12.9065 6.61737V5.30434C13.2073 5.28524 13.5081 5.25659 13.7993 5.37596C14.0906 5.49055 14.2481 5.73406 14.2099 6.00621C14.1622 6.31179 13.9951 6.60782 13.6131 6.62692C13.3792 6.63647 13.1452 6.62214 12.9112 6.61737H12.9065Z" fill="currentColor"/>
</svg>
