<svg width="35" height="30" viewBox="0 0 35 30" fill="none" xmlns="http://www.w3.org/2000/svg">
  <path d="M34.2646 14.0605V29.9998H0V14.0562H0.455531C6.68113 14.0562 12.9067 14.0562 19.1367 14.0562C24.1822 14.0562 29.2234 14.0562 34.269 14.0562L34.2646 14.0605ZM23.4187 20.0388H10.8373V22.0084H23.4187V20.0388Z" fill="currentColor"/>
  <path d="M23.5306 7.26235C25.9601 8.00421 27.5263 9.96951 27.3441 12.0302H17.6955C17.4742 10.0563 18.9623 8.19077 21.5219 7.245C21.5219 7.04977 21.5046 6.83719 21.5219 6.62894C21.548 6.35996 21.4569 6.22547 21.1966 6.10834C20.0859 5.59641 19.4395 4.70704 19.3354 3.49228C19.2269 2.2168 19.7389 1.19727 20.8148 0.507469C22.3636 -0.490362 24.4287 0.0519377 25.3224 1.66582C26.2118 3.27537 25.5697 5.29706 23.8864 6.09098C23.5957 6.22981 23.4786 6.37732 23.5219 6.68534C23.548 6.87189 23.5263 7.06278 23.5263 7.26669L23.5306 7.26235Z" fill="currentColor"/>
  <path d="M12.6644 7.07137V12.0215H1.40625V7.08873H3.29345V5.64404H5.30213V7.07571H12.6644V7.07137Z" fill="currentColor"/>
</svg>
