<svg width="52" height="50" viewBox="0 0 52 50" fill="none" xmlns="http://www.w3.org/2000/svg">
  <path d="M50.8236 24.1765L41.5884 14.9412C41.6104 14.8309 41.6325 14.7279 41.6325 14.6103V2.47058C41.6325 1.66176 40.9707 0.999993 40.1619 0.999993H38.0516C37.2428 0.999993 36.581 1.66176 36.581 2.47058V9.92646L27.2942 0.647052C26.4339 -0.213242 25.0369 -0.213242 24.1766 0.647052L0.647174 24.1765C-0.21312 25.0368 -0.21312 26.4338 0.647174 27.2941C1.50747 28.1544 2.90453 28.1544 3.76482 27.2941L25.7354 5.32352L47.706 27.2941C48.1398 27.7279 48.6986 27.9412 49.2648 27.9412C49.831 27.9412 50.3972 27.7279 50.8236 27.2941C51.6839 26.4338 51.6839 25.0368 50.8236 24.1765Z" fill="currentColor"/>
  <path d="M5.88281 29.3382V47.0588C5.88281 48.6838 7.19899 50 8.82399 50H19.0887V35.2941C19.0887 34.4853 19.7505 33.8235 20.5593 33.8235H30.8534C31.6622 33.8235 32.324 34.4853 32.324 35.2941V50H42.6475C44.2725 50 45.5887 48.6838 45.5887 47.0588V29.3382L25.7358 9.48529L5.88281 29.3382Z" fill="currentColor"/>
</svg>
