<svg width="16" height="20" viewBox="0 0 16 20" fill="none" xmlns="http://www.w3.org/2000/svg">
  <path d="M14.2857 1.71429V4.57143H1.71429V1.71429H0V20H10.8571V14.8571H16V1.71429H14.2857ZM9.14286 15.4286H4C3.68571 15.4286 3.42857 15.1714 3.42857 14.8571C3.42857 14.5429 3.68571 14.2857 4 14.2857H9.14286C9.45714 14.2857 9.71429 14.5429 9.71429 14.8571C9.71429 15.1714 9.45714 15.4286 9.14286 15.4286ZM12 12H4C3.68571 12 3.42857 11.7429 3.42857 11.4286C3.42857 11.1143 3.68571 10.8571 4 10.8571H12C12.3143 10.8571 12.5714 11.1143 12.5714 11.4286C12.5714 11.7429 12.3143 12 12 12ZM12 8.57143H4C3.68571 8.57143 3.42857 8.31429 3.42857 8C3.42857 7.68571 3.68571 7.42857 4 7.42857H12C12.3143 7.42857 12.5714 7.68571 12.5714 8C12.5714 8.31429 12.3143 8.57143 12 8.57143Z" fill="currentColor"/>
  <path d="M10.2857 1.71429V0.571429C10.2857 0.257143 10.0285 0 9.71426 0H6.28569C5.9714 0 5.71426 0.257143 5.71426 0.571429V1.71429H2.85712V3.42857H13.1428V1.71429H10.2857Z" fill="currentColor"/>
  <path d="M12 20V16H16L12 20Z" fill="currentColor"/>
</svg>
