<svg width="53" height="30" viewBox="0 0 53 30" fill="none" xmlns="http://www.w3.org/2000/svg">
  <path d="M0 14.281C0.101824 13.3328 0.178193 12.3782 0.311837 11.4363C0.636402 9.16435 1.26644 6.99422 2.66653 5.1232C3.06746 4.58862 3.49385 4.07313 4.04115 3.68493C4.77302 3.1758 5.30759 3.29036 5.72126 4.07313C6.05855 4.70317 6.33857 5.36503 6.63768 6.01416C7.12134 7.04513 7.92321 7.64971 9.01782 7.93609C10.7807 8.40067 12.518 8.47067 14.249 7.80881C14.3 7.78972 14.3445 7.77063 14.3891 7.74517C14.5927 7.65608 14.8791 7.57334 14.9109 7.37606C14.9427 7.16605 14.6563 7.05149 14.4845 6.93058C13.9308 6.52965 13.3517 6.1669 12.9253 5.61323C12.4735 5.02774 12.3844 4.41042 12.8044 3.81221C13.619 2.64759 14.4718 1.51479 15.3373 0.394727C15.7 -0.0698468 16.1646 -0.108031 16.7692 0.184714C19.2957 1.39388 21.8222 2.60304 24.336 3.82494C24.6542 3.97767 24.8706 4.00949 25.2079 3.79948C26.4743 2.97216 28.1099 3.81857 28.2181 5.33957C28.2372 5.61323 28.3199 5.7596 28.5681 5.88051C29.1027 6.1478 29.5672 6.34509 30.2291 6.06507C31.1455 5.6705 32.3038 6.33872 32.5647 7.33788C32.6856 7.79609 32.9211 8.0061 33.3093 8.19702C33.7802 8.43249 34.1493 8.54068 34.7094 8.26702C35.8422 7.71335 37.1786 8.51522 37.3632 9.7753C37.4141 10.1317 37.5859 10.2844 37.8659 10.4562C40.8698 12.2191 44.1536 13.2501 47.482 14.1856C48.4493 14.4592 49.3721 14.8538 50.244 15.382C52.1913 16.5721 52.1659 18.634 51.1922 20.1996C50.244 21.7142 48.793 22.6052 47.2083 23.2988C45.0827 24.2216 42.8553 24.6798 40.5325 24.648C32.9784 24.5462 25.4243 24.2853 17.8702 24.0753C13.3072 23.948 8.75053 23.6298 4.18116 23.7125C3.39202 23.7252 2.60925 23.6807 1.85193 23.4325C0.623674 23.0316 0.260925 22.0324 0.12728 20.8869C0.0700042 20.3968 0.0381841 19.9068 0 19.4168C0 17.7049 0 15.9929 0 14.281ZM14.5991 20.0914C14.5991 20.0914 14.5991 20.0596 14.5991 20.0468C14.9555 20.0468 15.3182 20.0277 15.6746 20.0468C16.2728 20.0786 16.7374 19.8814 17.1892 19.4677C20.2376 16.6675 23.3114 13.8992 26.3789 11.1181C26.468 11.0354 26.5571 10.959 26.6398 10.8699C26.9644 10.5008 26.9198 10.3353 26.4552 10.2017C26.0479 10.0808 25.6216 9.99804 25.2206 9.86439C24.5079 9.62256 23.9351 9.80712 23.3878 10.2971C21.084 12.3655 18.7611 14.4083 16.4446 16.4639C15.28 17.4949 14.1154 18.5258 12.9508 19.5632C12.8235 19.6777 12.6517 19.7986 12.7344 19.9832C12.8044 20.1423 13.0017 20.0914 13.1544 20.0914C13.6317 20.0914 14.109 20.0914 14.5927 20.0914H14.5991ZM22.395 20.1041C22.5986 20.1041 22.8087 20.085 23.0123 20.1041C23.916 20.2187 24.5906 19.875 25.2524 19.2513C27.5244 17.1067 29.8536 15.0193 32.1574 12.9064C32.2338 12.8364 32.3101 12.7728 32.3801 12.6964C32.7111 12.3464 32.6856 12.2127 32.2274 12.0791C31.7183 11.9327 31.2028 11.8181 30.7 11.659C30.1464 11.4809 29.7263 11.6209 29.3 12.0027C26.5825 14.4719 23.8524 16.9285 21.1222 19.385C21.0204 19.4741 20.9185 19.5695 20.8294 19.6714C20.7467 19.7604 20.6703 19.8623 20.7403 19.9896C20.7976 20.0914 20.9122 20.0914 21.014 20.0914C21.4722 20.0914 21.9368 20.0914 22.395 20.0914V20.1041Z" fill="currentColor"/>
  <path d="M51.7516 21.4214C52.7507 22.5542 52.7889 24.1643 51.8661 25.5835C50.8797 27.0917 49.416 27.9891 47.8122 28.6764C45.6676 29.5992 43.4147 30.0383 41.0791 30.0065C31.2658 29.8601 21.4525 29.561 11.6455 29.1919C9.11898 29.0964 6.5861 29.0328 4.05322 29.0582C3.48682 29.0582 2.92679 29.001 2.37948 28.8546C1.46943 28.6127 0.858484 28.0718 0.597559 27.1299C0.438458 26.5635 0.374818 25.9908 0.39391 25.4053C0.413002 24.7243 0.731203 24.4761 1.3867 24.6225C1.83854 24.718 2.27766 24.8516 2.71678 24.9853C3.35954 25.1825 4.01504 25.2716 4.68326 25.2716C11.2191 25.2716 17.7359 25.6853 24.2717 25.838C29.9484 25.9717 35.6188 26.1817 41.2955 26.2135C43.8665 26.2262 46.3103 25.6407 48.595 24.457C49.9378 23.757 51.0706 22.8279 51.7452 21.415L51.7516 21.4214Z" fill="currentColor"/>
</svg>
