<svg width="24" height="20" viewBox="0 0 24 20" fill="none" xmlns="http://www.w3.org/2000/svg">
  <path d="M10.8493 0V7.80009H1.79028C1.84722 7.3889 1.89783 6.99035 1.95476 6.59181C2.20464 4.79519 2.45136 2.99858 2.70124 1.20196C2.75818 0.800253 2.82144 0.401708 2.88154 0.00316306H10.8493V0Z" fill="currentColor"/>
  <path d="M20.1676 0C20.2562 0.613633 20.3511 1.23043 20.4365 1.84722C20.6864 3.64384 20.9331 5.44046 21.183 7.23707C21.2083 7.42053 21.2304 7.60399 21.2557 7.80009H12.1999V0H20.1676Z" fill="currentColor"/>
  <path d="M0 9.18235C0.0885656 9.17602 0.177131 9.16337 0.265697 9.16337C7.7653 9.16337 15.2649 9.16337 22.7645 9.16337H23.0302V10.8493H0V9.18235Z" fill="currentColor"/>
  <path d="M0.101227 19.9937C0.461815 17.3936 0.81924 14.8094 1.17667 12.2126H10.8366V19.9937H0.101227Z" fill="currentColor"/>
  <path d="M12.2094 12.2094H21.8694C22.2268 14.8063 22.5874 17.3936 22.9448 19.9968H12.2094V12.2094Z" fill="currentColor"/>
</svg>
