<svg width="51" height="50" viewBox="0 0 51 50" fill="none" xmlns="http://www.w3.org/2000/svg">
<path d="M50.8054 44.9583C50.5634 45.9331 50.2608 46.8809 49.6357 47.701C48.056 49.7983 45.2393 50.5714 42.7992 49.5631C40.3321 48.5413 38.9272 46.0406 39.2969 43.3114C39.633 40.8443 41.7303 38.8075 44.2646 38.4915C47.3837 38.1016 50.16 40.1519 50.7112 43.2509C50.7247 43.3248 50.7717 43.3988 50.7986 43.4727V44.9583H50.8054Z" fill="currentColor"/>
<path d="M47.526 22.096C47.116 29.672 43.0894 36.1387 35.0092 39.957C34.6261 40.1385 34.4042 40.0645 34.1219 39.7755C25.3359 30.9761 16.5432 22.1834 7.74383 13.4041C7.46822 13.1285 7.40772 12.9201 7.57578 12.5571C10.2378 6.70207 14.6072 2.75612 20.7648 0.880613C30.9557 -2.21162 41.9735 3.06534 45.9732 12.9134C47.0017 15.4477 47.5193 18.0963 47.526 22.0893V22.096Z" fill="currentColor"/>
<path d="M30.5251 41.3149C28.9925 41.6107 27.3993 41.7249 25.7927 41.6443C22.2097 41.4695 18.8755 40.4746 15.8169 38.5856C15.4673 38.3705 15.2724 38.4041 14.9901 38.6932C12.2541 41.4493 9.50471 44.192 6.75532 46.9414C5.94865 47.7481 5.47809 47.7481 4.6647 46.9414C3.28664 45.5633 1.90186 44.1853 0.523801 42.8005C-0.182034 42.0947 -0.182034 41.5703 0.537246 40.8578C3.29336 38.0949 6.04948 35.3321 8.81904 32.5894C9.1081 32.3004 9.18204 32.1121 8.94676 31.729C6.54693 27.7965 5.5722 23.5144 5.95537 18.9298C6.00915 18.2778 6.12342 17.6257 6.21081 17.0005C14.3246 25.1143 22.4181 33.2146 30.5251 41.3283V41.3149Z" fill="currentColor"/>
</svg>
