<svg width="24" height="20" viewBox="0 0 24 20" fill="none" xmlns="http://www.w3.org/2000/svg">
  <path d="M11.5643 0C-1.69404 0 0.118746 8.05751 0.118746 8.05751H6.16969C6.16969 3.99437 10.0078 4.07876 11.5612 4.07876C13.1145 4.07876 16.9558 3.99437 16.9526 8.05751H23.0036C23.0036 8.05751 24.8226 0 11.5643 0Z" fill="currentColor"/>
  <path d="M6.25098 8.68261H0V9.9328H6.25098V8.68261Z" fill="currentColor"/>
  <path d="M23.1286 8.68261H16.8776V9.9328H23.1286V8.68261Z" fill="currentColor"/>
  <path d="M16.0306 10.1422C15.9712 7.26989 15.4837 5.11017 11.5643 5.11017C7.64494 5.11017 7.16674 7.22925 7.09798 10.0578C3.19737 11.7175 0.428184 15.5274 0.287537 20H22.6598C22.5191 15.5993 19.8375 11.8425 16.0337 10.1422H16.0306ZM11.5643 17.6434C9.89216 17.6434 8.5357 16.2869 8.5357 14.6148C8.5357 12.9426 9.89216 11.5862 11.5643 11.5862C13.2364 11.5862 14.5929 12.9426 14.5929 14.6148C14.5929 16.2869 13.2364 17.6434 11.5643 17.6434Z" fill="currentColor"/>
</svg>
