<svg width="40" height="40" viewBox="0 0 40 40" fill="none" xmlns="http://www.w3.org/2000/svg">
  <path d="M2.44986 30.1146H3.01337C7.11079 30.1146 11.2082 30.1146 15.3056 30.1098C15.6017 30.1098 15.8405 30.1624 16.0793 30.3677C16.3228 30.5778 16.6141 30.7354 16.9054 30.8739C19.4222 32.0774 21.9436 33.2712 24.4651 34.4699C24.5989 34.532 24.7278 34.6036 24.9093 34.6944C24.2646 35.4202 23.4814 35.8214 22.5645 35.9694C22.2732 36.0172 21.9723 36.0315 21.6714 36.0315C15.893 36.0315 10.1098 36.0315 4.33142 36.0315C2.18243 36.0315 0.553964 34.7946 0.105062 32.8128C0.0238777 32.4594 0 32.0869 0 31.724C0 22.5883 0 13.4575 0 4.32187C0 2.34002 0.988539 0.82617 2.69819 0.243553C3.15186 0.0907354 3.6533 0.0143266 4.13085 0.0143266C9.99522 0 15.8548 0 21.7192 0C24.021 0 25.8023 1.65712 25.8357 3.9446C25.8883 7.65043 25.85 11.3563 25.8548 15.0573C25.8548 15.0955 25.8405 15.1337 25.8262 15.2149C25.0048 15.0573 24.1882 14.9618 23.4432 15.6686V6.03152H2.44986V30.1146ZM12.9179 4.00191C13.9733 4.00191 15.0334 4.01146 16.0888 4.00191C16.5521 3.99713 16.8338 3.6915 16.8338 3.26648C16.8338 2.84623 16.5377 2.52627 16.0888 2.52149C14.0019 2.51194 11.915 2.51194 9.82808 2.52149C9.42216 2.52149 9.13085 2.82235 9.09742 3.19962C9.05922 3.65329 9.39351 3.99713 9.90927 4.00191C10.9121 4.01146 11.915 4.00191 12.9179 4.00191ZM12.9131 34.1882C13.2904 34.1882 13.6724 34.1929 14.0497 34.1882C14.6753 34.1738 15.1576 33.7201 15.1767 33.1375C15.1958 32.5788 14.7517 32.0678 14.1404 32.0439C13.3286 32.0105 12.5119 32.0105 11.7001 32.0439C11.0888 32.0678 10.659 32.5692 10.6781 33.1471C10.6972 33.7249 11.1605 34.1738 11.767 34.1929C12.1442 34.2025 12.5263 34.1929 12.9035 34.1929L12.9131 34.1882Z" fill="currentColor"/>
  <path d="M26.5897 17.2445C26.604 17.0105 26.5992 16.8529 26.6183 16.6953C26.7186 16.0029 27.2153 15.4871 27.8791 15.3821C28.5572 15.2722 29.2114 15.6017 29.5601 16.2703C30.2048 17.5072 30.8399 18.7488 31.4607 20C32.392 21.8673 33.2898 23.7488 34.2353 25.6113C34.9134 26.9437 34.7941 28.3477 34.6842 29.7565C34.6747 29.8615 34.5601 29.9952 34.4598 30.0478C31.7473 31.404 29.0252 32.7507 26.3031 34.0927C26.1933 34.1452 26.007 34.1452 25.8924 34.0927C22.9077 32.6791 19.9182 31.2608 16.9431 29.8233C15.9354 29.3362 15.5772 28.1614 16.0739 27.106C16.5276 26.1366 17.7262 25.7163 18.7864 26.1796C19.4836 26.4804 20.157 26.8338 20.8399 27.1586C20.945 27.2063 21.0548 27.2493 21.2458 27.3257C21.0357 26.8816 20.8781 26.5139 20.6966 26.1605C18.8342 22.5024 16.9669 18.8443 15.0949 15.191C14.88 14.7708 14.7845 14.3505 14.9087 13.8969C15.0901 13.2569 15.5343 12.8797 16.179 12.7937C16.8475 12.7078 17.3729 12.9991 17.7215 13.5673C17.9316 13.9112 18.0987 14.2885 18.2802 14.6514C18.9106 15.9074 19.5362 17.1681 20.2286 18.5435C20.2716 17.5406 20.6298 16.8673 21.561 16.724C22.454 16.5855 22.9937 17.1156 23.4044 17.9418C23.4378 17.0487 23.7148 16.404 24.5505 16.1843C25.4913 15.936 26.093 16.4327 26.5801 17.2493L26.5897 17.2445Z" fill="currentColor"/>
  <path d="M39.0784 34.0783C39.0688 34.5177 38.8396 34.7039 38.5435 34.852C37.0249 35.597 35.5063 36.3467 33.9876 37.0965C32.13 38.0134 30.2675 38.9255 28.4098 39.8376C27.7985 40.1385 27.4881 40.0382 27.1873 39.4508C26.662 38.4289 26.1366 37.4021 25.6161 36.3754C25.3343 35.8166 25.4394 35.4919 25.9886 35.2197C29.3888 33.5435 32.789 31.8672 36.1939 30.1958C36.7384 29.9284 37.0631 30.0287 37.3305 30.5492C37.8797 31.6094 38.4194 32.6695 38.959 33.7345C39.0258 33.8634 39.0593 34.0115 39.0832 34.0831L39.0784 34.0783Z" fill="currentColor"/>
  <path d="M10.0057 20.0239C10.7698 20.5969 11.5434 21.0793 12.5129 21.2559C12.5129 20.3486 12.5176 19.4842 12.5033 18.6198C12.5033 18.5387 12.3601 18.424 12.2598 18.3858C11.744 18.1853 11.2091 18.0325 10.6982 17.8176C8.82615 17.02 9.04583 14.2359 10.4069 13.3333C11.0563 12.9035 11.7727 12.6934 12.575 12.5979V11.8959H13.4871C13.4966 12.106 13.5062 12.3257 13.5157 12.5645C13.8261 12.6265 14.1222 12.6886 14.3897 12.7411C14.2368 13.2474 14.0888 13.7297 13.936 14.2407C13.8405 14.2359 13.7115 14.2263 13.5396 14.2168V16.8815C14.0506 17.0678 14.5902 17.2445 15.106 17.4689C15.2827 17.5453 15.4594 17.7173 15.5453 17.894C15.8987 18.596 16.233 19.3075 16.5482 20.0239C16.6246 20.1958 16.6437 20.4202 16.6055 20.6017C16.3524 21.7622 15.3448 22.5836 13.9694 22.7889C13.7975 22.8128 13.6256 22.8462 13.4155 22.8749V23.9112H12.5129V23.0229C11.5578 22.6313 10.6695 22.2875 9.80036 21.8959C9.48995 21.7574 9.2273 21.4995 8.91211 21.2798C9.28938 20.8405 9.64277 20.4346 9.99616 20.0239H10.0057ZM13.6112 21.3801C14.4374 21.361 15.063 20.8548 15.0917 20.191C15.1155 19.6275 14.5807 19.0114 13.6112 18.9159V21.3801ZM12.4938 14.2311C11.6915 14.2693 11.1757 14.7469 11.1853 15.4346C11.19 16.0602 11.8204 16.6475 12.4938 16.6571V14.2311Z" fill="currentColor"/>
</svg>
