<svg width="68" height="68" viewBox="0 0 68 68" fill="none" xmlns="http://www.w3.org/2000/svg">
<path d="M25.1032 37.6076C25.6666 39.1921 26.4049 40.6078 27.3115 41.9342C29.2802 44.8048 31.849 46.9843 34.9685 48.5225C38.2202 50.1265 41.4554 51.7471 44.6972 53.371C47.8531 54.952 49.027 58.6888 47.3666 61.7886C45.8907 64.5349 42.329 65.7548 39.5235 64.3979C36.1595 62.7709 32.8021 61.1306 29.4974 59.3847C22.0056 55.4282 18.1662 46.312 20.4705 38.1289C20.6513 37.4846 20.8685 36.8503 21.1087 36.2192C21.2107 35.9483 21.1577 35.8229 20.9132 35.668C14.4846 31.5483 11.7764 23.8044 14.2239 16.5425C16.8787 8.66603 25.4952 3.97525 33.5426 6.0717C34.7385 6.38718 35.9214 6.82816 37.0317 7.365C41.1557 9.3708 45.2567 11.4394 49.3643 13.4947C50.3821 14.002 50.6142 14.6952 50.1103 15.7064C49.7809 16.3673 49.4515 17.0282 49.1056 17.7222L52.9786 19.6523C53.2981 19.0112 53.6242 18.3569 53.9503 17.7026C54.4905 16.6187 55.1572 16.39 56.2213 16.9203C59.3342 18.4717 62.4405 20.0198 65.5534 21.5711C66.5712 22.0784 66.8132 22.7683 66.3093 23.7795C65.219 25.9671 64.1321 28.1481 63.0418 30.3357C62.6268 31.1685 62.244 31.3903 61.3225 31.3188C55.6253 30.8969 49.9347 30.4783 44.2407 30.0498C43.9369 30.0304 43.7587 30.1066 43.6071 30.3611C40.0614 36.3167 32.7112 39.5924 25.4698 37.6831C25.374 37.6601 25.2749 37.6437 25.0966 37.6043L25.1032 37.6076ZM22.923 39.6976C22.8868 39.8364 22.8605 39.9057 22.8474 39.9817C22.7786 40.4177 22.6867 40.8505 22.6477 41.293C22.1641 47.8093 24.5388 53.0439 30.1012 56.4844C33.4889 58.577 37.1831 60.187 40.7818 61.9392C42.3085 62.6836 44.203 61.9117 44.9804 60.4014C45.8501 58.7227 45.2035 56.709 43.4752 55.8395C40.2103 54.1958 36.9321 52.5786 33.6606 50.9482C29.4506 48.85 26.1805 45.7599 23.903 41.6381C23.5654 41.0243 23.264 40.3874 22.9131 39.7009L22.923 39.6976ZM39.3291 26.7769C41.9774 21.5292 39.8685 14.9668 34.7001 12.3415C29.2111 9.5482 22.7279 11.6471 19.9775 17.0997C17.3259 22.354 19.4876 28.9098 24.7584 31.5613C30.1284 34.2623 36.6314 32.1238 39.3357 26.7802L39.3291 26.7769Z" fill="currentColor"/>
<path d="M33.2867 14.7145C37.2258 16.6776 38.8536 21.5564 36.8806 25.4988C34.8912 29.4907 30.0486 31.1119 26.0699 29.1291C22.0648 27.133 20.4502 22.2938 22.4528 18.2754C24.4258 14.3165 29.2849 12.7118 33.2834 14.7046L33.2867 14.7145ZM31.4988 21.2985C31.9007 20.4922 32.2993 19.7421 32.6582 18.9721C32.9777 18.2815 32.6893 17.5025 32.0284 17.1731C31.3741 16.847 30.5852 17.0891 30.2062 17.7501C30.0909 17.9484 30.002 18.1599 29.8999 18.3648C29.6167 18.9332 29.3367 19.4949 29.0435 20.0831C28.2504 19.6879 27.5168 19.3223 26.7832 18.9567C26.2479 18.6899 25.7262 18.7434 25.2643 19.1238C24.4891 19.7522 24.6359 20.931 25.5513 21.412C26.2816 21.8007 27.0384 22.1531 27.8182 22.5417C27.4164 23.3481 27.0178 24.0982 26.6588 24.8682C26.3394 25.5588 26.6277 26.3378 27.2853 26.6738C27.9396 26.9999 28.7286 26.7578 29.1075 26.0968C29.2228 25.8985 29.3117 25.687 29.4138 25.4821C29.6971 24.9137 29.9771 24.352 30.2669 23.7704C31.0336 24.1524 31.7342 24.5016 32.4413 24.854C33.2443 25.246 34.0597 25.0005 34.4121 24.2768C34.7481 23.5697 34.4498 22.794 33.6732 22.3987C32.9727 22.0496 32.2655 21.6971 31.4922 21.3118L31.4988 21.2985Z" fill="currentColor"/>
</svg>
