<svg width="20" height="20" viewBox="0 0 20 20" fill="none" xmlns="http://www.w3.org/2000/svg">
  <path d="M10 20C11.1989 20 12.2313 19.2758 12.6843 18.2422H7.31567C7.76868 19.2758 8.80114 20 10 20Z" fill="currentColor"/>
  <path d="M16.0547 9.68211V8.39844C16.0547 5.67102 14.2417 3.35934 11.7578 2.6043V1.75781C11.7578 0.788555 10.9692 0 9.99998 0C9.03073 0 8.24217 0.788555 8.24217 1.75781V2.6043C5.75819 3.35934 3.9453 5.67098 3.9453 8.39844V9.68211C3.9453 12.0779 3.03209 14.3496 1.37393 16.0788C1.21143 16.2483 1.16577 16.4983 1.25788 16.7143C1.34998 16.9302 1.56209 17.0703 1.79686 17.0703H18.2031C18.4379 17.0703 18.6499 16.9302 18.7421 16.7143C18.8342 16.4983 18.7885 16.2483 18.626 16.0788C16.9679 14.3496 16.0547 12.0779 16.0547 9.68211ZM10.5859 2.37219C10.3931 2.35359 10.1976 2.34375 9.99998 2.34375C9.80233 2.34375 9.6069 2.35359 9.41405 2.37219V1.75781C9.41405 1.43473 9.6769 1.17188 9.99998 1.17188C10.3231 1.17188 10.5859 1.43473 10.5859 1.75781V2.37219Z" fill="currentColor"/>
  <path d="M17.6172 8.39842C17.6172 8.72201 17.8796 8.98436 18.2032 8.98436C18.5268 8.98436 18.7891 8.72201 18.7891 8.39842C18.7891 6.05076 17.8749 3.84361 16.2149 2.18358C15.9861 1.95479 15.615 1.95475 15.3862 2.18358C15.1574 2.4124 15.1574 2.78338 15.3862 3.01221C16.8249 4.45092 17.6172 6.36377 17.6172 8.39842Z" fill="currentColor"/>
  <path d="M1.79687 8.98437C2.12047 8.98437 2.38281 8.72202 2.38281 8.39843C2.38281 6.36382 3.17516 4.45097 4.61383 3.01226C4.84266 2.78343 4.84266 2.41245 4.61383 2.18363C4.38504 1.9548 4.01402 1.9548 3.7852 2.18363C2.12516 3.84367 1.21094 6.05077 1.21094 8.39843C1.21094 8.72202 1.47328 8.98437 1.79687 8.98437Z" fill="currentColor"/>
</svg>
