<svg width="40" height="40" viewBox="0 0 40 40" fill="none" xmlns="http://www.w3.org/2000/svg">
  <path d="M37.7143 5.71429H32V0H27.4286V5.71429H12.5714V0H8V5.71429H2.28571C1.02286 5.71429 0 6.73714 0 8V37.7143C0 38.9771 1.02286 40 2.28571 40H37.7143C38.9771 40 40 38.9771 40 37.7143V8C40 6.73714 38.9771 5.71429 37.7143 5.71429ZM37.7143 37.7143H2.28571V14.2857H37.7143V37.7143Z" fill="currentColor"/>
  <path d="M21.7137 18.8571H18.2852V22.2857H21.7137V18.8571Z" fill="currentColor"/>
  <path d="M14.8563 18.8571H11.4277V22.2857H14.8563V18.8571Z" fill="currentColor"/>
  <path d="M28.5711 18.8571H25.1426V22.2857H28.5711V18.8571Z" fill="currentColor"/>
  <path d="M35.4286 18.8571H32V22.2857H35.4286V18.8571Z" fill="currentColor"/>
  <path d="M8.00084 24.5714H4.57227V28H8.00084V24.5714Z" fill="currentColor"/>
  <path d="M14.8563 24.5714H11.4277V28H14.8563V24.5714Z" fill="currentColor"/>
  <path d="M21.7137 24.5714H18.2852V28H21.7137V24.5714Z" fill="currentColor"/>
  <path d="M28.5711 24.5714H25.1426V28H28.5711V24.5714Z" fill="currentColor"/>
  <path d="M35.4286 24.5714H32V28H35.4286V24.5714Z" fill="currentColor"/>
  <path d="M8.00084 30.2857H4.57227V33.7143H8.00084V30.2857Z" fill="currentColor"/>
  <path d="M14.8563 30.2857H11.4277V33.7143H14.8563V30.2857Z" fill="currentColor"/>
  <path d="M21.7137 30.2857H18.2852V33.7143H21.7137V30.2857Z" fill="currentColor"/>
  <path d="M28.5711 30.2857H25.1426V33.7143H28.5711V30.2857Z" fill="currentColor"/>
</svg>
