<svg width="20" height="18" viewBox="0 0 20 18" fill="none" xmlns="http://www.w3.org/2000/svg">
  <path d="M9.99981 14.0003C12.301 14.0003 14.1665 12.1348 14.1665 9.83359C14.1665 7.53239 12.301 5.66691 9.99981 5.66691C7.69862 5.66691 5.83313 7.53239 5.83313 9.83359C5.83313 12.1348 7.69862 14.0003 9.99981 14.0003Z" fill="currentColor"/>
  <path d="M18.3333 3.16694H15.6905C15.3564 3.16694 15.0427 3.03675 14.8063 2.80073L13.2829 1.2773C12.8894 0.883819 12.3661 0.666944 11.8095 0.666944H8.19051C7.63387 0.666944 7.11059 0.883819 6.71711 1.2773L5.19367 2.80073C4.95727 3.03675 4.64355 3.16694 4.30949 3.16694H1.66668C0.747461 3.16694 0 3.9144 0 4.83358V15.6669C0 16.5861 0.747461 17.3336 1.66668 17.3336H18.3334C19.2525 17.3336 20 16.5861 20 15.6669V4.83358C20 3.9144 19.2525 3.16694 18.3333 3.16694ZM10 14.8336C7.24285 14.8336 5 12.5907 5 9.83358C5 7.07644 7.24285 4.83358 10 4.83358C12.7571 4.83358 15 7.07644 15 9.83358C15 12.5907 12.7571 14.8336 10 14.8336ZM16.6667 7.33358C16.2073 7.33358 15.8334 6.95964 15.8334 6.50026C15.8334 6.04089 16.2073 5.66694 16.6667 5.66694C17.1261 5.66694 17.5 6.04089 17.5 6.50026C17.5 6.95964 17.1261 7.33358 16.6667 7.33358Z" fill="currentColor"/>
</svg>
