<svg width="18" height="12" viewBox="0 0 18 12" fill="none" xmlns="http://www.w3.org/2000/svg">
<path d="M16.25 3.1775C15.56 3.1775 15 3.7375 15 4.4275C15 4.6575 15.0675 4.8725 15.175 5.0575C14.5525 5.57 13.49 6.25 12.2275 6.25C10.2025 6.25 9.7175 5.5 9.475 4.5C9.2875 3.72 9.2075 2.79 9.1825 2.4175C9.6575 2.24 10 1.7875 10 1.25C10 0.56 9.44 0 8.75 0C8.06 0 7.5 0.56 7.5 1.25C7.5 1.7875 7.84 2.2425 8.3175 2.4175C8.2925 2.79 8.215 3.72 8.025 4.5C7.7825 5.5 7.3 6.25 5.2725 6.25C4.01 6.25 2.945 5.57 2.325 5.0575C2.435 4.8725 2.5 4.6575 2.5 4.4275C2.5 3.7375 1.94 3.1775 1.25 3.1775C0.56 3.1775 0 3.7375 0 4.4275C0 5.1175 0.56 5.6775 1.25 5.6775C1.385 5.6775 1.515 5.65 1.6375 5.61C2.225 6.9075 2.9325 9.855 3.405 12H14.0975C14.57 9.855 15.2775 6.9075 15.865 5.61C15.9875 5.65 16.115 5.6775 16.2525 5.6775C16.9425 5.6775 17.5025 5.1175 17.5025 4.4275C17.5025 3.7375 16.9425 3.1775 16.2525 3.1775H16.25Z" fill="currentColor"/>
</svg>
