<svg width="18" height="20" viewBox="0 0 18 20" fill="none" xmlns="http://www.w3.org/2000/svg">
  <path d="M10.8318 10.1373C13.5174 9.01009 14.7807 5.91919 13.6534 3.23362C12.5261 0.548057 9.43524 -0.715205 6.74967 0.412049C4.06411 1.5393 2.80084 4.63021 3.9281 7.31577C5.05535 10.0013 8.14625 11.2646 10.8318 10.1373Z" fill="currentColor"/>
  <path d="M15.3494 13.991C13.9068 12.526 11.9927 11.7177 9.96071 11.7177H7.61718C5.58518 11.7177 3.67106 12.526 2.22846 13.991C0.791468 15.4505 0 17.3758 0 19.4134C0 19.7362 0.261016 20 0.586584 20H16.9913C17.3141 20 17.5779 19.739 17.5779 19.4134C17.5779 17.3758 16.7864 15.4505 15.3494 13.991ZM1.19843 18.824H1.27701L1.19843 18.8268C1.19843 18.8268 1.19843 18.8268 1.19843 18.824Z" fill="currentColor"/>
</svg>
