<svg width="30" height="30" viewBox="0 0 30 30" fill="none" xmlns="http://www.w3.org/2000/svg">
<circle cx="15" cy="15" r="14.5" stroke="#1BB690"/>
<path d="M11.2801 18.4869C10.8886 18.0954 10.4971 17.7039 10.1056 17.3124C10.0483 17.2121 10.0435 17.1023 10.0483 16.9925C10.0769 15.6365 10.0769 14.2805 10.0483 12.9245C10.0483 12.8146 10.0483 12.7048 10.1056 12.6045C10.3061 12.3563 10.5305 12.1319 10.774 11.9361C11.0748 12.2464 10.9555 12.638 10.9841 13.0056C10.9984 13.1871 10.9841 13.3637 10.9555 13.5452C10.7454 13.7743 10.5305 13.9988 10.2775 14.2709C10.5257 14.2852 10.7358 14.2948 10.9411 14.3091C11.1417 14.7484 11.1417 15.1829 10.9411 15.6221H10.244C10.6594 16.0566 11.0128 16.4243 11.3661 16.7967C11.4425 17.3697 11.495 17.9379 11.2754 18.4965L11.2801 18.4869Z" fill="white"/>
<path d="M10.1051 12.6046C10.1767 12.829 10.1958 13.0629 10.1958 13.2969C10.1911 14.4046 10.1911 15.5123 10.1958 16.62C10.1958 16.8588 10.1767 17.088 10.1051 17.3124C9.77566 17.0307 9.46531 16.7203 9.1836 16.3909C9.09766 16.2285 9.05469 16.0566 9.05469 15.8704C9.05469 15.2593 9.05469 14.6481 9.05469 14.037C9.05469 13.8507 9.09766 13.6789 9.1836 13.5165C9.46531 13.1871 9.77566 12.8815 10.1051 12.595V12.6046Z" fill="white"/>
<path d="M12.7996 18.2196C13.3725 18.783 13.9502 19.3368 14.5137 19.9098C14.719 20.1151 14.6808 20.5639 14.4755 20.7692C14.1794 21.0605 13.8452 21.0796 13.573 20.8074C13.2484 20.4875 12.938 20.1533 12.6181 19.8286C12.5131 19.3655 12.5847 18.9023 12.6086 18.4344C12.6133 18.3342 12.6468 18.2052 12.7996 18.2196Z" fill="white"/>
<path d="M12.7996 18.2196C12.6373 18.3628 12.7184 18.5538 12.7089 18.7257C12.6898 19.0933 12.7518 19.4705 12.6182 19.8286C12.1502 19.4084 11.7014 18.9596 11.2812 18.4917C11.3051 17.9235 11.2287 17.3553 11.372 16.7919C11.8733 17.2455 12.3508 17.723 12.7996 18.2196Z" fill="white"/>
<path d="M12.9508 9.75885C13.1418 9.55831 13.3233 9.353 13.5238 9.16201C13.7578 8.93761 14.283 8.95193 14.4931 9.17156C14.7175 9.40075 14.6936 9.83524 14.4358 10.0931C13.9726 10.5514 13.5095 11.0003 13.0416 11.4586C12.7455 10.9048 12.7503 10.3414 12.9508 9.75885Z" fill="white"/>
<path d="M12.9519 9.75885C12.9471 10.327 12.9519 10.8952 13.0426 11.4586C12.6511 11.8979 12.2357 12.3181 11.7916 12.7096C11.6341 12.7191 11.6054 12.595 11.6006 12.4947C11.5768 12.0316 11.5099 11.5637 11.6102 11.1053C12.0351 10.6326 12.4792 10.1886 12.9519 9.76362V9.75885Z" fill="white"/>
<path d="M15.1348 14.3043C15.7221 14.3043 16.3093 14.3043 16.8919 14.3043C17.0924 14.7436 17.0924 15.1781 16.8919 15.6174C16.3046 15.6174 15.7173 15.6174 15.1348 15.6174C14.9342 15.1781 14.9342 14.7436 15.1348 14.3043Z" fill="white"/>
<path d="M19.9083 15.6174C19.3497 15.6174 18.7911 15.6174 18.2324 15.6174C18.0319 15.1781 18.0319 14.7436 18.2324 14.3043C18.7911 14.3043 19.3497 14.3043 19.9083 14.3043C20.1089 14.7436 20.1089 15.1781 19.9083 15.6174Z" fill="white"/>
<path d="M15.1329 14.3043V15.6174C14.603 15.6174 14.073 15.6174 13.543 15.6174C13.3424 15.1781 13.3424 14.7436 13.543 14.3043C14.073 14.3043 14.603 14.3043 15.1329 14.3043Z" fill="white"/>
<path d="M9.18412 13.5261C9.18412 14.481 9.18412 15.4407 9.18412 16.3957C8.84512 16.0662 8.50134 15.7415 8.17189 15.4025C7.9427 15.1686 7.9427 14.7484 8.17189 14.5144C8.50134 14.1754 8.84512 13.8508 9.18412 13.5213V13.5261Z" fill="white"/>
<path d="M19.9082 15.6174V14.3043C20.4095 14.3043 20.9109 14.3043 21.417 14.3043C21.6175 14.7436 21.6175 15.1781 21.417 15.6174C20.9157 15.6174 20.4143 15.6174 19.9082 15.6174Z" fill="white"/>
<path d="M13.544 14.3043C13.544 14.7436 13.544 15.1781 13.544 15.6174C13.0713 15.6174 12.5938 15.6174 12.1211 15.6174C11.9206 15.1781 11.9206 14.7436 12.1211 14.3043C12.5938 14.3043 13.0713 14.3043 13.544 14.3043Z" fill="white"/>
<path d="M18.2323 14.3043V15.6174C17.7835 15.6174 17.3394 15.6174 16.8906 15.6174C16.8906 15.1781 16.8906 14.7436 16.8906 14.3043C17.3394 14.3043 17.7835 14.3043 18.2323 14.3043Z" fill="white"/>
<path d="M12.1218 14.3043C12.1218 14.7436 12.1218 15.1781 12.1218 15.6174C11.7303 15.6174 11.3388 15.6174 10.9473 15.6174V14.3043C11.3388 14.3043 11.7303 14.3043 12.1218 14.3043Z" fill="white"/>
<path d="M11.6149 11.0958C11.7533 11.4682 11.6865 11.8549 11.7056 12.2369C11.7151 12.3945 11.6435 12.5711 11.7963 12.7001C11.5194 12.977 11.2377 13.2587 10.9607 13.5356C10.8127 13.421 10.87 13.2587 10.87 13.1154C10.87 12.7192 10.8796 12.3181 10.7793 11.9313C11.0324 11.6305 11.3141 11.3488 11.6149 11.0958Z" fill="white"/>
<path d="M20.9062 15.6174V14.3043C21.2071 14.2852 21.5079 14.2566 21.7991 14.376C22.0904 14.4906 22.2479 14.7341 22.2097 15.0062C22.162 15.3118 21.9949 15.6078 21.6129 15.6269C21.3789 15.6365 21.145 15.6222 20.911 15.6174H20.9062Z" fill="white"/>
<line x1="9" y1="14.25" x2="20" y2="14.25" stroke="#1BB690" stroke-width="1.5"/>
</svg>
