<svg width="18" height="20" viewBox="0 0 18 20" fill="none" xmlns="http://www.w3.org/2000/svg">
  <path d="M10.3608 13.2843C10.2861 13.2025 10.1916 13.1414 10.094 13.0904C9.88138 12.9795 9.64885 12.9123 9.41797 12.8516V14.6406C9.79271 14.5983 10.2229 14.4623 10.4197 14.1124C10.5136 13.9453 10.5323 13.74 10.4941 13.5539C10.4733 13.4531 10.4304 13.3606 10.3608 13.2843Z" fill="currentColor"/>
  <path d="M10.416 14.1187C10.4168 14.1174 10.4172 14.1166 10.418 14.1152C10.4173 14.1164 10.4167 14.1175 10.416 14.1187Z" fill="currentColor"/>
  <path d="M7.65991 10.426C7.59549 10.5201 7.55506 10.627 7.54391 10.7406C7.53275 10.8544 7.53901 10.981 7.58226 11.0882C7.62344 11.1903 7.7097 11.2657 7.79874 11.3264C7.89865 11.3944 8.00854 11.4475 8.12045 11.4925C8.21434 11.5302 8.31995 11.5664 8.43379 11.6013V9.98242C8.1462 10.0438 7.83197 10.1748 7.65991 10.426Z" fill="currentColor"/>
  <path d="M10.4254 14.1016C10.423 14.1058 10.4205 14.1101 10.418 14.1147C10.4209 14.1094 10.4232 14.1054 10.4254 14.1016Z" fill="currentColor"/>
  <path d="M10.0474 4.35168C11.5688 3.0736 12.5854 0.194259 11.9598 0.0683241C11.1285 -0.0990721 9.32336 0.634939 8.45085 0.764263C7.21333 0.913682 5.8655 -0.577683 5.10895 0.253603C4.49381 0.929494 5.54996 3.38749 7.20232 4.45832C2.27258 6.88121 -4.6565 19.0443 7.43164 19.9269C24.1577 21.148 15.7823 6.71273 10.0474 4.35168ZM11.4838 13.9441C11.4324 14.4183 11.1811 14.8471 10.8054 15.1382C10.4088 15.4456 9.91134 15.5886 9.41706 15.6286V16.1526C9.41706 16.2928 9.35583 16.4283 9.25088 16.5211C9.10664 16.6488 8.89468 16.6803 8.71961 16.5996C8.54676 16.5201 8.4332 16.3428 8.4332 16.1526V15.5799C8.34844 15.5638 8.2643 15.5447 8.18114 15.5219C7.71919 15.3949 7.2907 15.1475 6.97769 14.7815C6.82178 14.599 6.69467 14.392 6.60676 14.1685C6.58379 14.1101 6.56332 14.0506 6.54539 13.9905C6.52916 13.936 6.5124 13.8807 6.50661 13.8239C6.49687 13.7287 6.51574 13.6316 6.56012 13.5468C6.65133 13.3723 6.84352 13.267 7.03977 13.2845C7.23291 13.3016 7.40218 13.4356 7.46299 13.6197C7.48172 13.6764 7.49442 13.7346 7.51546 13.7907C7.53631 13.8464 7.56149 13.9006 7.59109 13.9521C7.64954 14.0537 7.72276 14.1473 7.8071 14.2286C7.98094 14.3961 8.20236 14.505 8.4332 14.5697V12.6232C7.98184 12.5063 7.51593 12.3554 7.14321 12.0656C6.96207 11.9247 6.80837 11.7496 6.7077 11.5424C6.60149 11.3237 6.55749 11.0801 6.5557 10.8381C6.55386 10.5924 6.60055 10.3489 6.70305 10.125C6.79905 9.91538 6.93727 9.72718 7.10674 9.57117C7.46911 9.23765 7.95045 9.05162 8.43324 8.98328V8.94046V8.4394C8.43324 8.29925 8.49447 8.16362 8.59942 8.07082C8.74371 7.94324 8.95557 7.91171 9.13069 7.99237C9.3035 8.07195 9.4171 8.24918 9.4171 8.4394V8.94046V8.98032C9.48143 8.98841 9.54558 8.99811 9.60939 9.00969C10.0835 9.09548 10.5472 9.29125 10.8939 9.63306C11.0581 9.79495 11.1926 9.98785 11.2871 10.1982C11.3135 10.2569 11.3366 10.3169 11.3566 10.3782C11.3753 10.4353 11.394 10.494 11.4029 10.5536C11.4171 10.6487 11.4026 10.747 11.3619 10.834C11.2785 11.0123 11.0915 11.1258 10.8947 11.1174C10.7014 11.1089 10.5262 10.9831 10.457 10.8023C10.4364 10.7486 10.4261 10.6917 10.4051 10.6381C10.3838 10.5838 10.3563 10.5321 10.3247 10.4832C10.2631 10.3881 10.1834 10.3066 10.0923 10.2394C9.8951 10.0938 9.65594 10.018 9.41696 9.97557V11.8383C9.70097 11.9063 9.98522 11.9805 10.2573 12.0878C10.6686 12.25 11.0583 12.4987 11.2828 12.8908C11.248 12.8297 11.2141 12.7701 11.284 12.8928C11.3526 13.0133 11.3198 12.9558 11.2854 12.8955C11.464 13.2102 11.5227 13.5866 11.4838 13.9441Z" fill="currentColor"/>
  <path d="M10.4136 14.127C10.4107 14.1321 10.4082 14.1366 10.4062 14.14C10.4079 14.1371 10.4105 14.1326 10.4136 14.127Z" fill="currentColor"/>
</svg>
