<svg width="20" height="20" viewBox="0 0 20 20" fill="none" xmlns="http://www.w3.org/2000/svg">
  <path
    d="M1.79688 11.7969H0.585938C0.26207 11.7969 0 12.0589 0 12.3828V19.4141C0 19.7379 0.26207 20 0.585938 20H1.79688C2.76617 20 3.55469 19.2115 3.55469 18.2422V13.5547C3.55469 12.5854 2.76617 11.7969 1.79688 11.7969Z"
    fill="currentColor"/>
  <path
    d="M13.5547 0C10.0039 0 7.10938 2.89449 7.10938 6.44531C7.10938 7.99219 7.66012 9.41012 8.57422 10.5234C9.3125 10.7343 10.0039 11.1093 10.5898 11.625C10.7 11.7077 10.7622 11.7067 10.8828 11.7188H12.9688C13.7773 11.7188 14.4922 12.1171 14.9024 12.75C17.8086 12.1289 20 9.53906 20 6.44531C20 2.89449 17.1055 0 13.5547 0ZM14.1523 9.26949H14.1406V9.96094C14.1406 10.289 13.8829 10.5469 13.5547 10.5469C13.2265 10.5469 12.9688 10.289 12.9688 9.96094V9.26949C12.582 9.14059 12.2187 8.89449 11.9024 8.50781C11.6914 8.26168 11.7266 7.8984 11.9727 7.6875C12.2188 7.47656 12.5938 7.51172 12.793 7.75781C13.1094 8.13281 13.4609 8.27344 13.7539 8.16793C13.9883 8.0859 14.1406 7.86324 14.1406 7.61719C14.1406 7.28902 13.8829 7.03125 13.5547 7.03125C12.582 7.03125 11.7969 6.24605 11.7969 5.27344C11.7969 4.57027 12.2188 3.92574 12.875 3.65625C12.8985 3.64453 12.9336 3.64453 12.9688 3.63277V2.92969C12.9688 2.60152 13.2265 2.34375 13.5547 2.34375C13.8829 2.34375 14.1406 2.60152 14.1406 2.92969V3.63277C14.4453 3.73828 14.7383 3.89062 15.0078 4.1484C15.2422 4.37105 15.2422 4.74605 15.0195 4.98047C14.7969 5.21488 14.4219 5.21484 14.1875 4.99219C13.9062 4.72262 13.5899 4.61719 13.332 4.73434C13.1094 4.82812 12.9688 5.03906 12.9688 5.27344C12.9688 5.60152 13.2265 5.85938 13.5547 5.85938C14.5273 5.85938 15.3125 6.64453 15.3125 7.61719C15.3125 8.35547 14.8437 9.01172 14.1523 9.26949Z"
    fill="currentColor"/>
  <path
    d="M19.8242 12.9334C19.7539 12.8162 19.6602 12.7224 19.5547 12.6404C19.1232 12.2629 18.3963 12.2986 17.9727 12.7576L15.3125 15.8279L15.2305 15.9216C14.9024 16.2849 14.4336 16.4841 13.9414 16.4841H9.35547C9.0273 16.4841 8.76953 16.2263 8.76953 15.8982C8.76953 15.57 9.0273 15.3123 9.35547 15.3123H12.9688C13.6133 15.3123 14.1406 14.7849 14.1406 14.1404V14.1287C14.1289 13.4841 13.6133 12.9685 12.9688 12.9685H10.8086C10.4572 12.9685 10.0806 12.8395 9.77734 12.5818C8.3477 11.3279 6.26172 11.2458 4.72656 12.3123V19.5193C5.88672 19.8357 7.08203 19.9998 8.28902 19.9998H13.5547C14.8437 19.9998 16.0625 19.3904 16.8359 18.3591L19.6485 14.6091C20.0588 14.0705 20.0898 13.3318 19.8242 12.9334Z"
    fill="currentColor"/>
</svg>
