<svg width="236" height="20" viewBox="0 0 236 20" fill="none" xmlns="http://www.w3.org/2000/svg">
  <path d="M0 19.4637L3.24094 0.536291H8.15263L11.9755 10.6275L15.7729 0.536291H20.6846L23.9255 19.4637H18.9883L17.3431 8.56942L12.8364 19.4637H10.8612L6.58242 8.56942L4.93717 19.4637H0Z" fill="#1C1D1D"/>
  <path d="M38.7605 16.1758H31.6712L30.5314 19.4637H25.2402L32.5065 0.536291H37.9251L45.1914 19.4637H39.9002L38.7605 16.1758ZM37.4437 12.4358L35.2151 6.13506L32.9865 12.4358H37.4423H37.4437Z" fill="#1C1D1D"/>
  <path d="M63.242 19.4637H57.0645L52.3298 12.1845V19.4637H47.3672V0.536291H55.0894C56.1527 0.536291 57.0801 0.69072 57.8744 1.00098C58.6673 1.31125 59.3214 1.73382 59.8368 2.26871C60.3508 2.805 60.7402 3.42272 61.0021 4.12607C61.264 4.82943 61.3943 5.58192 61.3943 6.38495C61.3943 7.82395 61.0432 8.992 60.3437 9.88628C59.6429 10.782 58.6093 11.3885 57.2429 11.7057L63.2434 19.4623L63.242 19.4637ZM52.3298 8.99621H53.2671C54.2455 8.99621 54.9974 8.79545 55.5198 8.39394C56.0423 7.99242 56.3042 7.41541 56.3042 6.66152C56.3042 5.90762 56.0423 5.33062 55.5198 4.9291C54.9959 4.52759 54.2455 4.32683 53.2671 4.32683H52.3298V8.99621Z" fill="#1C1D1D"/>
  <path d="M75.7982 5.38116C75.2573 4.94595 74.7179 4.62446 74.1784 4.41527C73.6376 4.20609 73.1151 4.1008 72.6082 4.1008C71.9669 4.1008 71.443 4.25102 71.038 4.55286C70.6331 4.8547 70.4306 5.24779 70.4306 5.73213C70.4306 6.06767 70.5326 6.34283 70.735 6.56044C70.9375 6.77804 71.2037 6.96617 71.5322 7.12481C71.8607 7.28345 72.233 7.42243 72.6465 7.53896C73.0599 7.65689 73.4691 7.78183 73.874 7.9152C75.4938 8.45149 76.6803 9.16608 77.4307 10.0618C78.1811 10.9575 78.5578 12.1241 78.5578 13.5631C78.5578 14.5332 78.3935 15.412 78.0636 16.1996C77.7351 16.9858 77.2537 17.6597 76.6208 18.2198C75.9879 18.7814 75.212 19.2152 74.2917 19.5255C73.3714 19.8343 72.3293 19.9902 71.1655 19.9902C68.7514 19.9902 66.5157 19.2784 64.457 17.8562L66.5837 13.8902C67.3256 14.543 68.0604 15.0288 68.7868 15.3461C69.5117 15.6647 70.2296 15.8234 70.9389 15.8234C71.7488 15.8234 72.352 15.6395 72.7498 15.2717C73.1463 14.9038 73.3445 14.4855 73.3445 14.0166C73.3445 13.7316 73.2935 13.4859 73.193 13.2753C73.0911 13.0661 72.9226 12.8738 72.6861 12.6983C72.4497 12.5228 72.1424 12.36 71.7615 12.2083C71.3821 12.0581 70.9219 11.8911 70.3811 11.7057C69.7397 11.505 69.111 11.2832 68.4951 11.0403C67.8792 10.7974 67.3298 10.4759 66.8499 10.0744C66.3685 9.67289 65.9805 9.16748 65.6846 8.55538C65.3887 7.94469 65.2414 7.17113 65.2414 6.23333C65.2414 5.29552 65.3972 4.44756 65.7101 3.68524C66.0216 2.92433 66.4605 2.27151 67.0268 1.7268C67.5918 1.18349 68.2841 0.760915 69.1025 0.459076C69.9209 0.157237 70.837 0.00701904 71.8493 0.00701904C72.7937 0.00701904 73.782 0.136178 74.8113 0.3959C75.8407 0.655622 76.8276 1.03608 77.7734 1.53868L75.7982 5.37976V5.38116Z" fill="#1C1D1D"/>
  <path d="M90.9331 2.54106C91.3734 3.79896 91.7316 4.97262 92.0077 6.06626V0.245683H94.9018V10C95.1212 14.5908 93.745 17.9222 90.7688 20C90.4375 19.6167 89.6659 18.8249 88.4539 17.6232C90.5479 16.2024 91.6778 14.5641 91.8435 12.7053C91.5674 12.9243 91.1539 13.2795 90.6032 13.7709C90.1614 14.1541 89.8301 14.4265 89.6106 14.5908L88.1225 11.9683C89.5554 10.9308 90.8509 9.94665 92.0077 9.01727V7.70602L89.9405 8.36165C89.8301 7.97978 89.6644 7.29608 89.445 6.31195C89.2241 5.54682 89.0584 4.97403 88.9494 4.59076V6.55763H87.4613V7.13183C87.6808 7.35084 88.0121 7.62319 88.4539 7.95171C88.8942 8.28022 89.4733 8.77159 90.1897 9.42721L88.2882 11.6398C88.1225 11.5317 87.9286 11.3407 87.7091 11.0656C87.5987 10.9561 87.5151 10.8746 87.4613 10.8199V19.7543H84.4852V12.7867C84.0986 13.8256 83.6031 14.8364 82.9971 15.8192C82.9418 15.5468 82.8866 15.0807 82.8314 14.4251C82.6105 12.9496 82.4718 11.884 82.418 11.2284C83.133 9.97192 83.8239 8.41499 84.4852 6.55623H82.6657V3.68665H84.4852V0.164257H87.4613V3.68946H88.7016C88.7016 3.63611 88.6733 3.55328 88.6195 3.44377C88.6195 3.33427 88.5912 3.25284 88.5374 3.19809L90.9345 2.54247L90.9331 2.54106ZM100.357 2.45964L102.672 3.68946C101.79 5.54822 100.963 7.13183 100.191 8.44307L98.9512 7.70602V8.85301C99.4467 9.18153 100.163 9.64622 101.1 10.2471C101.872 10.7946 102.45 11.2045 102.836 11.4769L101.266 13.9365C100.771 13.4999 99.9975 12.9257 98.9512 12.2154V15.9862C98.9512 16.4243 99.1168 16.6419 99.4467 16.6419C99.7766 16.6419 99.9423 16.3962 99.9423 15.9048C100.053 15.2492 100.108 14.5388 100.108 13.7737C100.218 13.8284 100.439 13.9113 100.769 14.0194C101.65 14.3479 102.284 14.5388 102.671 14.5936C102.615 15.0849 102.532 15.8234 102.423 16.8061C102.368 16.9704 102.341 17.0799 102.341 17.1346C102.175 18.6635 101.266 19.4019 99.6124 19.3472H98.5377C96.8288 19.4005 96.0019 18.5807 96.0571 16.8875V0.245683H98.9512V5.32781C99.1168 4.94595 99.3646 4.42651 99.6945 3.77088C100.026 3.11526 100.245 2.67865 100.356 2.45964H100.357Z" fill="#1C1D1D"/>
  <path d="M105.383 19.7543V0.655622H124.231V19.7543H121.007V18.9344H108.607V19.7543H105.383ZM120.511 7.70462H109.104V6.14769H113.402V5.57349H109.599V3.93374H113.402V3.03243H108.608V13.4424C110.316 12.951 111.584 12.4582 112.411 11.9669H109.766V8.36024H119.852V11.7212L120.926 12.6225C120.485 13.0605 120.044 13.4157 119.604 13.6881L121.01 14.3437V3.03243H116.216V3.93374H119.935V5.57349H116.216V6.14769H120.514V7.70462H120.511ZM109.599 15.4921C109.544 15.3826 109.461 15.2464 109.352 15.0821C109.02 14.4813 108.772 14.0713 108.608 13.8523V16.8847H121.008V14.5079L119.852 16.1477C119.356 15.8753 118.446 15.4106 117.123 14.7536C117.123 14.9179 117.095 15.1636 117.041 15.4921C117.041 15.8206 117.013 16.0663 116.959 16.2291C115.25 16.3386 113.211 16.5296 110.841 16.8033L110.51 15.3278L112.659 15.0821V14.098C111.832 14.5894 110.811 15.054 109.601 15.4921H109.599ZM112.575 9.83574V10.4914H117.04V9.83574H112.575ZM116.626 12.3768L117.783 12.8682C118.168 12.5958 118.526 12.294 118.858 11.9669H115.634L115.302 12.2954V14.9179L117.122 14.7536L115.386 13.8523L116.626 12.3768Z" fill="#1C1D1D"/>
  <path d="M127.853 6.4762H138.186V14.5908H134.383V15.4106H138.599V16.0663C139.426 15.3573 140.114 14.6722 140.667 14.0166C140.446 12.5411 140.253 10.5475 140.087 8.03313L138.765 8.19739L138.599 5.82058H133.392V0.984136H138.683V5.41064L139.923 5.24639V3.11526C139.868 1.85877 139.841 0.847957 139.841 0.0828304H142.735C142.735 0.685105 142.762 1.28598 142.817 1.88685L144.553 0.411344C145.38 1.17787 146.123 1.96827 146.785 2.78815L144.801 4.42791C144.249 3.60803 143.587 2.78815 142.817 1.96827C142.817 2.89766 142.844 3.85371 142.899 4.83785L146.785 4.34648L147.116 7.0518L142.983 7.626C142.983 8.77299 143.037 9.81188 143.149 10.7413C143.202 10.6332 143.286 10.4689 143.396 10.2499C143.781 9.70378 144.223 8.85582 144.719 7.70883L147.116 9.10291C145.959 11.2888 144.828 13.1476 143.726 14.6764C143.837 15.0049 143.919 15.332 143.974 15.6605C144.084 16.2628 144.276 16.5352 144.553 16.4804C144.719 16.4804 144.855 16.2347 144.967 15.742C145.02 15.3054 145.104 14.4307 145.214 13.1195C145.876 13.448 146.537 13.7217 147.198 13.9394C147.143 14.595 147.004 15.4963 146.785 16.6447C146.729 16.9184 146.702 17.136 146.702 17.3003C146.316 18.9401 145.462 19.7319 144.14 19.6771C142.983 19.7305 142.099 18.9387 141.495 17.3003C141.274 17.4646 140.916 17.7636 140.42 18.2016C139.978 18.6382 139.62 18.9667 139.345 19.1857C139.235 19.0215 139.042 18.7477 138.766 18.3659C138.435 18.0373 138.214 17.7917 138.105 17.6288H134.386V19.7599H131.657V17.6288H127.027V15.4163H131.657V14.5964H127.854V6.48182L127.853 6.4762ZM127.357 0.984136H132.648V5.82058H127.357V0.984136ZM130.499 2.951H129.424V3.93514H130.499V2.951ZM130.417 8.68876V9.67289H131.657V8.68876H130.417ZM130.417 11.4755V12.3768H131.657V11.4755H130.417ZM135.625 8.68876H134.384V9.67289H135.625V8.68876ZM135.625 12.3768V11.4755H134.384V12.3768H135.625ZM136.617 2.951H135.46V3.93514H136.617V2.951Z" fill="#1C1D1D"/>
  <path d="M156.193 9.83574C156.468 10.6556 156.744 11.6945 157.02 12.951C157.13 13.3343 157.212 13.6347 157.268 13.8523V3.36094H161.484V0.328514H164.378V3.36094H168.595V16.7219H165.784V15.7378H164.378V19.7543H161.484V15.7378H160.078V16.7219H157.268V14.8364L155.697 15.3278C155.366 13.6347 154.981 12.0483 154.541 10.5742V19.7543H151.73V10.8199C151.565 11.6945 151.317 12.951 150.987 14.5908C150.821 15.4106 150.711 16.0129 150.656 16.3948L148.672 15.9034C149.057 14.4279 149.47 12.4344 149.912 9.91998L151.732 10.2485V8.77299H149.5V5.82199H156.444V8.77299H154.542V10.3299L156.196 9.83855L156.193 9.83574ZM155.945 4.01657H150.488V1.14699H155.945V4.01657ZM160.078 6.14769V8.27882H161.484V6.14769H160.078ZM160.078 10.8199V12.951H161.484V10.8199H160.078ZM165.783 6.14769H164.377V8.27882H165.783V6.14769ZM164.377 10.8199V12.951H165.783V10.8199H164.377Z" fill="#1C1D1D"/>
  <path d="M174.28 10.0828L177.586 10.4928C177.476 11.5317 177.339 12.5158 177.173 13.4438C177.888 14.8659 178.854 15.7672 180.067 16.1491V9.18153H173.535V0.984137H189.655V9.18153H183.537V11.2312H190.399V14.1822H183.537V16.3948H191.555C191.5 16.559 191.417 16.8047 191.308 17.1318C190.921 18.1693 190.673 18.9064 190.563 19.3444C189.846 19.3444 188.827 19.3163 187.505 19.263C184.528 19.263 182.572 19.2082 181.636 19.0987C178.934 19.0987 177.061 18.3883 176.015 16.9676C175.463 17.8955 174.692 18.9064 173.7 20C173.645 19.9452 173.561 19.8357 173.452 19.6715C172.515 18.6326 171.825 17.8955 171.385 17.4589C173.313 15.9301 174.279 13.4704 174.279 10.0814L174.28 10.0828ZM177.009 6.31195H186.185V3.85231H177.009V6.31195Z" fill="#1C1D1D"/>
  <path d="M193.937 4.18082V1.22982H200.551V4.18082H198.815V7.9517H200.385V10.9027H198.815V14.8378C199.421 14.7297 199.972 14.6469 200.469 14.5922V17.6246C200.082 17.6779 199.476 17.7889 198.649 17.9531C196.666 18.2255 195.149 18.4711 194.103 18.6916L193.607 15.4949C194.269 15.3854 194.985 15.3039 195.757 15.2492V10.9055H194.103V7.95451H195.757V4.18363H193.939L193.937 4.18082ZM213.778 8.44307C213.336 8.93444 212.593 9.67289 211.547 10.6556C211.105 11.0936 210.803 11.3941 210.638 11.5569C211.353 12.7039 212.427 13.8523 213.862 14.9993C213.751 15.2183 213.585 15.5735 213.366 16.0649C212.87 16.9942 212.511 17.6485 212.291 18.0317C210.803 16.7752 209.481 15.0274 208.323 12.7853V16.392C208.433 18.4136 207.467 19.4244 205.429 19.4244C205.208 19.4777 204.326 19.5058 202.784 19.5058C202.618 18.4122 202.397 17.4828 202.123 16.7191C202.618 16.7738 203.279 16.8005 204.106 16.8005C204.933 16.8553 205.318 16.4453 205.263 15.5707V14.0138C204.876 14.2875 204.27 14.7241 203.444 15.325C202.561 15.9806 201.9 16.4453 201.46 16.7191L200.303 13.6038C200.469 13.4943 200.743 13.3315 201.13 13.1125C202.838 12.1283 204.215 11.3084 205.263 10.6528V6.22631H200.799V3.35673H205.263V0.164257H208.321V3.36094H210.305C210.194 3.19669 210.029 2.97908 209.809 2.70532C209.314 2.10445 208.982 1.66784 208.817 1.39408L210.966 0.0828304C211.297 0.520848 211.847 1.14839 212.62 1.96827C212.785 2.13253 212.895 2.26871 212.951 2.37821L211.463 3.36235H213.53V6.23192H208.323C208.654 7.27081 208.984 8.22687 209.315 9.1015C210.03 8.28162 210.721 7.46174 211.382 6.64186L213.779 8.44447L213.778 8.44307ZM202.948 6.64046C203.167 7.02373 203.527 7.59652 204.023 8.36164C204.463 9.12817 204.794 9.70097 205.015 10.0828L202.37 11.4769C201.763 10.1657 201.13 8.93584 200.469 7.78885L202.949 6.64186L202.948 6.64046Z" fill="#1C1D1D"/>
  <path d="M222.028 8.93444C222.469 9.64481 222.8 10.3833 223.021 11.147C224.674 10.4914 226.024 9.75291 227.072 8.93444L226.989 8.77018C226.989 8.66068 226.907 8.5245 226.742 8.36024C226.355 8.57925 225.694 8.93444 224.758 9.4258C224.427 9.53531 224.179 9.64481 224.015 9.75432C223.573 8.93444 223.106 8.11456 222.609 7.29468C224.592 6.69381 226.025 6.09294 226.907 5.49066H223.601V2.86817H226.164C225.722 2.2673 225.282 1.61168 224.842 0.901306L227.57 9.418e-08C227.955 0.438018 228.506 1.17507 229.224 2.21255L227.653 2.86817H229.885C230.6 1.83069 231.207 0.874631 231.704 -0.00140381L234.68 0.818475C234.349 1.25649 234.239 1.39267 234.349 1.22842C233.854 1.99495 233.467 2.53966 233.192 2.86817H235.673V5.49066H231.043C230.436 6.03819 229.803 6.52955 229.142 6.96617C229.473 7.51369 229.774 8.08648 230.051 8.68735C231.648 7.75937 232.998 6.85666 234.101 5.98203L235.921 8.27741C235.204 8.76878 234.46 9.23347 233.689 9.67149C234.021 12.0216 234.791 13.8804 236.004 15.245C235.949 15.4092 235.839 15.6549 235.673 15.9834C235.397 16.4748 234.983 17.2133 234.433 18.196C232.945 16.3386 231.98 13.9071 231.539 10.9013C231.483 10.9561 231.4 11.0108 231.291 11.0656C231.125 11.1751 231.015 11.2579 230.96 11.3112C231.179 12.4049 231.291 13.6881 231.291 15.1636C231.457 18.1679 230.382 19.562 228.067 19.3444C227.515 19.3977 226.55 19.4258 225.173 19.4258C225.062 18.7702 224.925 18.0865 224.759 17.3761C224.594 17.3761 224.318 17.4575 223.933 17.6218C223.546 17.8394 223.243 17.977 223.024 18.0317C222.803 17.4842 222.528 16.9395 222.197 16.392C221.865 16.611 221.37 16.7752 220.709 16.8833C220.267 16.9928 219.936 17.0476 219.716 17.0476L219.385 15.5721V19.7529H216.574V1.06556H223.188V4.01657L222.031 8.93444H222.028ZM219.383 4.01657V13.7709H219.879C220.54 13.8256 220.843 13.389 220.788 12.4596C220.788 11.6398 220.346 10.5208 219.465 9.09869L220.54 4.01657H219.383ZM228.146 11.804C228.146 11.6945 228.118 11.5583 228.064 11.3941C228.064 11.2298 228.036 11.1217 227.982 11.0656C226.879 11.9402 225.585 12.7601 224.097 13.5252C223.986 13.2528 223.794 12.8696 223.518 12.3782C223.352 12.1059 223.242 11.8868 223.186 11.7226C223.352 12.3249 223.406 12.8696 223.352 13.3623C223.406 14.018 223.352 14.5655 223.186 15.0021C224.894 14.3465 226.548 13.2809 228.146 11.8054V11.804ZM227.237 16.9676C228.118 17.0223 228.531 16.4495 228.478 15.2464V14.8364C227.595 15.5468 226.63 16.2305 225.583 16.8861C226.245 16.9409 226.795 16.9676 227.237 16.9676Z" fill="#1C1D1D"/>
</svg>
