<svg width="59" height="60" viewBox="0 0 59 60" fill="none" xmlns="http://www.w3.org/2000/svg">
<g clip-path="url(#clip0_1128_3932)">
<path d="M3.67479 45.1719H4.52006C10.6662 45.1719 16.8123 45.1719 22.9585 45.1648C23.4026 45.1648 23.7607 45.2435 24.1189 45.5516C24.4842 45.8668 24.9212 46.1031 25.3582 46.3109C29.1332 48.116 32.9155 49.9069 36.6977 51.7049C36.8983 51.798 37.0917 51.9054 37.3639 52.0415C36.3969 53.1304 35.2221 53.7321 33.8467 53.9542C33.4097 54.0258 32.9585 54.0473 32.5072 54.0473C23.8395 54.0473 15.1648 54.0473 6.49714 54.0473C3.27364 54.0473 0.830946 52.192 0.157593 49.2192C0.0358166 48.6891 0 48.1304 0 47.586C0 33.8825 0 20.1862 0 6.48281C0 3.51003 1.48281 1.23925 4.04728 0.365329C4.72779 0.136103 5.47994 0.02149 6.19628 0.02149C14.9928 0 23.7822 0 32.5788 0C36.0315 0 38.7034 2.48567 38.7536 5.9169C38.8324 11.4756 38.7751 17.0344 38.7822 22.586C38.7822 22.6433 38.7607 22.7006 38.7393 22.8223C37.5072 22.586 36.2822 22.4427 35.1648 23.5029V9.04728H3.67479V45.1719ZM19.3768 6.00286C20.9599 6.00286 22.5501 6.01719 24.1332 6.00286C24.8281 5.9957 25.2507 5.53725 25.2507 4.89971C25.2507 4.26934 24.8066 3.7894 24.1332 3.78223C21.0029 3.76791 17.8725 3.76791 14.7421 3.78223C14.1332 3.78223 13.6963 4.23352 13.6461 4.79943C13.5888 5.47994 14.0903 5.9957 14.8639 6.00286C16.3682 6.01719 17.8725 6.00286 19.3768 6.00286ZM19.3696 51.2822C19.9355 51.2822 20.5086 51.2894 21.0745 51.2822C22.0129 51.2607 22.7364 50.5802 22.765 49.7063C22.7937 48.8682 22.1275 48.1017 21.2106 48.0659C19.9928 48.0158 18.7679 48.0158 17.5501 48.0659C16.6332 48.1017 15.9885 48.8539 16.0172 49.7206C16.0458 50.5874 16.7407 51.2607 17.6504 51.2894C18.2163 51.3037 18.7894 51.2894 19.3553 51.2894L19.3696 51.2822Z" fill="#1C1D1D"/>
<path d="M39.8855 25.8668C39.907 25.5157 39.8998 25.2794 39.9284 25.043C40.0789 24.0043 40.8239 23.2306 41.8196 23.0731C42.8368 22.9083 43.8181 23.4026 44.3411 24.4054C45.3081 26.2607 46.2608 28.1232 47.1921 30C48.5889 32.8008 49.9356 35.6232 51.354 38.4169C52.3711 40.4155 52.1921 42.5215 52.0273 44.6347C52.013 44.7923 51.8411 44.9928 51.6906 45.0716C47.6219 47.106 43.5388 49.1261 39.4557 51.139C39.2909 51.2178 39.0115 51.2178 38.8396 51.139C34.3625 49.0186 29.8783 46.8911 25.4156 44.7349C23.9041 44.0043 23.3668 42.2421 24.1118 40.659C24.7923 39.2049 26.5903 38.5745 28.1806 39.2693C29.2264 39.7206 30.2365 40.2507 31.2608 40.7378C31.4184 40.8094 31.5832 40.8739 31.8697 40.9885C31.5545 40.3223 31.3181 39.7708 31.0459 39.2407C28.2522 33.7536 25.4514 28.2665 22.6433 22.7865C22.321 22.1562 22.1777 21.5258 22.364 20.8453C22.6362 19.8854 23.3024 19.3195 24.2694 19.1905C25.2723 19.0616 26.0603 19.4986 26.5832 20.351C26.8984 20.8668 27.1491 21.4327 27.4213 21.9771C28.3668 23.861 29.3052 25.7521 30.3439 27.8152C30.4084 26.3109 30.9456 25.3008 32.3425 25.086C33.682 24.8782 34.4915 25.6733 35.1075 26.9126C35.1577 25.5731 35.5731 24.606 36.8267 24.2765C38.2379 23.904 39.1405 24.649 39.8711 25.8739L39.8855 25.8668Z" fill="#1C1D1D"/>
<path d="M58.6176 51.1175C58.6032 51.7765 58.2594 52.0559 57.8153 52.278C55.5373 53.3954 53.2594 54.5201 50.9815 55.6447C48.1949 57.0201 45.4012 58.3883 42.6147 59.7565C41.6978 60.2078 41.2322 60.0573 40.7809 59.1762C39.9929 57.6433 39.205 56.1032 38.4242 54.5631C38.0015 53.7249 38.1591 53.2378 38.9829 52.8295C44.0832 50.3152 49.1835 47.8009 54.2909 45.2937C55.1075 44.8926 55.5946 45.043 55.9958 45.8238C56.8196 47.4141 57.629 49.0043 58.4385 50.6017C58.5388 50.7951 58.5889 51.0172 58.6247 51.1247L58.6176 51.1175Z" fill="#1C1D1D"/>
<path d="M15.0076 30.0358C16.1537 30.8954 17.3142 31.6189 18.7683 31.8839C18.7683 30.5229 18.7755 29.2263 18.754 27.9298C18.754 27.808 18.5391 27.6361 18.3887 27.5788C17.615 27.2779 16.8127 27.0487 16.0463 26.7263C13.2382 25.5301 13.5678 21.3538 15.6093 20C16.5835 19.3553 17.658 19.0401 18.8615 18.8968V17.8438H20.2297C20.244 18.159 20.2583 18.4885 20.2726 18.8467C20.7382 18.9398 21.1824 19.0329 21.5835 19.1117C21.3543 19.871 21.1322 20.5945 20.903 21.361C20.7597 21.3538 20.5663 21.3395 20.3084 21.3252V25.3223C21.0749 25.6017 21.8844 25.8667 22.658 26.2034C22.9231 26.318 23.1881 26.5759 23.317 26.8409C23.8471 27.894 24.3486 28.9613 24.8213 30.0358C24.936 30.2937 24.9646 30.6303 24.9073 30.9025C24.5276 32.6432 23.0162 33.8753 20.9531 34.1834C20.6953 34.2192 20.4374 34.2693 20.1222 34.3123V35.8667H18.7683V34.5344C17.3357 33.947 16.0033 33.4312 14.6996 32.8438C14.234 32.6361 13.84 32.2493 13.3672 31.9197C13.9331 31.2607 14.4632 30.6518 14.9933 30.0358H15.0076ZM20.4159 32.0702C21.6552 32.0415 22.5935 31.2822 22.6365 30.2865C22.6723 29.4412 21.8701 28.5172 20.4159 28.3739V32.0702ZM18.7397 21.3467C17.5362 21.404 16.7626 22.1203 16.7769 23.1518C16.7841 24.0902 17.7297 24.9713 18.7397 24.9856V21.3467Z" fill="#1C1D1D"/>
</g>
<defs>
<clipPath id="clip0_1128_3932">
<rect width="58.6175" height="60" fill="white"/>
</clipPath>
</defs>
</svg>
